%TF.GenerationSoftware,KiCad,Pcbnew,7.0.9-7.0.9~ubuntu22.04.1*%
%TF.CreationDate,2023-12-17T21:38:24+01:00*%
%TF.ProjectId,StarPCB_panelized,53746172-5043-4425-9f70-616e656c697a,rev?*%
%TF.SameCoordinates,Original*%
%TF.FileFunction,Legend,Top*%
%TF.FilePolarity,Positive*%
%FSLAX46Y46*%
G04 Gerber Fmt 4.6, Leading zero omitted, Abs format (unit mm)*
G04 Created by KiCad (PCBNEW 7.0.9-7.0.9~ubuntu22.04.1) date 2023-12-17 21:38:24*
%MOMM*%
%LPD*%
G01*
G04 APERTURE LIST*
%ADD10C,0.300000*%
%ADD11C,0.150000*%
%ADD12C,0.120000*%
G04 APERTURE END LIST*
D10*
X173446510Y-95891400D02*
X174589368Y-95891400D01*
X187416510Y-93605400D02*
X188559368Y-93605400D01*
X187987939Y-94176828D02*
X187987939Y-93033971D01*
X193146510Y-135291400D02*
X194289368Y-135291400D01*
X134046510Y-154991400D02*
X135189368Y-154991400D01*
X193146510Y-95891400D02*
X194289368Y-95891400D01*
X134046510Y-76191400D02*
X135189368Y-76191400D01*
X153746510Y-115591400D02*
X154889368Y-115591400D01*
X134046510Y-95891400D02*
X135189368Y-95891400D01*
X153746510Y-154991400D02*
X154889368Y-154991400D01*
X114346510Y-154991400D02*
X115489368Y-154991400D01*
X148016510Y-113305400D02*
X149159368Y-113305400D01*
X148587939Y-113876828D02*
X148587939Y-112733971D01*
X128316510Y-152705400D02*
X129459368Y-152705400D01*
X128887939Y-153276828D02*
X128887939Y-152133971D01*
X167716510Y-133005400D02*
X168859368Y-133005400D01*
X168287939Y-133576828D02*
X168287939Y-132433971D01*
X153746510Y-95891400D02*
X154889368Y-95891400D01*
X173446510Y-154991400D02*
X174589368Y-154991400D01*
X167716510Y-152705400D02*
X168859368Y-152705400D01*
X168287939Y-153276828D02*
X168287939Y-152133971D01*
X148016510Y-73905400D02*
X149159368Y-73905400D01*
X148587939Y-74476828D02*
X148587939Y-73333971D01*
X193146510Y-76191400D02*
X194289368Y-76191400D01*
X128316510Y-73905400D02*
X129459368Y-73905400D01*
X128887939Y-74476828D02*
X128887939Y-73333971D01*
X207116510Y-73905400D02*
X208259368Y-73905400D01*
X207687939Y-74476828D02*
X207687939Y-73333971D01*
X134046510Y-115591400D02*
X135189368Y-115591400D01*
X207116510Y-113305400D02*
X208259368Y-113305400D01*
X207687939Y-113876828D02*
X207687939Y-112733971D01*
X187416510Y-113305400D02*
X188559368Y-113305400D01*
X187987939Y-113876828D02*
X187987939Y-112733971D01*
X134046510Y-135291400D02*
X135189368Y-135291400D01*
X187416510Y-73905400D02*
X188559368Y-73905400D01*
X187987939Y-74476828D02*
X187987939Y-73333971D01*
X148016510Y-152705400D02*
X149159368Y-152705400D01*
X148587939Y-153276828D02*
X148587939Y-152133971D01*
X173446510Y-76191400D02*
X174589368Y-76191400D01*
X193146510Y-115591400D02*
X194289368Y-115591400D01*
X128316510Y-113305400D02*
X129459368Y-113305400D01*
X128887939Y-113876828D02*
X128887939Y-112733971D01*
X173446510Y-135291400D02*
X174589368Y-135291400D01*
X207116510Y-93605400D02*
X208259368Y-93605400D01*
X207687939Y-94176828D02*
X207687939Y-93033971D01*
X207116510Y-133005400D02*
X208259368Y-133005400D01*
X207687939Y-133576828D02*
X207687939Y-132433971D01*
X114346510Y-95891400D02*
X115489368Y-95891400D01*
X167716510Y-93605400D02*
X168859368Y-93605400D01*
X168287939Y-94176828D02*
X168287939Y-93033971D01*
X148016510Y-93605400D02*
X149159368Y-93605400D01*
X148587939Y-94176828D02*
X148587939Y-93033971D01*
X187416510Y-133005400D02*
X188559368Y-133005400D01*
X187987939Y-133576828D02*
X187987939Y-132433971D01*
X114346510Y-76191400D02*
X115489368Y-76191400D01*
X148016510Y-133005400D02*
X149159368Y-133005400D01*
X148587939Y-133576828D02*
X148587939Y-132433971D01*
X167716510Y-113305400D02*
X168859368Y-113305400D01*
X168287939Y-113876828D02*
X168287939Y-112733971D01*
X193146510Y-154991400D02*
X194289368Y-154991400D01*
X167716510Y-73905400D02*
X168859368Y-73905400D01*
X168287939Y-74476828D02*
X168287939Y-73333971D01*
X114346510Y-135291400D02*
X115489368Y-135291400D01*
X187416510Y-152705400D02*
X188559368Y-152705400D01*
X187987939Y-153276828D02*
X187987939Y-152133971D01*
X114346510Y-115591400D02*
X115489368Y-115591400D01*
X153746510Y-76191400D02*
X154889368Y-76191400D01*
X128316510Y-133005400D02*
X129459368Y-133005400D01*
X128887939Y-133576828D02*
X128887939Y-132433971D01*
X128316510Y-93605400D02*
X129459368Y-93605400D01*
X128887939Y-94176828D02*
X128887939Y-93033971D01*
X153746510Y-135291400D02*
X154889368Y-135291400D01*
X173446510Y-115591400D02*
X174589368Y-115591400D01*
X207116510Y-152705400D02*
X208259368Y-152705400D01*
X207687939Y-153276828D02*
X207687939Y-152133971D01*
D11*
X180893048Y-64843866D02*
X181654953Y-64843866D01*
X181274000Y-65224819D02*
X181274000Y-64462914D01*
X141904048Y-159488866D02*
X142665953Y-159488866D01*
X142285000Y-159869819D02*
X142285000Y-159107914D01*
X121793048Y-64843866D02*
X122554953Y-64843866D01*
X122174000Y-65224819D02*
X122174000Y-64462914D01*
X161604048Y-100388866D02*
X162365953Y-100388866D01*
X161985000Y-100769819D02*
X161985000Y-100007914D01*
X180893048Y-123943866D02*
X181654953Y-123943866D01*
X181274000Y-124324819D02*
X181274000Y-123562914D01*
X115587952Y-69288819D02*
X115712952Y-68288819D01*
X115712952Y-68288819D02*
X115951048Y-68288819D01*
X115951048Y-68288819D02*
X116087952Y-68336438D01*
X116087952Y-68336438D02*
X116171286Y-68431676D01*
X116171286Y-68431676D02*
X116207000Y-68526914D01*
X116207000Y-68526914D02*
X116230810Y-68717390D01*
X116230810Y-68717390D02*
X116212952Y-68860247D01*
X116212952Y-68860247D02*
X116141524Y-69050723D01*
X116141524Y-69050723D02*
X116082000Y-69145961D01*
X116082000Y-69145961D02*
X115974857Y-69241200D01*
X115974857Y-69241200D02*
X115826048Y-69288819D01*
X115826048Y-69288819D02*
X115587952Y-69288819D01*
X117111762Y-69288819D02*
X116540333Y-69288819D01*
X116826048Y-69288819D02*
X116951048Y-68288819D01*
X116951048Y-68288819D02*
X116837952Y-68431676D01*
X116837952Y-68431676D02*
X116730810Y-68526914D01*
X116730810Y-68526914D02*
X116629619Y-68574533D01*
X178353048Y-143643866D02*
X179114953Y-143643866D01*
X154987952Y-108688819D02*
X155112952Y-107688819D01*
X155112952Y-107688819D02*
X155351048Y-107688819D01*
X155351048Y-107688819D02*
X155487952Y-107736438D01*
X155487952Y-107736438D02*
X155571286Y-107831676D01*
X155571286Y-107831676D02*
X155607000Y-107926914D01*
X155607000Y-107926914D02*
X155630810Y-108117390D01*
X155630810Y-108117390D02*
X155612952Y-108260247D01*
X155612952Y-108260247D02*
X155541524Y-108450723D01*
X155541524Y-108450723D02*
X155482000Y-108545961D01*
X155482000Y-108545961D02*
X155374857Y-108641200D01*
X155374857Y-108641200D02*
X155226048Y-108688819D01*
X155226048Y-108688819D02*
X154987952Y-108688819D01*
X156511762Y-108688819D02*
X155940333Y-108688819D01*
X156226048Y-108688819D02*
X156351048Y-107688819D01*
X156351048Y-107688819D02*
X156237952Y-107831676D01*
X156237952Y-107831676D02*
X156130810Y-107926914D01*
X156130810Y-107926914D02*
X156029619Y-107974533D01*
X180893048Y-84543866D02*
X181654953Y-84543866D01*
X181274000Y-84924819D02*
X181274000Y-84162914D01*
X200593048Y-64843866D02*
X201354953Y-64843866D01*
X200974000Y-65224819D02*
X200974000Y-64462914D01*
X119253048Y-104243866D02*
X120014953Y-104243866D01*
X174687952Y-128388819D02*
X174812952Y-127388819D01*
X174812952Y-127388819D02*
X175051048Y-127388819D01*
X175051048Y-127388819D02*
X175187952Y-127436438D01*
X175187952Y-127436438D02*
X175271286Y-127531676D01*
X175271286Y-127531676D02*
X175307000Y-127626914D01*
X175307000Y-127626914D02*
X175330810Y-127817390D01*
X175330810Y-127817390D02*
X175312952Y-127960247D01*
X175312952Y-127960247D02*
X175241524Y-128150723D01*
X175241524Y-128150723D02*
X175182000Y-128245961D01*
X175182000Y-128245961D02*
X175074857Y-128341200D01*
X175074857Y-128341200D02*
X174926048Y-128388819D01*
X174926048Y-128388819D02*
X174687952Y-128388819D01*
X176211762Y-128388819D02*
X175640333Y-128388819D01*
X175926048Y-128388819D02*
X176051048Y-127388819D01*
X176051048Y-127388819D02*
X175937952Y-127531676D01*
X175937952Y-127531676D02*
X175830810Y-127626914D01*
X175830810Y-127626914D02*
X175729619Y-127674533D01*
X177720048Y-119862866D02*
X178481953Y-119862866D01*
X197420048Y-80462866D02*
X198181953Y-80462866D01*
X198053048Y-123943866D02*
X198814953Y-123943866D01*
X174687952Y-148088819D02*
X174812952Y-147088819D01*
X174812952Y-147088819D02*
X175051048Y-147088819D01*
X175051048Y-147088819D02*
X175187952Y-147136438D01*
X175187952Y-147136438D02*
X175271286Y-147231676D01*
X175271286Y-147231676D02*
X175307000Y-147326914D01*
X175307000Y-147326914D02*
X175330810Y-147517390D01*
X175330810Y-147517390D02*
X175312952Y-147660247D01*
X175312952Y-147660247D02*
X175241524Y-147850723D01*
X175241524Y-147850723D02*
X175182000Y-147945961D01*
X175182000Y-147945961D02*
X175074857Y-148041200D01*
X175074857Y-148041200D02*
X174926048Y-148088819D01*
X174926048Y-148088819D02*
X174687952Y-148088819D01*
X176211762Y-148088819D02*
X175640333Y-148088819D01*
X175926048Y-148088819D02*
X176051048Y-147088819D01*
X176051048Y-147088819D02*
X175937952Y-147231676D01*
X175937952Y-147231676D02*
X175830810Y-147326914D01*
X175830810Y-147326914D02*
X175729619Y-147374533D01*
X198053048Y-84543866D02*
X198814953Y-84543866D01*
X135287952Y-108688819D02*
X135412952Y-107688819D01*
X135412952Y-107688819D02*
X135651048Y-107688819D01*
X135651048Y-107688819D02*
X135787952Y-107736438D01*
X135787952Y-107736438D02*
X135871286Y-107831676D01*
X135871286Y-107831676D02*
X135907000Y-107926914D01*
X135907000Y-107926914D02*
X135930810Y-108117390D01*
X135930810Y-108117390D02*
X135912952Y-108260247D01*
X135912952Y-108260247D02*
X135841524Y-108450723D01*
X135841524Y-108450723D02*
X135782000Y-108545961D01*
X135782000Y-108545961D02*
X135674857Y-108641200D01*
X135674857Y-108641200D02*
X135526048Y-108688819D01*
X135526048Y-108688819D02*
X135287952Y-108688819D01*
X136811762Y-108688819D02*
X136240333Y-108688819D01*
X136526048Y-108688819D02*
X136651048Y-107688819D01*
X136651048Y-107688819D02*
X136537952Y-107831676D01*
X136537952Y-107831676D02*
X136430810Y-107926914D01*
X136430810Y-107926914D02*
X136329619Y-107974533D01*
X121793048Y-104243866D02*
X122554953Y-104243866D01*
X122174000Y-104624819D02*
X122174000Y-103862914D01*
X141493048Y-123943866D02*
X142254953Y-123943866D01*
X141874000Y-124324819D02*
X141874000Y-123562914D01*
X201004048Y-80688866D02*
X201765953Y-80688866D01*
X201385000Y-81069819D02*
X201385000Y-80307914D01*
X138953048Y-64843866D02*
X139714953Y-64843866D01*
X138320048Y-80462866D02*
X139081953Y-80462866D01*
X118620048Y-80462866D02*
X119381953Y-80462866D01*
X119253048Y-64843866D02*
X120014953Y-64843866D01*
X141904048Y-100388866D02*
X142665953Y-100388866D01*
X142285000Y-100769819D02*
X142285000Y-100007914D01*
X178353048Y-84543866D02*
X179114953Y-84543866D01*
X122204048Y-139788866D02*
X122965953Y-139788866D01*
X122585000Y-140169819D02*
X122585000Y-139407914D01*
X154987952Y-88988819D02*
X155112952Y-87988819D01*
X155112952Y-87988819D02*
X155351048Y-87988819D01*
X155351048Y-87988819D02*
X155487952Y-88036438D01*
X155487952Y-88036438D02*
X155571286Y-88131676D01*
X155571286Y-88131676D02*
X155607000Y-88226914D01*
X155607000Y-88226914D02*
X155630810Y-88417390D01*
X155630810Y-88417390D02*
X155612952Y-88560247D01*
X155612952Y-88560247D02*
X155541524Y-88750723D01*
X155541524Y-88750723D02*
X155482000Y-88845961D01*
X155482000Y-88845961D02*
X155374857Y-88941200D01*
X155374857Y-88941200D02*
X155226048Y-88988819D01*
X155226048Y-88988819D02*
X154987952Y-88988819D01*
X156511762Y-88988819D02*
X155940333Y-88988819D01*
X156226048Y-88988819D02*
X156351048Y-87988819D01*
X156351048Y-87988819D02*
X156237952Y-88131676D01*
X156237952Y-88131676D02*
X156130810Y-88226914D01*
X156130810Y-88226914D02*
X156029619Y-88274533D01*
X198053048Y-64843866D02*
X198814953Y-64843866D01*
X158020048Y-119862866D02*
X158781953Y-119862866D01*
X119253048Y-123943866D02*
X120014953Y-123943866D01*
X200593048Y-123943866D02*
X201354953Y-123943866D01*
X200974000Y-124324819D02*
X200974000Y-123562914D01*
X122204048Y-159488866D02*
X122965953Y-159488866D01*
X122585000Y-159869819D02*
X122585000Y-159107914D01*
X181304048Y-100388866D02*
X182065953Y-100388866D01*
X181685000Y-100769819D02*
X181685000Y-100007914D01*
X200593048Y-104243866D02*
X201354953Y-104243866D01*
X200974000Y-104624819D02*
X200974000Y-103862914D01*
X177720048Y-100162866D02*
X178481953Y-100162866D01*
X197420048Y-159262866D02*
X198181953Y-159262866D01*
X138320048Y-159262866D02*
X139081953Y-159262866D01*
X118620048Y-119862866D02*
X119381953Y-119862866D01*
X138953048Y-143643866D02*
X139714953Y-143643866D01*
X119253048Y-143643866D02*
X120014953Y-143643866D01*
X161604048Y-139788866D02*
X162365953Y-139788866D01*
X161985000Y-140169819D02*
X161985000Y-139407914D01*
X177720048Y-139562866D02*
X178481953Y-139562866D01*
X194387952Y-148088819D02*
X194512952Y-147088819D01*
X194512952Y-147088819D02*
X194751048Y-147088819D01*
X194751048Y-147088819D02*
X194887952Y-147136438D01*
X194887952Y-147136438D02*
X194971286Y-147231676D01*
X194971286Y-147231676D02*
X195007000Y-147326914D01*
X195007000Y-147326914D02*
X195030810Y-147517390D01*
X195030810Y-147517390D02*
X195012952Y-147660247D01*
X195012952Y-147660247D02*
X194941524Y-147850723D01*
X194941524Y-147850723D02*
X194882000Y-147945961D01*
X194882000Y-147945961D02*
X194774857Y-148041200D01*
X194774857Y-148041200D02*
X194626048Y-148088819D01*
X194626048Y-148088819D02*
X194387952Y-148088819D01*
X195911762Y-148088819D02*
X195340333Y-148088819D01*
X195626048Y-148088819D02*
X195751048Y-147088819D01*
X195751048Y-147088819D02*
X195637952Y-147231676D01*
X195637952Y-147231676D02*
X195530810Y-147326914D01*
X195530810Y-147326914D02*
X195429619Y-147374533D01*
X181304048Y-159488866D02*
X182065953Y-159488866D01*
X181685000Y-159869819D02*
X181685000Y-159107914D01*
X201004048Y-100388866D02*
X201765953Y-100388866D01*
X201385000Y-100769819D02*
X201385000Y-100007914D01*
X121793048Y-143643866D02*
X122554953Y-143643866D01*
X122174000Y-144024819D02*
X122174000Y-143262914D01*
X135287952Y-128388819D02*
X135412952Y-127388819D01*
X135412952Y-127388819D02*
X135651048Y-127388819D01*
X135651048Y-127388819D02*
X135787952Y-127436438D01*
X135787952Y-127436438D02*
X135871286Y-127531676D01*
X135871286Y-127531676D02*
X135907000Y-127626914D01*
X135907000Y-127626914D02*
X135930810Y-127817390D01*
X135930810Y-127817390D02*
X135912952Y-127960247D01*
X135912952Y-127960247D02*
X135841524Y-128150723D01*
X135841524Y-128150723D02*
X135782000Y-128245961D01*
X135782000Y-128245961D02*
X135674857Y-128341200D01*
X135674857Y-128341200D02*
X135526048Y-128388819D01*
X135526048Y-128388819D02*
X135287952Y-128388819D01*
X136811762Y-128388819D02*
X136240333Y-128388819D01*
X136526048Y-128388819D02*
X136651048Y-127388819D01*
X136651048Y-127388819D02*
X136537952Y-127531676D01*
X136537952Y-127531676D02*
X136430810Y-127626914D01*
X136430810Y-127626914D02*
X136329619Y-127674533D01*
X181304048Y-80688866D02*
X182065953Y-80688866D01*
X181685000Y-81069819D02*
X181685000Y-80307914D01*
X161193048Y-64843866D02*
X161954953Y-64843866D01*
X161574000Y-65224819D02*
X161574000Y-64462914D01*
X141493048Y-143643866D02*
X142254953Y-143643866D01*
X141874000Y-144024819D02*
X141874000Y-143262914D01*
X138320048Y-100162866D02*
X139081953Y-100162866D01*
X122204048Y-120088866D02*
X122965953Y-120088866D01*
X122585000Y-120469819D02*
X122585000Y-119707914D01*
X158653048Y-84543866D02*
X159414953Y-84543866D01*
X200593048Y-143643866D02*
X201354953Y-143643866D01*
X200974000Y-144024819D02*
X200974000Y-143262914D01*
X141493048Y-104243866D02*
X142254953Y-104243866D01*
X141874000Y-104624819D02*
X141874000Y-103862914D01*
X201004048Y-120088866D02*
X201765953Y-120088866D01*
X201385000Y-120469819D02*
X201385000Y-119707914D01*
X154987952Y-128388819D02*
X155112952Y-127388819D01*
X155112952Y-127388819D02*
X155351048Y-127388819D01*
X155351048Y-127388819D02*
X155487952Y-127436438D01*
X155487952Y-127436438D02*
X155571286Y-127531676D01*
X155571286Y-127531676D02*
X155607000Y-127626914D01*
X155607000Y-127626914D02*
X155630810Y-127817390D01*
X155630810Y-127817390D02*
X155612952Y-127960247D01*
X155612952Y-127960247D02*
X155541524Y-128150723D01*
X155541524Y-128150723D02*
X155482000Y-128245961D01*
X155482000Y-128245961D02*
X155374857Y-128341200D01*
X155374857Y-128341200D02*
X155226048Y-128388819D01*
X155226048Y-128388819D02*
X154987952Y-128388819D01*
X156511762Y-128388819D02*
X155940333Y-128388819D01*
X156226048Y-128388819D02*
X156351048Y-127388819D01*
X156351048Y-127388819D02*
X156237952Y-127531676D01*
X156237952Y-127531676D02*
X156130810Y-127626914D01*
X156130810Y-127626914D02*
X156029619Y-127674533D01*
X158653048Y-64843866D02*
X159414953Y-64843866D01*
X121793048Y-123943866D02*
X122554953Y-123943866D01*
X122174000Y-124324819D02*
X122174000Y-123562914D01*
X180893048Y-143643866D02*
X181654953Y-143643866D01*
X181274000Y-144024819D02*
X181274000Y-143262914D01*
X118620048Y-100162866D02*
X119381953Y-100162866D01*
X201004048Y-159488866D02*
X201765953Y-159488866D01*
X201385000Y-159869819D02*
X201385000Y-159107914D01*
X138953048Y-84543866D02*
X139714953Y-84543866D01*
X197420048Y-139562866D02*
X198181953Y-139562866D01*
X181304048Y-139788866D02*
X182065953Y-139788866D01*
X181685000Y-140169819D02*
X181685000Y-139407914D01*
X180893048Y-104243866D02*
X181654953Y-104243866D01*
X181274000Y-104624819D02*
X181274000Y-103862914D01*
X141493048Y-64843866D02*
X142254953Y-64843866D01*
X141874000Y-65224819D02*
X141874000Y-64462914D01*
X178353048Y-123943866D02*
X179114953Y-123943866D01*
X194387952Y-108688819D02*
X194512952Y-107688819D01*
X194512952Y-107688819D02*
X194751048Y-107688819D01*
X194751048Y-107688819D02*
X194887952Y-107736438D01*
X194887952Y-107736438D02*
X194971286Y-107831676D01*
X194971286Y-107831676D02*
X195007000Y-107926914D01*
X195007000Y-107926914D02*
X195030810Y-108117390D01*
X195030810Y-108117390D02*
X195012952Y-108260247D01*
X195012952Y-108260247D02*
X194941524Y-108450723D01*
X194941524Y-108450723D02*
X194882000Y-108545961D01*
X194882000Y-108545961D02*
X194774857Y-108641200D01*
X194774857Y-108641200D02*
X194626048Y-108688819D01*
X194626048Y-108688819D02*
X194387952Y-108688819D01*
X195911762Y-108688819D02*
X195340333Y-108688819D01*
X195626048Y-108688819D02*
X195751048Y-107688819D01*
X195751048Y-107688819D02*
X195637952Y-107831676D01*
X195637952Y-107831676D02*
X195530810Y-107926914D01*
X195530810Y-107926914D02*
X195429619Y-107974533D01*
X178353048Y-64843866D02*
X179114953Y-64843866D01*
X177720048Y-159262866D02*
X178481953Y-159262866D01*
X122204048Y-100388866D02*
X122965953Y-100388866D01*
X122585000Y-100769819D02*
X122585000Y-100007914D01*
X198053048Y-143643866D02*
X198814953Y-143643866D01*
X161193048Y-104243866D02*
X161954953Y-104243866D01*
X161574000Y-104624819D02*
X161574000Y-103862914D01*
X194387952Y-88988819D02*
X194512952Y-87988819D01*
X194512952Y-87988819D02*
X194751048Y-87988819D01*
X194751048Y-87988819D02*
X194887952Y-88036438D01*
X194887952Y-88036438D02*
X194971286Y-88131676D01*
X194971286Y-88131676D02*
X195007000Y-88226914D01*
X195007000Y-88226914D02*
X195030810Y-88417390D01*
X195030810Y-88417390D02*
X195012952Y-88560247D01*
X195012952Y-88560247D02*
X194941524Y-88750723D01*
X194941524Y-88750723D02*
X194882000Y-88845961D01*
X194882000Y-88845961D02*
X194774857Y-88941200D01*
X194774857Y-88941200D02*
X194626048Y-88988819D01*
X194626048Y-88988819D02*
X194387952Y-88988819D01*
X195911762Y-88988819D02*
X195340333Y-88988819D01*
X195626048Y-88988819D02*
X195751048Y-87988819D01*
X195751048Y-87988819D02*
X195637952Y-88131676D01*
X195637952Y-88131676D02*
X195530810Y-88226914D01*
X195530810Y-88226914D02*
X195429619Y-88274533D01*
X158653048Y-104243866D02*
X159414953Y-104243866D01*
X161604048Y-159488866D02*
X162365953Y-159488866D01*
X161985000Y-159869819D02*
X161985000Y-159107914D01*
X197420048Y-100162866D02*
X198181953Y-100162866D01*
X174687952Y-108688819D02*
X174812952Y-107688819D01*
X174812952Y-107688819D02*
X175051048Y-107688819D01*
X175051048Y-107688819D02*
X175187952Y-107736438D01*
X175187952Y-107736438D02*
X175271286Y-107831676D01*
X175271286Y-107831676D02*
X175307000Y-107926914D01*
X175307000Y-107926914D02*
X175330810Y-108117390D01*
X175330810Y-108117390D02*
X175312952Y-108260247D01*
X175312952Y-108260247D02*
X175241524Y-108450723D01*
X175241524Y-108450723D02*
X175182000Y-108545961D01*
X175182000Y-108545961D02*
X175074857Y-108641200D01*
X175074857Y-108641200D02*
X174926048Y-108688819D01*
X174926048Y-108688819D02*
X174687952Y-108688819D01*
X176211762Y-108688819D02*
X175640333Y-108688819D01*
X175926048Y-108688819D02*
X176051048Y-107688819D01*
X176051048Y-107688819D02*
X175937952Y-107831676D01*
X175937952Y-107831676D02*
X175830810Y-107926914D01*
X175830810Y-107926914D02*
X175729619Y-107974533D01*
X138320048Y-139562866D02*
X139081953Y-139562866D01*
X121793048Y-84543866D02*
X122554953Y-84543866D01*
X122174000Y-84924819D02*
X122174000Y-84162914D01*
X161193048Y-123943866D02*
X161954953Y-123943866D01*
X161574000Y-124324819D02*
X161574000Y-123562914D01*
X200593048Y-84543866D02*
X201354953Y-84543866D01*
X200974000Y-84924819D02*
X200974000Y-84162914D01*
X161193048Y-143643866D02*
X161954953Y-143643866D01*
X161574000Y-144024819D02*
X161574000Y-143262914D01*
X174687952Y-69288819D02*
X174812952Y-68288819D01*
X174812952Y-68288819D02*
X175051048Y-68288819D01*
X175051048Y-68288819D02*
X175187952Y-68336438D01*
X175187952Y-68336438D02*
X175271286Y-68431676D01*
X175271286Y-68431676D02*
X175307000Y-68526914D01*
X175307000Y-68526914D02*
X175330810Y-68717390D01*
X175330810Y-68717390D02*
X175312952Y-68860247D01*
X175312952Y-68860247D02*
X175241524Y-69050723D01*
X175241524Y-69050723D02*
X175182000Y-69145961D01*
X175182000Y-69145961D02*
X175074857Y-69241200D01*
X175074857Y-69241200D02*
X174926048Y-69288819D01*
X174926048Y-69288819D02*
X174687952Y-69288819D01*
X176211762Y-69288819D02*
X175640333Y-69288819D01*
X175926048Y-69288819D02*
X176051048Y-68288819D01*
X176051048Y-68288819D02*
X175937952Y-68431676D01*
X175937952Y-68431676D02*
X175830810Y-68526914D01*
X175830810Y-68526914D02*
X175729619Y-68574533D01*
X194387952Y-69288819D02*
X194512952Y-68288819D01*
X194512952Y-68288819D02*
X194751048Y-68288819D01*
X194751048Y-68288819D02*
X194887952Y-68336438D01*
X194887952Y-68336438D02*
X194971286Y-68431676D01*
X194971286Y-68431676D02*
X195007000Y-68526914D01*
X195007000Y-68526914D02*
X195030810Y-68717390D01*
X195030810Y-68717390D02*
X195012952Y-68860247D01*
X195012952Y-68860247D02*
X194941524Y-69050723D01*
X194941524Y-69050723D02*
X194882000Y-69145961D01*
X194882000Y-69145961D02*
X194774857Y-69241200D01*
X194774857Y-69241200D02*
X194626048Y-69288819D01*
X194626048Y-69288819D02*
X194387952Y-69288819D01*
X195911762Y-69288819D02*
X195340333Y-69288819D01*
X195626048Y-69288819D02*
X195751048Y-68288819D01*
X195751048Y-68288819D02*
X195637952Y-68431676D01*
X195637952Y-68431676D02*
X195530810Y-68526914D01*
X195530810Y-68526914D02*
X195429619Y-68574533D01*
X158653048Y-143643866D02*
X159414953Y-143643866D01*
X141904048Y-120088866D02*
X142665953Y-120088866D01*
X142285000Y-120469819D02*
X142285000Y-119707914D01*
X135287952Y-148088819D02*
X135412952Y-147088819D01*
X135412952Y-147088819D02*
X135651048Y-147088819D01*
X135651048Y-147088819D02*
X135787952Y-147136438D01*
X135787952Y-147136438D02*
X135871286Y-147231676D01*
X135871286Y-147231676D02*
X135907000Y-147326914D01*
X135907000Y-147326914D02*
X135930810Y-147517390D01*
X135930810Y-147517390D02*
X135912952Y-147660247D01*
X135912952Y-147660247D02*
X135841524Y-147850723D01*
X135841524Y-147850723D02*
X135782000Y-147945961D01*
X135782000Y-147945961D02*
X135674857Y-148041200D01*
X135674857Y-148041200D02*
X135526048Y-148088819D01*
X135526048Y-148088819D02*
X135287952Y-148088819D01*
X136811762Y-148088819D02*
X136240333Y-148088819D01*
X136526048Y-148088819D02*
X136651048Y-147088819D01*
X136651048Y-147088819D02*
X136537952Y-147231676D01*
X136537952Y-147231676D02*
X136430810Y-147326914D01*
X136430810Y-147326914D02*
X136329619Y-147374533D01*
X158020048Y-100162866D02*
X158781953Y-100162866D01*
X154987952Y-148088819D02*
X155112952Y-147088819D01*
X155112952Y-147088819D02*
X155351048Y-147088819D01*
X155351048Y-147088819D02*
X155487952Y-147136438D01*
X155487952Y-147136438D02*
X155571286Y-147231676D01*
X155571286Y-147231676D02*
X155607000Y-147326914D01*
X155607000Y-147326914D02*
X155630810Y-147517390D01*
X155630810Y-147517390D02*
X155612952Y-147660247D01*
X155612952Y-147660247D02*
X155541524Y-147850723D01*
X155541524Y-147850723D02*
X155482000Y-147945961D01*
X155482000Y-147945961D02*
X155374857Y-148041200D01*
X155374857Y-148041200D02*
X155226048Y-148088819D01*
X155226048Y-148088819D02*
X154987952Y-148088819D01*
X156511762Y-148088819D02*
X155940333Y-148088819D01*
X156226048Y-148088819D02*
X156351048Y-147088819D01*
X156351048Y-147088819D02*
X156237952Y-147231676D01*
X156237952Y-147231676D02*
X156130810Y-147326914D01*
X156130810Y-147326914D02*
X156029619Y-147374533D01*
X115587952Y-128388819D02*
X115712952Y-127388819D01*
X115712952Y-127388819D02*
X115951048Y-127388819D01*
X115951048Y-127388819D02*
X116087952Y-127436438D01*
X116087952Y-127436438D02*
X116171286Y-127531676D01*
X116171286Y-127531676D02*
X116207000Y-127626914D01*
X116207000Y-127626914D02*
X116230810Y-127817390D01*
X116230810Y-127817390D02*
X116212952Y-127960247D01*
X116212952Y-127960247D02*
X116141524Y-128150723D01*
X116141524Y-128150723D02*
X116082000Y-128245961D01*
X116082000Y-128245961D02*
X115974857Y-128341200D01*
X115974857Y-128341200D02*
X115826048Y-128388819D01*
X115826048Y-128388819D02*
X115587952Y-128388819D01*
X117111762Y-128388819D02*
X116540333Y-128388819D01*
X116826048Y-128388819D02*
X116951048Y-127388819D01*
X116951048Y-127388819D02*
X116837952Y-127531676D01*
X116837952Y-127531676D02*
X116730810Y-127626914D01*
X116730810Y-127626914D02*
X116629619Y-127674533D01*
X181304048Y-120088866D02*
X182065953Y-120088866D01*
X181685000Y-120469819D02*
X181685000Y-119707914D01*
X138953048Y-123943866D02*
X139714953Y-123943866D01*
X118620048Y-159262866D02*
X119381953Y-159262866D01*
X115587952Y-88988819D02*
X115712952Y-87988819D01*
X115712952Y-87988819D02*
X115951048Y-87988819D01*
X115951048Y-87988819D02*
X116087952Y-88036438D01*
X116087952Y-88036438D02*
X116171286Y-88131676D01*
X116171286Y-88131676D02*
X116207000Y-88226914D01*
X116207000Y-88226914D02*
X116230810Y-88417390D01*
X116230810Y-88417390D02*
X116212952Y-88560247D01*
X116212952Y-88560247D02*
X116141524Y-88750723D01*
X116141524Y-88750723D02*
X116082000Y-88845961D01*
X116082000Y-88845961D02*
X115974857Y-88941200D01*
X115974857Y-88941200D02*
X115826048Y-88988819D01*
X115826048Y-88988819D02*
X115587952Y-88988819D01*
X117111762Y-88988819D02*
X116540333Y-88988819D01*
X116826048Y-88988819D02*
X116951048Y-87988819D01*
X116951048Y-87988819D02*
X116837952Y-88131676D01*
X116837952Y-88131676D02*
X116730810Y-88226914D01*
X116730810Y-88226914D02*
X116629619Y-88274533D01*
X138953048Y-104243866D02*
X139714953Y-104243866D01*
X115587952Y-108688819D02*
X115712952Y-107688819D01*
X115712952Y-107688819D02*
X115951048Y-107688819D01*
X115951048Y-107688819D02*
X116087952Y-107736438D01*
X116087952Y-107736438D02*
X116171286Y-107831676D01*
X116171286Y-107831676D02*
X116207000Y-107926914D01*
X116207000Y-107926914D02*
X116230810Y-108117390D01*
X116230810Y-108117390D02*
X116212952Y-108260247D01*
X116212952Y-108260247D02*
X116141524Y-108450723D01*
X116141524Y-108450723D02*
X116082000Y-108545961D01*
X116082000Y-108545961D02*
X115974857Y-108641200D01*
X115974857Y-108641200D02*
X115826048Y-108688819D01*
X115826048Y-108688819D02*
X115587952Y-108688819D01*
X117111762Y-108688819D02*
X116540333Y-108688819D01*
X116826048Y-108688819D02*
X116951048Y-107688819D01*
X116951048Y-107688819D02*
X116837952Y-107831676D01*
X116837952Y-107831676D02*
X116730810Y-107926914D01*
X116730810Y-107926914D02*
X116629619Y-107974533D01*
X141904048Y-139788866D02*
X142665953Y-139788866D01*
X142285000Y-140169819D02*
X142285000Y-139407914D01*
X178353048Y-104243866D02*
X179114953Y-104243866D01*
X154987952Y-69288819D02*
X155112952Y-68288819D01*
X155112952Y-68288819D02*
X155351048Y-68288819D01*
X155351048Y-68288819D02*
X155487952Y-68336438D01*
X155487952Y-68336438D02*
X155571286Y-68431676D01*
X155571286Y-68431676D02*
X155607000Y-68526914D01*
X155607000Y-68526914D02*
X155630810Y-68717390D01*
X155630810Y-68717390D02*
X155612952Y-68860247D01*
X155612952Y-68860247D02*
X155541524Y-69050723D01*
X155541524Y-69050723D02*
X155482000Y-69145961D01*
X155482000Y-69145961D02*
X155374857Y-69241200D01*
X155374857Y-69241200D02*
X155226048Y-69288819D01*
X155226048Y-69288819D02*
X154987952Y-69288819D01*
X156511762Y-69288819D02*
X155940333Y-69288819D01*
X156226048Y-69288819D02*
X156351048Y-68288819D01*
X156351048Y-68288819D02*
X156237952Y-68431676D01*
X156237952Y-68431676D02*
X156130810Y-68526914D01*
X156130810Y-68526914D02*
X156029619Y-68574533D01*
X135287952Y-69288819D02*
X135412952Y-68288819D01*
X135412952Y-68288819D02*
X135651048Y-68288819D01*
X135651048Y-68288819D02*
X135787952Y-68336438D01*
X135787952Y-68336438D02*
X135871286Y-68431676D01*
X135871286Y-68431676D02*
X135907000Y-68526914D01*
X135907000Y-68526914D02*
X135930810Y-68717390D01*
X135930810Y-68717390D02*
X135912952Y-68860247D01*
X135912952Y-68860247D02*
X135841524Y-69050723D01*
X135841524Y-69050723D02*
X135782000Y-69145961D01*
X135782000Y-69145961D02*
X135674857Y-69241200D01*
X135674857Y-69241200D02*
X135526048Y-69288819D01*
X135526048Y-69288819D02*
X135287952Y-69288819D01*
X136811762Y-69288819D02*
X136240333Y-69288819D01*
X136526048Y-69288819D02*
X136651048Y-68288819D01*
X136651048Y-68288819D02*
X136537952Y-68431676D01*
X136537952Y-68431676D02*
X136430810Y-68526914D01*
X136430810Y-68526914D02*
X136329619Y-68574533D01*
X118620048Y-139562866D02*
X119381953Y-139562866D01*
X158020048Y-80462866D02*
X158781953Y-80462866D01*
X158653048Y-123943866D02*
X159414953Y-123943866D01*
X135287952Y-88988819D02*
X135412952Y-87988819D01*
X135412952Y-87988819D02*
X135651048Y-87988819D01*
X135651048Y-87988819D02*
X135787952Y-88036438D01*
X135787952Y-88036438D02*
X135871286Y-88131676D01*
X135871286Y-88131676D02*
X135907000Y-88226914D01*
X135907000Y-88226914D02*
X135930810Y-88417390D01*
X135930810Y-88417390D02*
X135912952Y-88560247D01*
X135912952Y-88560247D02*
X135841524Y-88750723D01*
X135841524Y-88750723D02*
X135782000Y-88845961D01*
X135782000Y-88845961D02*
X135674857Y-88941200D01*
X135674857Y-88941200D02*
X135526048Y-88988819D01*
X135526048Y-88988819D02*
X135287952Y-88988819D01*
X136811762Y-88988819D02*
X136240333Y-88988819D01*
X136526048Y-88988819D02*
X136651048Y-87988819D01*
X136651048Y-87988819D02*
X136537952Y-88131676D01*
X136537952Y-88131676D02*
X136430810Y-88226914D01*
X136430810Y-88226914D02*
X136329619Y-88274533D01*
X177720048Y-80462866D02*
X178481953Y-80462866D01*
X161604048Y-120088866D02*
X162365953Y-120088866D01*
X161985000Y-120469819D02*
X161985000Y-119707914D01*
X197420048Y-119862866D02*
X198181953Y-119862866D01*
X161604048Y-80688866D02*
X162365953Y-80688866D01*
X161985000Y-81069819D02*
X161985000Y-80307914D01*
X161193048Y-84543866D02*
X161954953Y-84543866D01*
X161574000Y-84924819D02*
X161574000Y-84162914D01*
X138320048Y-119862866D02*
X139081953Y-119862866D01*
X158020048Y-159262866D02*
X158781953Y-159262866D01*
X174687952Y-88988819D02*
X174812952Y-87988819D01*
X174812952Y-87988819D02*
X175051048Y-87988819D01*
X175051048Y-87988819D02*
X175187952Y-88036438D01*
X175187952Y-88036438D02*
X175271286Y-88131676D01*
X175271286Y-88131676D02*
X175307000Y-88226914D01*
X175307000Y-88226914D02*
X175330810Y-88417390D01*
X175330810Y-88417390D02*
X175312952Y-88560247D01*
X175312952Y-88560247D02*
X175241524Y-88750723D01*
X175241524Y-88750723D02*
X175182000Y-88845961D01*
X175182000Y-88845961D02*
X175074857Y-88941200D01*
X175074857Y-88941200D02*
X174926048Y-88988819D01*
X174926048Y-88988819D02*
X174687952Y-88988819D01*
X176211762Y-88988819D02*
X175640333Y-88988819D01*
X175926048Y-88988819D02*
X176051048Y-87988819D01*
X176051048Y-87988819D02*
X175937952Y-88131676D01*
X175937952Y-88131676D02*
X175830810Y-88226914D01*
X175830810Y-88226914D02*
X175729619Y-88274533D01*
X201004048Y-139788866D02*
X201765953Y-139788866D01*
X201385000Y-140169819D02*
X201385000Y-139407914D01*
X122204048Y-80688866D02*
X122965953Y-80688866D01*
X122585000Y-81069819D02*
X122585000Y-80307914D01*
X119253048Y-84543866D02*
X120014953Y-84543866D01*
X194387952Y-128388819D02*
X194512952Y-127388819D01*
X194512952Y-127388819D02*
X194751048Y-127388819D01*
X194751048Y-127388819D02*
X194887952Y-127436438D01*
X194887952Y-127436438D02*
X194971286Y-127531676D01*
X194971286Y-127531676D02*
X195007000Y-127626914D01*
X195007000Y-127626914D02*
X195030810Y-127817390D01*
X195030810Y-127817390D02*
X195012952Y-127960247D01*
X195012952Y-127960247D02*
X194941524Y-128150723D01*
X194941524Y-128150723D02*
X194882000Y-128245961D01*
X194882000Y-128245961D02*
X194774857Y-128341200D01*
X194774857Y-128341200D02*
X194626048Y-128388819D01*
X194626048Y-128388819D02*
X194387952Y-128388819D01*
X195911762Y-128388819D02*
X195340333Y-128388819D01*
X195626048Y-128388819D02*
X195751048Y-127388819D01*
X195751048Y-127388819D02*
X195637952Y-127531676D01*
X195637952Y-127531676D02*
X195530810Y-127626914D01*
X195530810Y-127626914D02*
X195429619Y-127674533D01*
X115587952Y-148088819D02*
X115712952Y-147088819D01*
X115712952Y-147088819D02*
X115951048Y-147088819D01*
X115951048Y-147088819D02*
X116087952Y-147136438D01*
X116087952Y-147136438D02*
X116171286Y-147231676D01*
X116171286Y-147231676D02*
X116207000Y-147326914D01*
X116207000Y-147326914D02*
X116230810Y-147517390D01*
X116230810Y-147517390D02*
X116212952Y-147660247D01*
X116212952Y-147660247D02*
X116141524Y-147850723D01*
X116141524Y-147850723D02*
X116082000Y-147945961D01*
X116082000Y-147945961D02*
X115974857Y-148041200D01*
X115974857Y-148041200D02*
X115826048Y-148088819D01*
X115826048Y-148088819D02*
X115587952Y-148088819D01*
X117111762Y-148088819D02*
X116540333Y-148088819D01*
X116826048Y-148088819D02*
X116951048Y-147088819D01*
X116951048Y-147088819D02*
X116837952Y-147231676D01*
X116837952Y-147231676D02*
X116730810Y-147326914D01*
X116730810Y-147326914D02*
X116629619Y-147374533D01*
X141904048Y-80688866D02*
X142665953Y-80688866D01*
X142285000Y-81069819D02*
X142285000Y-80307914D01*
X141493048Y-84543866D02*
X142254953Y-84543866D01*
X141874000Y-84924819D02*
X141874000Y-84162914D01*
X158020048Y-139562866D02*
X158781953Y-139562866D01*
X198053048Y-104243866D02*
X198814953Y-104243866D01*
D12*
%TO.C,D1*%
X113157000Y-72517000D02*
X113157000Y-75438000D01*
X113157000Y-75438000D02*
X117983000Y-75438000D01*
X116967000Y-72517000D02*
X113157000Y-72517000D01*
X125712000Y-72644000D02*
G75*
G03*
X125712000Y-72644000I-4300000J0D01*
G01*
X152557000Y-111917000D02*
X152557000Y-114838000D01*
X152557000Y-114838000D02*
X157383000Y-114838000D01*
X156367000Y-111917000D02*
X152557000Y-111917000D01*
X165112000Y-112044000D02*
G75*
G03*
X165112000Y-112044000I-4300000J0D01*
G01*
X172257000Y-131617000D02*
X172257000Y-134538000D01*
X172257000Y-134538000D02*
X177083000Y-134538000D01*
X176067000Y-131617000D02*
X172257000Y-131617000D01*
X184812000Y-131744000D02*
G75*
G03*
X184812000Y-131744000I-4300000J0D01*
G01*
X172257000Y-151317000D02*
X172257000Y-154238000D01*
X172257000Y-154238000D02*
X177083000Y-154238000D01*
X176067000Y-151317000D02*
X172257000Y-151317000D01*
X184812000Y-151444000D02*
G75*
G03*
X184812000Y-151444000I-4300000J0D01*
G01*
X132857000Y-111917000D02*
X132857000Y-114838000D01*
X132857000Y-114838000D02*
X137683000Y-114838000D01*
X136667000Y-111917000D02*
X132857000Y-111917000D01*
X145412000Y-112044000D02*
G75*
G03*
X145412000Y-112044000I-4300000J0D01*
G01*
X152557000Y-92217000D02*
X152557000Y-95138000D01*
X152557000Y-95138000D02*
X157383000Y-95138000D01*
X156367000Y-92217000D02*
X152557000Y-92217000D01*
X165112000Y-92344000D02*
G75*
G03*
X165112000Y-92344000I-4300000J0D01*
G01*
X191957000Y-151317000D02*
X191957000Y-154238000D01*
X191957000Y-154238000D02*
X196783000Y-154238000D01*
X195767000Y-151317000D02*
X191957000Y-151317000D01*
X204512000Y-151444000D02*
G75*
G03*
X204512000Y-151444000I-4300000J0D01*
G01*
X132857000Y-131617000D02*
X132857000Y-134538000D01*
X132857000Y-134538000D02*
X137683000Y-134538000D01*
X136667000Y-131617000D02*
X132857000Y-131617000D01*
X145412000Y-131744000D02*
G75*
G03*
X145412000Y-131744000I-4300000J0D01*
G01*
X152557000Y-131617000D02*
X152557000Y-134538000D01*
X152557000Y-134538000D02*
X157383000Y-134538000D01*
X156367000Y-131617000D02*
X152557000Y-131617000D01*
X165112000Y-131744000D02*
G75*
G03*
X165112000Y-131744000I-4300000J0D01*
G01*
X191957000Y-111917000D02*
X191957000Y-114838000D01*
X191957000Y-114838000D02*
X196783000Y-114838000D01*
X195767000Y-111917000D02*
X191957000Y-111917000D01*
X204512000Y-112044000D02*
G75*
G03*
X204512000Y-112044000I-4300000J0D01*
G01*
X191957000Y-92217000D02*
X191957000Y-95138000D01*
X191957000Y-95138000D02*
X196783000Y-95138000D01*
X195767000Y-92217000D02*
X191957000Y-92217000D01*
X204512000Y-92344000D02*
G75*
G03*
X204512000Y-92344000I-4300000J0D01*
G01*
X172257000Y-111917000D02*
X172257000Y-114838000D01*
X172257000Y-114838000D02*
X177083000Y-114838000D01*
X176067000Y-111917000D02*
X172257000Y-111917000D01*
X184812000Y-112044000D02*
G75*
G03*
X184812000Y-112044000I-4300000J0D01*
G01*
X172257000Y-72517000D02*
X172257000Y-75438000D01*
X172257000Y-75438000D02*
X177083000Y-75438000D01*
X176067000Y-72517000D02*
X172257000Y-72517000D01*
X184812000Y-72644000D02*
G75*
G03*
X184812000Y-72644000I-4300000J0D01*
G01*
X191957000Y-72517000D02*
X191957000Y-75438000D01*
X191957000Y-75438000D02*
X196783000Y-75438000D01*
X195767000Y-72517000D02*
X191957000Y-72517000D01*
X204512000Y-72644000D02*
G75*
G03*
X204512000Y-72644000I-4300000J0D01*
G01*
X132857000Y-151317000D02*
X132857000Y-154238000D01*
X132857000Y-154238000D02*
X137683000Y-154238000D01*
X136667000Y-151317000D02*
X132857000Y-151317000D01*
X145412000Y-151444000D02*
G75*
G03*
X145412000Y-151444000I-4300000J0D01*
G01*
X152557000Y-151317000D02*
X152557000Y-154238000D01*
X152557000Y-154238000D02*
X157383000Y-154238000D01*
X156367000Y-151317000D02*
X152557000Y-151317000D01*
X165112000Y-151444000D02*
G75*
G03*
X165112000Y-151444000I-4300000J0D01*
G01*
X113157000Y-131617000D02*
X113157000Y-134538000D01*
X113157000Y-134538000D02*
X117983000Y-134538000D01*
X116967000Y-131617000D02*
X113157000Y-131617000D01*
X125712000Y-131744000D02*
G75*
G03*
X125712000Y-131744000I-4300000J0D01*
G01*
X113157000Y-92217000D02*
X113157000Y-95138000D01*
X113157000Y-95138000D02*
X117983000Y-95138000D01*
X116967000Y-92217000D02*
X113157000Y-92217000D01*
X125712000Y-92344000D02*
G75*
G03*
X125712000Y-92344000I-4300000J0D01*
G01*
X113157000Y-111917000D02*
X113157000Y-114838000D01*
X113157000Y-114838000D02*
X117983000Y-114838000D01*
X116967000Y-111917000D02*
X113157000Y-111917000D01*
X125712000Y-112044000D02*
G75*
G03*
X125712000Y-112044000I-4300000J0D01*
G01*
X152557000Y-72517000D02*
X152557000Y-75438000D01*
X152557000Y-75438000D02*
X157383000Y-75438000D01*
X156367000Y-72517000D02*
X152557000Y-72517000D01*
X165112000Y-72644000D02*
G75*
G03*
X165112000Y-72644000I-4300000J0D01*
G01*
X132857000Y-72517000D02*
X132857000Y-75438000D01*
X132857000Y-75438000D02*
X137683000Y-75438000D01*
X136667000Y-72517000D02*
X132857000Y-72517000D01*
X145412000Y-72644000D02*
G75*
G03*
X145412000Y-72644000I-4300000J0D01*
G01*
X132857000Y-92217000D02*
X132857000Y-95138000D01*
X132857000Y-95138000D02*
X137683000Y-95138000D01*
X136667000Y-92217000D02*
X132857000Y-92217000D01*
X145412000Y-92344000D02*
G75*
G03*
X145412000Y-92344000I-4300000J0D01*
G01*
X172257000Y-92217000D02*
X172257000Y-95138000D01*
X172257000Y-95138000D02*
X177083000Y-95138000D01*
X176067000Y-92217000D02*
X172257000Y-92217000D01*
X184812000Y-92344000D02*
G75*
G03*
X184812000Y-92344000I-4300000J0D01*
G01*
X191957000Y-131617000D02*
X191957000Y-134538000D01*
X191957000Y-134538000D02*
X196783000Y-134538000D01*
X195767000Y-131617000D02*
X191957000Y-131617000D01*
X204512000Y-131744000D02*
G75*
G03*
X204512000Y-131744000I-4300000J0D01*
G01*
X113157000Y-151317000D02*
X113157000Y-154238000D01*
X113157000Y-154238000D02*
X117983000Y-154238000D01*
X116967000Y-151317000D02*
X113157000Y-151317000D01*
X125712000Y-151444000D02*
G75*
G03*
X125712000Y-151444000I-4300000J0D01*
G01*
%TD*%
M02*
