%TF.GenerationSoftware,KiCad,Pcbnew,7.0.9-7.0.9~ubuntu22.04.1*%
%TF.CreationDate,2023-12-17T21:38:20+01:00*%
%TF.ProjectId,StarPCB_panelized,53746172-5043-4425-9f70-616e656c697a,rev?*%
%TF.SameCoordinates,Original*%
%TF.FileFunction,Drillmap*%
%TF.FilePolarity,Positive*%
%FSLAX45Y45*%
G04 Gerber Fmt 4.5, Leading zero omitted, Abs format (unit mm)*
G04 Created by KiCad (PCBNEW 7.0.9-7.0.9~ubuntu22.04.1) date 2023-12-17 21:38:20*
%MOMM*%
%LPD*%
G01*
G04 APERTURE LIST*
%ADD10C,0.100000*%
%ADD11C,0.200000*%
G04 APERTURE END LIST*
D10*
X19021400Y-6190000D02*
X19021400Y-16040000D01*
X11146400Y-8155000D02*
X20996400Y-8155000D01*
X11146400Y-14065000D02*
X20996400Y-14065000D01*
X11146400Y-6190000D02*
X20996400Y-6190000D01*
X13111400Y-6190000D02*
X13111400Y-16040000D01*
X20996400Y-6190000D02*
X20996400Y-16040000D01*
X17051400Y-6190000D02*
X17051400Y-16040000D01*
X11146400Y-12095000D02*
X20996400Y-12095000D01*
X11146400Y-10125000D02*
X20996400Y-10125000D01*
X15081400Y-6190000D02*
X15081400Y-16040000D01*
X11146400Y-16040000D02*
X11146400Y-6190000D01*
X20996400Y-16040000D02*
X11146400Y-16040000D01*
D11*
X11402177Y-16356484D02*
X11402177Y-16156484D01*
X11402177Y-16156484D02*
X11449796Y-16156484D01*
X11449796Y-16156484D02*
X11478367Y-16166008D01*
X11478367Y-16166008D02*
X11497415Y-16185055D01*
X11497415Y-16185055D02*
X11506939Y-16204103D01*
X11506939Y-16204103D02*
X11516462Y-16242198D01*
X11516462Y-16242198D02*
X11516462Y-16270769D01*
X11516462Y-16270769D02*
X11506939Y-16308865D01*
X11506939Y-16308865D02*
X11497415Y-16327912D01*
X11497415Y-16327912D02*
X11478367Y-16346960D01*
X11478367Y-16346960D02*
X11449796Y-16356484D01*
X11449796Y-16356484D02*
X11402177Y-16356484D01*
X11602177Y-16356484D02*
X11602177Y-16223150D01*
X11602177Y-16261246D02*
X11611701Y-16242198D01*
X11611701Y-16242198D02*
X11621224Y-16232674D01*
X11621224Y-16232674D02*
X11640272Y-16223150D01*
X11640272Y-16223150D02*
X11659320Y-16223150D01*
X11725986Y-16356484D02*
X11725986Y-16223150D01*
X11725986Y-16156484D02*
X11716462Y-16166008D01*
X11716462Y-16166008D02*
X11725986Y-16175531D01*
X11725986Y-16175531D02*
X11735510Y-16166008D01*
X11735510Y-16166008D02*
X11725986Y-16156484D01*
X11725986Y-16156484D02*
X11725986Y-16175531D01*
X11849796Y-16356484D02*
X11830748Y-16346960D01*
X11830748Y-16346960D02*
X11821224Y-16327912D01*
X11821224Y-16327912D02*
X11821224Y-16156484D01*
X11954558Y-16356484D02*
X11935510Y-16346960D01*
X11935510Y-16346960D02*
X11925986Y-16327912D01*
X11925986Y-16327912D02*
X11925986Y-16156484D01*
X12183129Y-16356484D02*
X12183129Y-16156484D01*
X12183129Y-16156484D02*
X12249796Y-16299341D01*
X12249796Y-16299341D02*
X12316462Y-16156484D01*
X12316462Y-16156484D02*
X12316462Y-16356484D01*
X12497415Y-16356484D02*
X12497415Y-16251722D01*
X12497415Y-16251722D02*
X12487891Y-16232674D01*
X12487891Y-16232674D02*
X12468843Y-16223150D01*
X12468843Y-16223150D02*
X12430748Y-16223150D01*
X12430748Y-16223150D02*
X12411701Y-16232674D01*
X12497415Y-16346960D02*
X12478367Y-16356484D01*
X12478367Y-16356484D02*
X12430748Y-16356484D01*
X12430748Y-16356484D02*
X12411701Y-16346960D01*
X12411701Y-16346960D02*
X12402177Y-16327912D01*
X12402177Y-16327912D02*
X12402177Y-16308865D01*
X12402177Y-16308865D02*
X12411701Y-16289817D01*
X12411701Y-16289817D02*
X12430748Y-16280293D01*
X12430748Y-16280293D02*
X12478367Y-16280293D01*
X12478367Y-16280293D02*
X12497415Y-16270769D01*
X12592653Y-16223150D02*
X12592653Y-16423150D01*
X12592653Y-16232674D02*
X12611701Y-16223150D01*
X12611701Y-16223150D02*
X12649796Y-16223150D01*
X12649796Y-16223150D02*
X12668843Y-16232674D01*
X12668843Y-16232674D02*
X12678367Y-16242198D01*
X12678367Y-16242198D02*
X12687891Y-16261246D01*
X12687891Y-16261246D02*
X12687891Y-16318388D01*
X12687891Y-16318388D02*
X12678367Y-16337436D01*
X12678367Y-16337436D02*
X12668843Y-16346960D01*
X12668843Y-16346960D02*
X12649796Y-16356484D01*
X12649796Y-16356484D02*
X12611701Y-16356484D01*
X12611701Y-16356484D02*
X12592653Y-16346960D01*
X12773605Y-16337436D02*
X12783129Y-16346960D01*
X12783129Y-16346960D02*
X12773605Y-16356484D01*
X12773605Y-16356484D02*
X12764082Y-16346960D01*
X12764082Y-16346960D02*
X12773605Y-16337436D01*
X12773605Y-16337436D02*
X12773605Y-16356484D01*
X12773605Y-16232674D02*
X12783129Y-16242198D01*
X12783129Y-16242198D02*
X12773605Y-16251722D01*
X12773605Y-16251722D02*
X12764082Y-16242198D01*
X12764082Y-16242198D02*
X12773605Y-16232674D01*
X12773605Y-16232674D02*
X12773605Y-16251722D01*
M02*
