%TF.GenerationSoftware,KiCad,Pcbnew,7.0.9-7.0.9~ubuntu22.04.1*%
%TF.CreationDate,2023-12-17T21:38:24+01:00*%
%TF.ProjectId,StarPCB_panelized,53746172-5043-4425-9f70-616e656c697a,rev?*%
%TF.SameCoordinates,Original*%
%TF.FileFunction,Paste,Top*%
%TF.FilePolarity,Positive*%
%FSLAX46Y46*%
G04 Gerber Fmt 4.6, Leading zero omitted, Abs format (unit mm)*
G04 Created by KiCad (PCBNEW 7.0.9-7.0.9~ubuntu22.04.1) date 2023-12-17 21:38:24*
%MOMM*%
%LPD*%
G01*
G04 APERTURE LIST*
G04 Aperture macros list*
%AMRoundRect*
0 Rectangle with rounded corners*
0 $1 Rounding radius*
0 $2 $3 $4 $5 $6 $7 $8 $9 X,Y pos of 4 corners*
0 Add a 4 corners polygon primitive as box body*
4,1,4,$2,$3,$4,$5,$6,$7,$8,$9,$2,$3,0*
0 Add four circle primitives for the rounded corners*
1,1,$1+$1,$2,$3*
1,1,$1+$1,$4,$5*
1,1,$1+$1,$6,$7*
1,1,$1+$1,$8,$9*
0 Add four rect primitives between the rounded corners*
20,1,$1+$1,$2,$3,$4,$5,0*
20,1,$1+$1,$4,$5,$6,$7,0*
20,1,$1+$1,$6,$7,$8,$9,0*
20,1,$1+$1,$8,$9,$2,$3,0*%
G04 Aperture macros list end*
%ADD10RoundRect,0.020000X-1.980000X-0.980000X1.980000X-0.980000X1.980000X0.980000X-1.980000X0.980000X0*%
%ADD11R,3.500000X2.700000*%
%ADD12C,5.700000*%
G04 APERTURE END LIST*
D10*
%TO.C,J1*%
X183431000Y-66423000D03*
%TD*%
%TO.C,J2*%
X144285000Y-157415000D03*
%TD*%
%TO.C,J1*%
X124331000Y-66423000D03*
%TD*%
%TO.C,J2*%
X163985000Y-98315000D03*
%TD*%
%TO.C,J1*%
X183431000Y-125523000D03*
%TD*%
D11*
%TO.C,D1*%
X115062000Y-73994000D03*
X127762000Y-71294000D03*
D12*
X121412000Y-72644000D03*
%TD*%
D10*
%TO.C,J5*%
X177589000Y-145223000D03*
%TD*%
D11*
%TO.C,D1*%
X154462000Y-113394000D03*
X167162000Y-110694000D03*
D12*
X160812000Y-112044000D03*
%TD*%
D10*
%TO.C,J1*%
X183431000Y-86123000D03*
%TD*%
%TO.C,J1*%
X203131000Y-66423000D03*
%TD*%
%TO.C,J5*%
X118489000Y-105823000D03*
%TD*%
D11*
%TO.C,D1*%
X174162000Y-133094000D03*
X186862000Y-130394000D03*
D12*
X180512000Y-131744000D03*
%TD*%
D10*
%TO.C,J4*%
X177210000Y-117886000D03*
%TD*%
%TO.C,J4*%
X196910000Y-78486000D03*
%TD*%
%TO.C,J5*%
X197289000Y-125523000D03*
%TD*%
D11*
%TO.C,D1*%
X174162000Y-152794000D03*
X186862000Y-150094000D03*
D12*
X180512000Y-151444000D03*
%TD*%
D10*
%TO.C,J5*%
X197289000Y-86123000D03*
%TD*%
D11*
%TO.C,D1*%
X134762000Y-113394000D03*
X147462000Y-110694000D03*
D12*
X141112000Y-112044000D03*
%TD*%
D10*
%TO.C,J1*%
X124331000Y-105823000D03*
%TD*%
%TO.C,J1*%
X144031000Y-125523000D03*
%TD*%
%TO.C,J2*%
X203385000Y-78615000D03*
%TD*%
%TO.C,J5*%
X138189000Y-66423000D03*
%TD*%
%TO.C,J4*%
X137810000Y-78486000D03*
%TD*%
%TO.C,J4*%
X118110000Y-78486000D03*
%TD*%
%TO.C,J5*%
X118489000Y-66423000D03*
%TD*%
%TO.C,J2*%
X144285000Y-98315000D03*
%TD*%
%TO.C,J5*%
X177589000Y-86123000D03*
%TD*%
%TO.C,J2*%
X124585000Y-137715000D03*
%TD*%
D11*
%TO.C,D1*%
X154462000Y-93694000D03*
X167162000Y-90994000D03*
D12*
X160812000Y-92344000D03*
%TD*%
D10*
%TO.C,J5*%
X197289000Y-66423000D03*
%TD*%
%TO.C,J4*%
X157510000Y-117886000D03*
%TD*%
%TO.C,J5*%
X118489000Y-125523000D03*
%TD*%
%TO.C,J1*%
X203131000Y-125523000D03*
%TD*%
%TO.C,J2*%
X124585000Y-157415000D03*
%TD*%
%TO.C,J2*%
X183685000Y-98315000D03*
%TD*%
%TO.C,J1*%
X203131000Y-105823000D03*
%TD*%
%TO.C,J4*%
X177210000Y-98186000D03*
%TD*%
%TO.C,J4*%
X196910000Y-157286000D03*
%TD*%
%TO.C,J4*%
X137810000Y-157286000D03*
%TD*%
%TO.C,J4*%
X118110000Y-117886000D03*
%TD*%
%TO.C,J5*%
X138189000Y-145223000D03*
%TD*%
%TO.C,J5*%
X118489000Y-145223000D03*
%TD*%
%TO.C,J2*%
X163985000Y-137715000D03*
%TD*%
%TO.C,J4*%
X177210000Y-137586000D03*
%TD*%
D11*
%TO.C,D1*%
X193862000Y-152794000D03*
X206562000Y-150094000D03*
D12*
X200212000Y-151444000D03*
%TD*%
D10*
%TO.C,J2*%
X183685000Y-157415000D03*
%TD*%
%TO.C,J2*%
X203385000Y-98315000D03*
%TD*%
%TO.C,J1*%
X124331000Y-145223000D03*
%TD*%
D11*
%TO.C,D1*%
X134762000Y-133094000D03*
X147462000Y-130394000D03*
D12*
X141112000Y-131744000D03*
%TD*%
D10*
%TO.C,J2*%
X183685000Y-78615000D03*
%TD*%
%TO.C,J1*%
X163731000Y-66423000D03*
%TD*%
%TO.C,J1*%
X144031000Y-145223000D03*
%TD*%
%TO.C,J4*%
X137810000Y-98186000D03*
%TD*%
%TO.C,J2*%
X124585000Y-118015000D03*
%TD*%
%TO.C,J5*%
X157889000Y-86123000D03*
%TD*%
%TO.C,J1*%
X203131000Y-145223000D03*
%TD*%
%TO.C,J1*%
X144031000Y-105823000D03*
%TD*%
%TO.C,J2*%
X203385000Y-118015000D03*
%TD*%
D11*
%TO.C,D1*%
X154462000Y-133094000D03*
X167162000Y-130394000D03*
D12*
X160812000Y-131744000D03*
%TD*%
D10*
%TO.C,J5*%
X157889000Y-66423000D03*
%TD*%
%TO.C,J1*%
X124331000Y-125523000D03*
%TD*%
%TO.C,J1*%
X183431000Y-145223000D03*
%TD*%
%TO.C,J4*%
X118110000Y-98186000D03*
%TD*%
%TO.C,J2*%
X203385000Y-157415000D03*
%TD*%
%TO.C,J5*%
X138189000Y-86123000D03*
%TD*%
%TO.C,J4*%
X196910000Y-137586000D03*
%TD*%
%TO.C,J2*%
X183685000Y-137715000D03*
%TD*%
%TO.C,J1*%
X183431000Y-105823000D03*
%TD*%
%TO.C,J1*%
X144031000Y-66423000D03*
%TD*%
%TO.C,J5*%
X177589000Y-125523000D03*
%TD*%
D11*
%TO.C,D1*%
X193862000Y-113394000D03*
X206562000Y-110694000D03*
D12*
X200212000Y-112044000D03*
%TD*%
D10*
%TO.C,J5*%
X177589000Y-66423000D03*
%TD*%
%TO.C,J4*%
X177210000Y-157286000D03*
%TD*%
%TO.C,J2*%
X124585000Y-98315000D03*
%TD*%
%TO.C,J5*%
X197289000Y-145223000D03*
%TD*%
%TO.C,J1*%
X163731000Y-105823000D03*
%TD*%
D11*
%TO.C,D1*%
X193862000Y-93694000D03*
X206562000Y-90994000D03*
D12*
X200212000Y-92344000D03*
%TD*%
D10*
%TO.C,J5*%
X157889000Y-105823000D03*
%TD*%
%TO.C,J2*%
X163985000Y-157415000D03*
%TD*%
%TO.C,J4*%
X196910000Y-98186000D03*
%TD*%
D11*
%TO.C,D1*%
X174162000Y-113394000D03*
X186862000Y-110694000D03*
D12*
X180512000Y-112044000D03*
%TD*%
D10*
%TO.C,J4*%
X137810000Y-137586000D03*
%TD*%
%TO.C,J1*%
X124331000Y-86123000D03*
%TD*%
%TO.C,J1*%
X163731000Y-125523000D03*
%TD*%
%TO.C,J1*%
X203131000Y-86123000D03*
%TD*%
%TO.C,J1*%
X163731000Y-145223000D03*
%TD*%
D11*
%TO.C,D1*%
X174162000Y-73994000D03*
X186862000Y-71294000D03*
D12*
X180512000Y-72644000D03*
%TD*%
D11*
%TO.C,D1*%
X193862000Y-73994000D03*
X206562000Y-71294000D03*
D12*
X200212000Y-72644000D03*
%TD*%
D10*
%TO.C,J5*%
X157889000Y-145223000D03*
%TD*%
%TO.C,J2*%
X144285000Y-118015000D03*
%TD*%
D11*
%TO.C,D1*%
X134762000Y-152794000D03*
X147462000Y-150094000D03*
D12*
X141112000Y-151444000D03*
%TD*%
D10*
%TO.C,J4*%
X157510000Y-98186000D03*
%TD*%
D11*
%TO.C,D1*%
X154462000Y-152794000D03*
X167162000Y-150094000D03*
D12*
X160812000Y-151444000D03*
%TD*%
D11*
%TO.C,D1*%
X115062000Y-133094000D03*
X127762000Y-130394000D03*
D12*
X121412000Y-131744000D03*
%TD*%
D10*
%TO.C,J2*%
X183685000Y-118015000D03*
%TD*%
%TO.C,J5*%
X138189000Y-125523000D03*
%TD*%
%TO.C,J4*%
X118110000Y-157286000D03*
%TD*%
D11*
%TO.C,D1*%
X115062000Y-93694000D03*
X127762000Y-90994000D03*
D12*
X121412000Y-92344000D03*
%TD*%
D10*
%TO.C,J5*%
X138189000Y-105823000D03*
%TD*%
D11*
%TO.C,D1*%
X115062000Y-113394000D03*
X127762000Y-110694000D03*
D12*
X121412000Y-112044000D03*
%TD*%
D10*
%TO.C,J2*%
X144285000Y-137715000D03*
%TD*%
%TO.C,J5*%
X177589000Y-105823000D03*
%TD*%
D11*
%TO.C,D1*%
X154462000Y-73994000D03*
X167162000Y-71294000D03*
D12*
X160812000Y-72644000D03*
%TD*%
D11*
%TO.C,D1*%
X134762000Y-73994000D03*
X147462000Y-71294000D03*
D12*
X141112000Y-72644000D03*
%TD*%
D10*
%TO.C,J4*%
X118110000Y-137586000D03*
%TD*%
%TO.C,J4*%
X157510000Y-78486000D03*
%TD*%
%TO.C,J5*%
X157889000Y-125523000D03*
%TD*%
D11*
%TO.C,D1*%
X134762000Y-93694000D03*
X147462000Y-90994000D03*
D12*
X141112000Y-92344000D03*
%TD*%
D10*
%TO.C,J4*%
X177210000Y-78486000D03*
%TD*%
%TO.C,J2*%
X163985000Y-118015000D03*
%TD*%
%TO.C,J4*%
X196910000Y-117886000D03*
%TD*%
%TO.C,J2*%
X163985000Y-78615000D03*
%TD*%
%TO.C,J1*%
X163731000Y-86123000D03*
%TD*%
%TO.C,J4*%
X137810000Y-117886000D03*
%TD*%
%TO.C,J4*%
X157510000Y-157286000D03*
%TD*%
D11*
%TO.C,D1*%
X174162000Y-93694000D03*
X186862000Y-90994000D03*
D12*
X180512000Y-92344000D03*
%TD*%
D10*
%TO.C,J2*%
X203385000Y-137715000D03*
%TD*%
%TO.C,J2*%
X124585000Y-78615000D03*
%TD*%
%TO.C,J5*%
X118489000Y-86123000D03*
%TD*%
D11*
%TO.C,D1*%
X193862000Y-133094000D03*
X206562000Y-130394000D03*
D12*
X200212000Y-131744000D03*
%TD*%
D11*
%TO.C,D1*%
X115062000Y-152794000D03*
X127762000Y-150094000D03*
D12*
X121412000Y-151444000D03*
%TD*%
D10*
%TO.C,J2*%
X144285000Y-78615000D03*
%TD*%
%TO.C,J1*%
X144031000Y-86123000D03*
%TD*%
%TO.C,J4*%
X157510000Y-137586000D03*
%TD*%
%TO.C,J5*%
X197289000Y-105823000D03*
%TD*%
M02*
