%TF.GenerationSoftware,KiCad,Pcbnew,7.0.9-7.0.9~ubuntu22.04.1*%
%TF.CreationDate,2023-12-17T21:42:43+01:00*%
%TF.ProjectId,StarPCB,53746172-5043-4422-9e6b-696361645f70,rev?*%
%TF.SameCoordinates,Original*%
%TF.FileFunction,Drillmap*%
%TF.FilePolarity,Positive*%
%FSLAX45Y45*%
G04 Gerber Fmt 4.5, Leading zero omitted, Abs format (unit mm)*
G04 Created by KiCad (PCBNEW 7.0.9-7.0.9~ubuntu22.04.1) date 2023-12-17 21:42:43*
%MOMM*%
%LPD*%
G01*
G04 APERTURE LIST*
%ADD10C,0.200000*%
G04 APERTURE END LIST*
D10*
X11255600Y-6378800D02*
X13055600Y-6378800D01*
X13055600Y-8178800D01*
X11255600Y-8178800D01*
X11255600Y-6378800D01*
X11506377Y-8500284D02*
X11506377Y-8300284D01*
X11506377Y-8300284D02*
X11553996Y-8300284D01*
X11553996Y-8300284D02*
X11582567Y-8309808D01*
X11582567Y-8309808D02*
X11601615Y-8328855D01*
X11601615Y-8328855D02*
X11611139Y-8347903D01*
X11611139Y-8347903D02*
X11620662Y-8385998D01*
X11620662Y-8385998D02*
X11620662Y-8414570D01*
X11620662Y-8414570D02*
X11611139Y-8452665D01*
X11611139Y-8452665D02*
X11601615Y-8471712D01*
X11601615Y-8471712D02*
X11582567Y-8490760D01*
X11582567Y-8490760D02*
X11553996Y-8500284D01*
X11553996Y-8500284D02*
X11506377Y-8500284D01*
X11706377Y-8500284D02*
X11706377Y-8366950D01*
X11706377Y-8405046D02*
X11715901Y-8385998D01*
X11715901Y-8385998D02*
X11725424Y-8376474D01*
X11725424Y-8376474D02*
X11744472Y-8366950D01*
X11744472Y-8366950D02*
X11763520Y-8366950D01*
X11830186Y-8500284D02*
X11830186Y-8366950D01*
X11830186Y-8300284D02*
X11820662Y-8309808D01*
X11820662Y-8309808D02*
X11830186Y-8319331D01*
X11830186Y-8319331D02*
X11839710Y-8309808D01*
X11839710Y-8309808D02*
X11830186Y-8300284D01*
X11830186Y-8300284D02*
X11830186Y-8319331D01*
X11953996Y-8500284D02*
X11934948Y-8490760D01*
X11934948Y-8490760D02*
X11925424Y-8471712D01*
X11925424Y-8471712D02*
X11925424Y-8300284D01*
X12058758Y-8500284D02*
X12039710Y-8490760D01*
X12039710Y-8490760D02*
X12030186Y-8471712D01*
X12030186Y-8471712D02*
X12030186Y-8300284D01*
X12287329Y-8500284D02*
X12287329Y-8300284D01*
X12287329Y-8300284D02*
X12353996Y-8443141D01*
X12353996Y-8443141D02*
X12420662Y-8300284D01*
X12420662Y-8300284D02*
X12420662Y-8500284D01*
X12601615Y-8500284D02*
X12601615Y-8395522D01*
X12601615Y-8395522D02*
X12592091Y-8376474D01*
X12592091Y-8376474D02*
X12573043Y-8366950D01*
X12573043Y-8366950D02*
X12534948Y-8366950D01*
X12534948Y-8366950D02*
X12515901Y-8376474D01*
X12601615Y-8490760D02*
X12582567Y-8500284D01*
X12582567Y-8500284D02*
X12534948Y-8500284D01*
X12534948Y-8500284D02*
X12515901Y-8490760D01*
X12515901Y-8490760D02*
X12506377Y-8471712D01*
X12506377Y-8471712D02*
X12506377Y-8452665D01*
X12506377Y-8452665D02*
X12515901Y-8433617D01*
X12515901Y-8433617D02*
X12534948Y-8424093D01*
X12534948Y-8424093D02*
X12582567Y-8424093D01*
X12582567Y-8424093D02*
X12601615Y-8414570D01*
X12696853Y-8366950D02*
X12696853Y-8566950D01*
X12696853Y-8376474D02*
X12715901Y-8366950D01*
X12715901Y-8366950D02*
X12753996Y-8366950D01*
X12753996Y-8366950D02*
X12773043Y-8376474D01*
X12773043Y-8376474D02*
X12782567Y-8385998D01*
X12782567Y-8385998D02*
X12792091Y-8405046D01*
X12792091Y-8405046D02*
X12792091Y-8462189D01*
X12792091Y-8462189D02*
X12782567Y-8481236D01*
X12782567Y-8481236D02*
X12773043Y-8490760D01*
X12773043Y-8490760D02*
X12753996Y-8500284D01*
X12753996Y-8500284D02*
X12715901Y-8500284D01*
X12715901Y-8500284D02*
X12696853Y-8490760D01*
X12877805Y-8481236D02*
X12887329Y-8490760D01*
X12887329Y-8490760D02*
X12877805Y-8500284D01*
X12877805Y-8500284D02*
X12868282Y-8490760D01*
X12868282Y-8490760D02*
X12877805Y-8481236D01*
X12877805Y-8481236D02*
X12877805Y-8500284D01*
X12877805Y-8376474D02*
X12887329Y-8385998D01*
X12887329Y-8385998D02*
X12877805Y-8395522D01*
X12877805Y-8395522D02*
X12868282Y-8385998D01*
X12868282Y-8385998D02*
X12877805Y-8376474D01*
X12877805Y-8376474D02*
X12877805Y-8395522D01*
M02*
