%TF.GenerationSoftware,KiCad,Pcbnew,7.0.9-7.0.9~ubuntu22.04.1*%
%TF.CreationDate,2023-12-17T21:42:45+01:00*%
%TF.ProjectId,StarPCB,53746172-5043-4422-9e6b-696361645f70,rev?*%
%TF.SameCoordinates,Original*%
%TF.FileFunction,Copper,L1,Top*%
%TF.FilePolarity,Positive*%
%FSLAX46Y46*%
G04 Gerber Fmt 4.6, Leading zero omitted, Abs format (unit mm)*
G04 Created by KiCad (PCBNEW 7.0.9-7.0.9~ubuntu22.04.1) date 2023-12-17 21:42:45*
%MOMM*%
%LPD*%
G01*
G04 APERTURE LIST*
G04 Aperture macros list*
%AMRoundRect*
0 Rectangle with rounded corners*
0 $1 Rounding radius*
0 $2 $3 $4 $5 $6 $7 $8 $9 X,Y pos of 4 corners*
0 Add a 4 corners polygon primitive as box body*
4,1,4,$2,$3,$4,$5,$6,$7,$8,$9,$2,$3,0*
0 Add four circle primitives for the rounded corners*
1,1,$1+$1,$2,$3*
1,1,$1+$1,$4,$5*
1,1,$1+$1,$6,$7*
1,1,$1+$1,$8,$9*
0 Add four rect primitives between the rounded corners*
20,1,$1+$1,$2,$3,$4,$5,0*
20,1,$1+$1,$4,$5,$6,$7,0*
20,1,$1+$1,$6,$7,$8,$9,0*
20,1,$1+$1,$8,$9,$2,$3,0*%
G04 Aperture macros list end*
%TA.AperFunction,SMDPad,CuDef*%
%ADD10RoundRect,0.020000X-1.980000X-0.980000X1.980000X-0.980000X1.980000X0.980000X-1.980000X0.980000X0*%
%TD*%
%TA.AperFunction,SMDPad,CuDef*%
%ADD11R,3.500000X2.700000*%
%TD*%
%TA.AperFunction,SMDPad,CuDef*%
%ADD12C,5.700000*%
%TD*%
%TA.AperFunction,Conductor*%
%ADD13C,1.000000*%
%TD*%
%TA.AperFunction,Conductor*%
%ADD14C,0.250000*%
%TD*%
G04 APERTURE END LIST*
D10*
%TO.P,J1,1,Pin_1*%
%TO.N,VCC*%
X124331000Y-66423000D03*
%TD*%
D11*
%TO.P,D1,1,K*%
%TO.N,GND*%
X115062000Y-73994000D03*
%TO.P,D1,2,A*%
%TO.N,VCC*%
X127762000Y-71294000D03*
D12*
%TO.P,D1,3*%
%TO.N,N/C*%
X121412000Y-72644000D03*
%TD*%
D10*
%TO.P,J4,1,Pin_1*%
%TO.N,GND*%
X118110000Y-78486000D03*
%TD*%
%TO.P,J5,1,Pin_1*%
%TO.N,GND*%
X118489000Y-66423000D03*
%TD*%
%TO.P,J2,1,Pin_1*%
%TO.N,VCC*%
X124585000Y-78615000D03*
%TD*%
D13*
%TO.N,GND*%
X118489000Y-66423000D02*
X115062000Y-69850000D01*
X118110000Y-78236000D02*
X118110000Y-78486000D01*
X115062000Y-75188000D02*
X118110000Y-78236000D01*
X115062000Y-69850000D02*
X115062000Y-75188000D01*
%TO.N,VCC*%
X127762000Y-69854000D02*
X124331000Y-66423000D01*
X124585000Y-78615000D02*
X124585000Y-78107000D01*
X127762000Y-71294000D02*
X127762000Y-69854000D01*
X124585000Y-78107000D02*
X127762000Y-74930000D01*
D14*
X127762000Y-70866000D02*
X127762000Y-71294000D01*
D13*
X127762000Y-74930000D02*
X127762000Y-70866000D01*
%TD*%
%TA.AperFunction,Conductor*%
%TO.N,GND*%
G36*
X130498539Y-63808185D02*
G01*
X130544294Y-63860989D01*
X130555500Y-63912500D01*
X130555500Y-81663500D01*
X130535815Y-81730539D01*
X130483011Y-81776294D01*
X130431500Y-81787500D01*
X112680500Y-81787500D01*
X112613461Y-81767815D01*
X112567706Y-81715011D01*
X112556500Y-81663500D01*
X112556500Y-79506712D01*
X115610000Y-79506712D01*
X115620035Y-79590274D01*
X115620036Y-79590279D01*
X115672473Y-79723249D01*
X115672476Y-79723255D01*
X115758847Y-79837152D01*
X115872744Y-79923523D01*
X115872750Y-79923526D01*
X116005720Y-79975963D01*
X116005725Y-79975964D01*
X116089287Y-79986000D01*
X116256447Y-79986000D01*
X116256447Y-79985999D01*
X116963553Y-79985999D01*
X116963554Y-79986000D01*
X119256446Y-79986000D01*
X119256446Y-79985999D01*
X118110001Y-78839553D01*
X118109999Y-78839553D01*
X116963553Y-79985999D01*
X116256447Y-79985999D01*
X117756447Y-78486000D01*
X118463553Y-78486000D01*
X119963553Y-79986000D01*
X120130713Y-79986000D01*
X120214274Y-79975964D01*
X120214279Y-79975963D01*
X120347249Y-79923526D01*
X120347255Y-79923523D01*
X120461152Y-79837152D01*
X120547523Y-79723255D01*
X120547526Y-79723249D01*
X120599963Y-79590279D01*
X120599964Y-79590274D01*
X120610000Y-79506712D01*
X120610000Y-77465287D01*
X120599964Y-77381725D01*
X120599963Y-77381720D01*
X120547526Y-77248750D01*
X120547523Y-77248744D01*
X120461152Y-77134847D01*
X120347255Y-77048476D01*
X120347249Y-77048473D01*
X120214279Y-76996036D01*
X120214274Y-76996035D01*
X120130713Y-76986000D01*
X119963552Y-76986000D01*
X118463553Y-78486000D01*
X117756447Y-78486000D01*
X116256447Y-76986000D01*
X116963553Y-76986000D01*
X118110000Y-78132446D01*
X119256446Y-76986000D01*
X116963553Y-76986000D01*
X116256447Y-76986000D01*
X116089287Y-76986000D01*
X116005725Y-76996035D01*
X116005720Y-76996036D01*
X115872750Y-77048473D01*
X115872744Y-77048476D01*
X115758847Y-77134847D01*
X115672476Y-77248744D01*
X115672473Y-77248750D01*
X115620036Y-77381720D01*
X115620035Y-77381725D01*
X115610000Y-77465287D01*
X115610000Y-79506712D01*
X112556500Y-79506712D01*
X112556500Y-74244000D01*
X112812000Y-74244000D01*
X112812000Y-75391844D01*
X112818401Y-75451372D01*
X112818403Y-75451379D01*
X112868645Y-75586086D01*
X112868649Y-75586093D01*
X112954809Y-75701187D01*
X112954812Y-75701190D01*
X113069906Y-75787350D01*
X113069913Y-75787354D01*
X113204620Y-75837596D01*
X113204627Y-75837598D01*
X113264155Y-75843999D01*
X113264172Y-75844000D01*
X114812000Y-75844000D01*
X114812000Y-74244000D01*
X115312000Y-74244000D01*
X115312000Y-75844000D01*
X116859828Y-75844000D01*
X116859844Y-75843999D01*
X116919372Y-75837598D01*
X116919379Y-75837596D01*
X117054086Y-75787354D01*
X117054093Y-75787350D01*
X117169187Y-75701190D01*
X117169190Y-75701187D01*
X117255350Y-75586093D01*
X117255354Y-75586086D01*
X117305596Y-75451379D01*
X117305598Y-75451372D01*
X117311999Y-75391844D01*
X117312000Y-75391827D01*
X117312000Y-74244000D01*
X115312000Y-74244000D01*
X114812000Y-74244000D01*
X112812000Y-74244000D01*
X112556500Y-74244000D01*
X112556500Y-73744000D01*
X112812000Y-73744000D01*
X114812000Y-73744000D01*
X114812000Y-72144000D01*
X115312000Y-72144000D01*
X115312000Y-73744000D01*
X117312000Y-73744000D01*
X117312000Y-72644002D01*
X118056579Y-72644002D01*
X118076248Y-73006782D01*
X118076250Y-73006799D01*
X118135024Y-73365303D01*
X118135030Y-73365329D01*
X118232221Y-73715381D01*
X118232226Y-73715396D01*
X118366700Y-74052901D01*
X118366706Y-74052913D01*
X118536878Y-74373892D01*
X118536884Y-74373901D01*
X118740772Y-74674613D01*
X118936060Y-74904524D01*
X118975979Y-74951521D01*
X119239746Y-75201375D01*
X119528981Y-75421245D01*
X119840292Y-75608555D01*
X119840294Y-75608556D01*
X119840296Y-75608557D01*
X119840300Y-75608559D01*
X119922162Y-75646432D01*
X120170031Y-75761108D01*
X120514330Y-75877116D01*
X120869153Y-75955218D01*
X121230341Y-75994500D01*
X121230347Y-75994500D01*
X121593653Y-75994500D01*
X121593659Y-75994500D01*
X121954847Y-75955218D01*
X122309670Y-75877116D01*
X122653969Y-75761108D01*
X122983708Y-75608555D01*
X123295019Y-75421245D01*
X123584254Y-75201375D01*
X123848021Y-74951521D01*
X124083227Y-74674614D01*
X124287117Y-74373900D01*
X124457298Y-74052905D01*
X124591775Y-73715391D01*
X124688973Y-73365316D01*
X124734470Y-73087796D01*
X124747749Y-73006799D01*
X124747751Y-73006782D01*
X124767421Y-72644002D01*
X124767421Y-72643997D01*
X124747751Y-72281217D01*
X124747749Y-72281200D01*
X124688975Y-71922696D01*
X124688974Y-71922695D01*
X124688973Y-71922684D01*
X124671097Y-71858303D01*
X124591778Y-71572618D01*
X124591773Y-71572603D01*
X124457299Y-71235098D01*
X124457298Y-71235095D01*
X124287117Y-70914100D01*
X124083227Y-70613386D01*
X123848021Y-70336479D01*
X123584254Y-70086625D01*
X123584244Y-70086617D01*
X123515635Y-70034462D01*
X123295019Y-69866755D01*
X122983708Y-69679445D01*
X122983707Y-69679444D01*
X122983703Y-69679442D01*
X122983699Y-69679440D01*
X122653979Y-69526896D01*
X122653974Y-69526894D01*
X122653969Y-69526892D01*
X122486143Y-69470344D01*
X122309669Y-69410883D01*
X121954845Y-69332781D01*
X121593660Y-69293500D01*
X121593659Y-69293500D01*
X121230341Y-69293500D01*
X121230339Y-69293500D01*
X120869154Y-69332781D01*
X120514330Y-69410883D01*
X120276421Y-69491045D01*
X120170031Y-69526892D01*
X120170028Y-69526893D01*
X120170020Y-69526896D01*
X119840300Y-69679440D01*
X119840296Y-69679442D01*
X119608453Y-69818937D01*
X119528981Y-69866755D01*
X119439332Y-69934903D01*
X119239755Y-70086617D01*
X119239745Y-70086625D01*
X118975978Y-70336479D01*
X118740772Y-70613386D01*
X118536884Y-70914098D01*
X118536878Y-70914107D01*
X118366706Y-71235086D01*
X118366700Y-71235098D01*
X118232226Y-71572603D01*
X118232221Y-71572618D01*
X118135030Y-71922670D01*
X118135024Y-71922696D01*
X118076250Y-72281200D01*
X118076248Y-72281217D01*
X118056579Y-72643997D01*
X118056579Y-72644002D01*
X117312000Y-72644002D01*
X117312000Y-72596172D01*
X117311999Y-72596155D01*
X117305598Y-72536627D01*
X117305596Y-72536620D01*
X117255354Y-72401913D01*
X117255350Y-72401906D01*
X117169190Y-72286812D01*
X117169187Y-72286809D01*
X117054093Y-72200649D01*
X117054086Y-72200645D01*
X116919379Y-72150403D01*
X116919372Y-72150401D01*
X116859844Y-72144000D01*
X115312000Y-72144000D01*
X114812000Y-72144000D01*
X113264155Y-72144000D01*
X113204627Y-72150401D01*
X113204620Y-72150403D01*
X113069913Y-72200645D01*
X113069906Y-72200649D01*
X112954812Y-72286809D01*
X112954809Y-72286812D01*
X112868649Y-72401906D01*
X112868645Y-72401913D01*
X112818403Y-72536620D01*
X112818401Y-72536627D01*
X112812000Y-72596155D01*
X112812000Y-73744000D01*
X112556500Y-73744000D01*
X112556500Y-67443712D01*
X115989000Y-67443712D01*
X115999035Y-67527274D01*
X115999036Y-67527279D01*
X116051473Y-67660249D01*
X116051476Y-67660255D01*
X116137847Y-67774152D01*
X116251744Y-67860523D01*
X116251750Y-67860526D01*
X116384720Y-67912963D01*
X116384725Y-67912964D01*
X116468287Y-67923000D01*
X116635447Y-67923000D01*
X116635447Y-67922999D01*
X117342553Y-67922999D01*
X117342554Y-67923000D01*
X119635446Y-67923000D01*
X119635446Y-67922999D01*
X118489001Y-66776553D01*
X118488999Y-66776553D01*
X117342553Y-67922999D01*
X116635447Y-67922999D01*
X118135447Y-66423000D01*
X118842553Y-66423000D01*
X120342553Y-67923000D01*
X120509713Y-67923000D01*
X120593274Y-67912964D01*
X120593279Y-67912963D01*
X120726249Y-67860526D01*
X120726255Y-67860523D01*
X120840152Y-67774152D01*
X120926523Y-67660255D01*
X120926526Y-67660249D01*
X120978963Y-67527279D01*
X120978964Y-67527274D01*
X120988995Y-67443754D01*
X121830500Y-67443754D01*
X121835204Y-67482927D01*
X121840544Y-67527396D01*
X121893033Y-67660498D01*
X121893034Y-67660500D01*
X121893035Y-67660501D01*
X121979490Y-67774510D01*
X122092916Y-67860523D01*
X122093499Y-67860965D01*
X122093501Y-67860966D01*
X122160052Y-67887210D01*
X122226605Y-67913456D01*
X122310246Y-67923500D01*
X124365217Y-67923500D01*
X124432256Y-67943185D01*
X124452898Y-67959819D01*
X125797176Y-69304097D01*
X125830661Y-69365420D01*
X125825677Y-69435112D01*
X125783805Y-69491045D01*
X125770346Y-69499695D01*
X125654455Y-69586452D01*
X125654452Y-69586455D01*
X125568206Y-69701664D01*
X125568202Y-69701671D01*
X125517908Y-69836517D01*
X125511501Y-69896116D01*
X125511501Y-69896123D01*
X125511500Y-69896135D01*
X125511500Y-72691870D01*
X125511501Y-72691876D01*
X125517908Y-72751483D01*
X125568202Y-72886328D01*
X125568206Y-72886335D01*
X125654452Y-73001544D01*
X125654455Y-73001547D01*
X125769664Y-73087793D01*
X125769671Y-73087797D01*
X125904517Y-73138091D01*
X125904516Y-73138091D01*
X125911444Y-73138835D01*
X125964127Y-73144500D01*
X126637500Y-73144499D01*
X126704539Y-73164183D01*
X126750294Y-73216987D01*
X126761500Y-73268499D01*
X126761500Y-74464217D01*
X126741815Y-74531256D01*
X126725181Y-74551898D01*
X124198899Y-77078181D01*
X124137576Y-77111666D01*
X124111218Y-77114500D01*
X122564246Y-77114500D01*
X122504502Y-77121674D01*
X122480603Y-77124544D01*
X122347501Y-77177033D01*
X122347499Y-77177034D01*
X122233490Y-77263490D01*
X122147034Y-77377499D01*
X122147033Y-77377501D01*
X122094544Y-77510603D01*
X122094544Y-77510605D01*
X122084500Y-77594246D01*
X122084500Y-79635754D01*
X122093109Y-79707446D01*
X122094544Y-79719396D01*
X122147033Y-79852498D01*
X122147034Y-79852500D01*
X122147035Y-79852501D01*
X122233490Y-79966510D01*
X122347499Y-80052965D01*
X122347501Y-80052966D01*
X122414052Y-80079210D01*
X122480605Y-80105456D01*
X122564246Y-80115500D01*
X122564251Y-80115500D01*
X126605749Y-80115500D01*
X126605754Y-80115500D01*
X126689395Y-80105456D01*
X126822501Y-80052965D01*
X126936510Y-79966510D01*
X127022965Y-79852501D01*
X127075456Y-79719395D01*
X127085500Y-79635754D01*
X127085500Y-77594246D01*
X127075456Y-77510605D01*
X127022966Y-77377501D01*
X127022966Y-77377500D01*
X127003266Y-77351521D01*
X126961696Y-77296703D01*
X126936874Y-77231394D01*
X126951302Y-77163030D01*
X126972817Y-77134102D01*
X128460487Y-75646433D01*
X128525053Y-75585059D01*
X128560119Y-75534675D01*
X128562912Y-75530972D01*
X128601697Y-75483408D01*
X128617604Y-75452952D01*
X128621666Y-75446248D01*
X128641295Y-75418049D01*
X128665497Y-75361650D01*
X128667500Y-75357431D01*
X128695909Y-75303049D01*
X128705357Y-75270022D01*
X128707988Y-75262633D01*
X128721540Y-75231058D01*
X128733894Y-75170936D01*
X128735006Y-75166404D01*
X128751886Y-75107418D01*
X128754493Y-75073166D01*
X128755585Y-75065386D01*
X128762500Y-75031739D01*
X128762500Y-74970388D01*
X128762679Y-74965679D01*
X128763757Y-74951520D01*
X128767336Y-74904524D01*
X128762997Y-74870449D01*
X128762500Y-74862610D01*
X128762500Y-73268499D01*
X128782185Y-73201460D01*
X128834989Y-73155705D01*
X128886500Y-73144499D01*
X129559871Y-73144499D01*
X129559872Y-73144499D01*
X129619483Y-73138091D01*
X129754331Y-73087796D01*
X129869546Y-73001546D01*
X129955796Y-72886331D01*
X130006091Y-72751483D01*
X130012500Y-72691873D01*
X130012499Y-69896128D01*
X130006091Y-69836517D01*
X129955796Y-69701669D01*
X129955795Y-69701668D01*
X129955793Y-69701664D01*
X129869547Y-69586455D01*
X129869544Y-69586452D01*
X129754335Y-69500206D01*
X129754328Y-69500202D01*
X129619482Y-69449908D01*
X129619483Y-69449908D01*
X129559883Y-69443501D01*
X129559881Y-69443500D01*
X129559873Y-69443500D01*
X129559865Y-69443500D01*
X128756488Y-69443500D01*
X128689449Y-69423815D01*
X128652952Y-69387737D01*
X128619617Y-69337158D01*
X128617183Y-69333142D01*
X128587409Y-69279498D01*
X128565034Y-69253434D01*
X128560306Y-69247163D01*
X128541404Y-69218484D01*
X128541399Y-69218478D01*
X128519715Y-69196795D01*
X128498019Y-69175099D01*
X128494828Y-69171655D01*
X128454865Y-69125104D01*
X128427694Y-69104072D01*
X128421807Y-69098887D01*
X126867170Y-67544250D01*
X126833685Y-67482927D01*
X126832013Y-67447492D01*
X126831279Y-67447449D01*
X126831500Y-67443757D01*
X126831500Y-65402251D01*
X126831500Y-65402246D01*
X126821456Y-65318605D01*
X126768965Y-65185499D01*
X126682510Y-65071490D01*
X126568501Y-64985035D01*
X126568500Y-64985034D01*
X126568498Y-64985033D01*
X126435396Y-64932544D01*
X126421454Y-64930870D01*
X126351754Y-64922500D01*
X122310246Y-64922500D01*
X122250502Y-64929674D01*
X122226603Y-64932544D01*
X122093501Y-64985033D01*
X122093499Y-64985034D01*
X121979490Y-65071490D01*
X121893034Y-65185499D01*
X121893033Y-65185501D01*
X121840544Y-65318603D01*
X121837674Y-65342502D01*
X121830500Y-65402246D01*
X121830500Y-67443754D01*
X120988995Y-67443754D01*
X120989000Y-67443712D01*
X120989000Y-65402287D01*
X120978964Y-65318725D01*
X120978963Y-65318720D01*
X120926526Y-65185750D01*
X120926523Y-65185744D01*
X120840152Y-65071847D01*
X120726255Y-64985476D01*
X120726249Y-64985473D01*
X120593279Y-64933036D01*
X120593274Y-64933035D01*
X120509713Y-64923000D01*
X120342552Y-64923000D01*
X118842553Y-66423000D01*
X118135447Y-66423000D01*
X116635447Y-64923000D01*
X117342553Y-64923000D01*
X118489000Y-66069446D01*
X119635446Y-64923000D01*
X117342553Y-64923000D01*
X116635447Y-64923000D01*
X116468287Y-64923000D01*
X116384725Y-64933035D01*
X116384720Y-64933036D01*
X116251750Y-64985473D01*
X116251744Y-64985476D01*
X116137847Y-65071847D01*
X116051476Y-65185744D01*
X116051473Y-65185750D01*
X115999036Y-65318720D01*
X115999035Y-65318725D01*
X115989000Y-65402287D01*
X115989000Y-67443712D01*
X112556500Y-67443712D01*
X112556500Y-63912500D01*
X112576185Y-63845461D01*
X112628989Y-63799706D01*
X112680500Y-63788500D01*
X130431500Y-63788500D01*
X130498539Y-63808185D01*
G37*
%TD.AperFunction*%
%TD*%
M02*
