<?xml version="1.0" encoding="UTF-8" standalone="no"?>
<!-- Created with Inkscape (http://www.inkscape.org/) -->

<svg
   width="20.273899mm"
   height="20.061745mm"
   viewBox="0 0 20.273899 20.061745"
   version="1.1"
   id="svg1"
   xml:space="preserve"
   xmlns="http://www.w3.org/2000/svg"
   xmlns:svg="http://www.w3.org/2000/svg"><defs
     id="defs1" /><g
     id="g1"
     transform="matrix(0.26458333,0,0,0.26458335,-97.813049,-138.67639)"><path
       id="rect1-1"
       style="fill:#ffffff;stroke:#8b4513;stroke-width:2.92652;stroke-opacity:0"
       d="m -607.52365,-256.2306 c 0.32688,-0.15943 0.6107,-0.41459 0.807,-0.75459 l 8.50331,-14.72886 c 0.52347,-0.90666 0.21612,-2.05932 -0.69055,-2.58278 l -3.16523,-1.8261 c -1.211,-0.60658 -1.70258,-1.13209 -1.70254,-1.13248 -1.8272,-1.44494 -2.87675,-3.41295 -2.92156,-5.47825 0.0453,-2.04792 1.07842,-4.00065 2.87947,-5.4423 1.42842,-1.29145 3.24632,-2.11783 4.9097,-3.07818 0.90667,-0.52347 1.21379,-1.675 0.69033,-2.58167 l -8.50391,-14.7292 c -0.52346,-0.90666 -1.68338,-1.23191 -2.58095,-0.69299 l -2.03441,1.22151 c -0.17637,0.15647 -1.14034,0.71196 -1.32445,0.8553 -0.49349,0.29593 -1.00273,0.54388 -1.52099,0.74057 l -0.0592,0.0342 -0.005,-0.004 c -2.22396,0.91415 -4.52428,0.83943 -6.37569,-0.20709 -1.81769,-1.10067 -3.01291,-3.06939 -3.31319,-5.45736 0.006,-0.11607 -0.0362,-0.22431 -0.0543,-0.33626 -0.0579,-0.60931 -0.0573,-1.23535 0.002,-1.8683 l -1.3e-4,-3.45726 c 0,-1.04693 -0.84457,-1.88942 -1.89148,-1.88942 l -17.00723,-3.4e-4 c -1.04692,0 -1.8904,0.84286 -1.8904,1.88979 l -10e-5,3.73028 c 0.0717,0.70188 0.0237,1.34403 -0.12358,2.00863 -0.33097,2.32089 -1.5139,4.22821 -3.29022,5.30507 -1.8318,1.05184 -4.11136,1.14704 -6.32466,0.26412 -10e-4,10e-4 -1.0713,-0.37712 -2.29536,-1.29991 l -2.6513,-1.52968 c -0.90666,-0.52346 -2.05834,-0.21441 -2.58181,0.69224 l -8.50331,14.72886 c -0.52347,0.90667 -0.21612,2.05933 0.69055,2.58278 l 2.45651,1.41887 c 3.44544,1.25575 5.67856,4.01013 5.72669,7.06345 -4.5e-4,2.6743 -1.68429,5.16486 -4.46929,6.61052 -0.43076,0.19193 -0.87893,0.35719 -1.34064,0.49436 l -2.37311,1.37012 c -0.90667,0.52346 -1.21378,1.675 -0.69033,2.58166 l 8.50391,14.7292 c 0.52346,0.90667 1.67428,1.21646 2.58095,0.69299 l 1.28043,-0.73925 c 2.91349,-3.0271 6.93883,-3.9229 9.92855,-2.20951 1.89885,1.14337 3.11819,3.2298 3.35759,5.74521 0.25502,1.87027 0.11866,3.7946 0.11881,5.68235 0,1.04693 0.84456,1.88943 1.89149,1.88943 l 17.00722,3.4e-4 c 1.04693,0 1.8904,-0.84287 1.8904,-1.88979 l 4e-4,-2.19462 c -1.16625,-4.03755 0.0703,-7.97304 3.04969,-9.70607 3.12515,-1.76039 7.33878,-0.68371 10.24098,2.61681 l 1.39415,0.80536 c 0.56667,0.32717 1.23003,0.32808 1.77481,0.0624 z"
       transform="rotate(-150)" /></g></svg>
