<?xml version="1.0" encoding="UTF-8" standalone="no"?>
<!-- Created with Inkscape (http://www.inkscape.org/) -->

<svg
   width="20.244644mm"
   height="19.923767mm"
   viewBox="0 0 20.244644 19.923767"
   version="1.1"
   id="svg1"
   xml:space="preserve"
   xmlns="http://www.w3.org/2000/svg"
   xmlns:svg="http://www.w3.org/2000/svg"><defs
     id="defs1" /><g
     id="g1"
     transform="matrix(0.26458333,0,0,0.26458335,-181.20089,-135.62457)"><path
       id="path2"
       style="fill:#ffffff;fill-opacity:1;stroke:#8b4513;stroke-width:2.26772;stroke-opacity:0"
       d="m 734.96288,513.77731 -3.80273,0.61524 -0.40235,1.11328 a 8.8815689,8.6623487 0 0 1 0.041,0.25586 8.8815689,8.6623487 0 0 1 -8.88086,8.66211 8.8815689,8.6623487 0 0 1 -8.88086,-8.66211 8.8815689,8.6623487 0 0 1 0.14844,-0.91602 l -0.27149,-0.37305 -2.9414,0.043 c 0,0 -14.8233,9.15124 -14.6211,9.23828 0.0855,0.0368 0.12327,0.57891 0.14453,1.16602 a 8.8815689,8.6623487 0 0 1 3.98633,7.16992 8.8815689,8.6623487 0 0 1 -8.88281,8.66211 8.8815689,8.6623487 0 0 1 -3.24609,-0.67383 l -1.34375,0.36133 -0.0195,7.79492 a 5.4986467,3.5493097 0 0 1 4.75782,3.45313 5.4986467,3.5493097 0 0 1 -2.2793,2.87109 l -0.041,0.043 -0.0684,0.006 a 5.4986467,3.5493097 0 0 1 -1.64454,0.5 l 0.0273,6.96289 0.70312,-0.002 a 8.8815689,8.6623487 0 0 1 4.22657,-1.16015 8.8815689,8.6623487 0 0 1 6.1621,2.57226 l 0.0234,0.01 0.0312,0.0449 a 8.8815689,8.6623487 0 0 1 2.66406,6.03516 8.8815689,8.6623487 0 0 1 -3.36132,6.71679 c 0.11191,0.36903 0.27734,0.78516 0.27734,0.78516 l 13.32617,7.28711 5.04492,2.07422 1.00586,-2.23047 a 8.8815689,8.6623487 0 0 1 8.64258,-7.19922 8.8815689,8.6623487 0 0 1 0.19922,0.0312 l 0.44141,-0.0527 1.83007,0.30664 c 0,0 0.14052,0.1005 0.17188,0.12304 a 8.8815689,8.6623487 0 0 1 5.81445,5.63086 l 1.81641,1.61719 16.15234,-10.51758 a 8.8815689,8.6623487 0 0 1 -4.07031,-7.21094 8.8815689,8.6623487 0 0 1 8.88281,-8.6621 8.8815689,8.6623487 0 0 1 2.19336,0.33984 l 1.3086,-1.29492 -0.23438,-16.83399 -0.16992,-1.24023 -2.09766,-1.33008 a 8.8815689,8.6623487 0 0 1 -2.97461,0.53906 8.8815689,8.6623487 0 0 1 -8.88086,-8.6621 8.8815689,8.6623487 0 0 1 3.03516,-6.39844 l -0.008,-2.14844 z" /></g></svg>
