<?xml version="1.0" encoding="UTF-8" standalone="no"?>
<!-- Created with Inkscape (http://www.inkscape.org/) -->

<svg
   width="215.89999mm"
   height="297.43402mm"
   viewBox="0 0 215.89999 297.43402"
   version="1.1"
   id="svg1"
   xml:space="preserve"
   sodipodi:docname="inscape template traced.svg"
   inkscape:version="1.3.1 (91b66b0, 2023-11-16)"
   inkscape:export-filename="inscape template traced export.svg"
   inkscape:export-xdpi="96"
   inkscape:export-ydpi="96"
   xmlns:inkscape="http://www.inkscape.org/namespaces/inkscape"
   xmlns:sodipodi="http://sodipodi.sourceforge.net/DTD/sodipodi-0.dtd"
   xmlns="http://www.w3.org/2000/svg"
   xmlns:svg="http://www.w3.org/2000/svg"><sodipodi:namedview
     id="namedview1"
     pagecolor="#303030"
     bordercolor="#000000"
     borderopacity="0.25"
     inkscape:showpageshadow="2"
     inkscape:pageopacity="0.0"
     inkscape:pagecheckerboard="0"
     inkscape:deskcolor="#d1d1d1"
     inkscape:document-units="mm"
     inkscape:zoom="11.474186"
     inkscape:cx="718.96165"
     inkscape:cy="589.88932"
     inkscape:window-width="1920"
     inkscape:window-height="1002"
     inkscape:window-x="1920"
     inkscape:window-y="0"
     inkscape:window-maximized="1"
     inkscape:current-layer="g1"
     inkscape:export-bgcolor="#00000000"><inkscape:page
       x="5.1278603e-06"
       y="0"
       width="215.89999"
       height="297.43402"
       id="page2"
       margin="0"
       bleed="0" /></sodipodi:namedview><defs
     id="defs1" /><g
     inkscape:label="Layer 1"
     inkscape:groupmode="layer"
     id="layer1"
     transform="translate(-220.00001)" /><g
     id="g1"
     inkscape:groupmode="layer"
     inkscape:label="1"
     transform="matrix(0.26458333,0,0,0.26458335,4.9379573e-6,0)"><path
       id="path2"
       style="fill:#ffffff;fill-opacity:1;stroke:#8b4513;stroke-width:2.26772;stroke-opacity:0"
       d="M 734.96288 513.77731 L 731.16015 514.39255 L 730.7578 515.50583 A 8.8815689 8.6623487 0 0 1 730.79882 515.76169 A 8.8815689 8.6623487 0 0 1 721.91796 524.4238 A 8.8815689 8.6623487 0 0 1 713.0371 515.76169 A 8.8815689 8.6623487 0 0 1 713.18554 514.84567 L 712.91405 514.47262 L 709.97265 514.51559 C 709.97265 514.51559 695.14935 523.66683 695.35155 523.75387 C 695.43701 523.79064 695.47482 524.33278 695.49608 524.91989 A 8.8815689 8.6623487 0 0 1 699.48241 532.08981 A 8.8815689 8.6623487 0 0 1 690.5996 540.75192 A 8.8815689 8.6623487 0 0 1 687.35351 540.07809 L 686.00976 540.43942 L 685.99022 548.23434 A 5.4986467 3.5493097 0 0 1 690.74804 551.68747 A 5.4986467 3.5493097 0 0 1 688.46874 554.55856 L 688.42772 554.60153 L 688.35937 554.60739 A 5.4986467 3.5493097 0 0 1 686.71483 555.10739 L 686.74218 562.07028 L 687.4453 562.06832 A 8.8815689 8.6623487 0 0 1 691.67187 560.90817 A 8.8815689 8.6623487 0 0 1 697.83397 563.48043 L 697.85741 563.4902 L 697.88866 563.53512 A 8.8815689 8.6623487 0 0 1 700.55272 569.57028 A 8.8815689 8.6623487 0 0 1 697.1914 576.28707 C 697.30331 576.6561 697.46874 577.07223 697.46874 577.07223 L 710.79491 584.35934 L 715.83983 586.43356 L 716.84569 584.20309 A 8.8815689 8.6623487 0 0 1 725.48827 577.00387 A 8.8815689 8.6623487 0 0 1 725.68749 577.03512 L 726.1289 576.98239 L 727.95897 577.28903 C 727.95897 577.28903 728.09949 577.38953 728.13085 577.41207 A 8.8815689 8.6623487 0 0 1 733.9453 583.04293 L 735.76171 584.66012 L 751.91405 574.14254 A 8.8815689 8.6623487 0 0 1 747.84374 566.9316 A 8.8815689 8.6623487 0 0 1 756.72655 558.2695 A 8.8815689 8.6623487 0 0 1 758.91991 558.60934 L 760.22851 557.31442 L 759.99413 540.48043 L 759.82421 539.2402 L 757.72655 537.91012 A 8.8815689 8.6623487 0 0 1 754.75194 538.44918 A 8.8815689 8.6623487 0 0 1 745.87108 529.78708 A 8.8815689 8.6623487 0 0 1 748.90624 523.38864 L 748.89843 521.2402 L 734.96288 513.77731 z " /></g></svg>
