%TF.GenerationSoftware,KiCad,Pcbnew,7.0.9-7.0.9~ubuntu22.04.1*%
%TF.CreationDate,2023-12-19T20:01:29+01:00*%
%TF.ProjectId,StarPCB,53746172-5043-4422-9e6b-696361645f70,rev?*%
%TF.SameCoordinates,Original*%
%TF.FileFunction,Drillmap*%
%TF.FilePolarity,Positive*%
%FSLAX45Y45*%
G04 Gerber Fmt 4.5, Leading zero omitted, Abs format (unit mm)*
G04 Created by KiCad (PCBNEW 7.0.9-7.0.9~ubuntu22.04.1) date 2023-12-19 20:01:29*
%MOMM*%
%LPD*%
G01*
G04 APERTURE LIST*
%ADD10C,0.200000*%
G04 APERTURE END LIST*
D10*
X12435558Y-6300781D02*
X12437977Y-6300905D01*
X12440396Y-6301149D01*
X12442811Y-6301512D01*
X12445217Y-6301996D01*
X12447611Y-6302603D01*
X12449988Y-6303332D01*
X12452344Y-6304186D01*
X12454675Y-6305166D01*
X12456976Y-6306272D01*
X12459243Y-6307506D01*
X12848934Y-6532506D01*
X12851137Y-6533852D01*
X12853246Y-6535292D01*
X12855260Y-6536821D01*
X12857178Y-6538434D01*
X12858999Y-6540128D01*
X12860722Y-6541898D01*
X12862346Y-6543740D01*
X12863869Y-6545650D01*
X12865290Y-6547623D01*
X12866609Y-6549656D01*
X12867823Y-6551744D01*
X12868933Y-6553882D01*
X12869936Y-6556068D01*
X12870832Y-6558296D01*
X12871619Y-6560562D01*
X12872297Y-6562862D01*
X12872863Y-6565191D01*
X12873318Y-6567546D01*
X12873660Y-6569923D01*
X12873887Y-6572316D01*
X12873998Y-6574722D01*
X12873994Y-6577137D01*
X12873871Y-6579556D01*
X12873630Y-6581975D01*
X12873268Y-6584390D01*
X12872785Y-6586797D01*
X12872180Y-6589191D01*
X12871452Y-6591568D01*
X12870599Y-6593924D01*
X12869620Y-6596254D01*
X12868514Y-6598555D01*
X12867280Y-6600823D01*
X12828778Y-6665596D01*
X12819475Y-6681993D01*
X12810612Y-6698588D01*
X12806394Y-6706977D01*
X12802345Y-6715437D01*
X12798484Y-6723975D01*
X12794830Y-6732598D01*
X12789949Y-6744031D01*
X12785727Y-6755515D01*
X12782164Y-6767026D01*
X12779260Y-6778542D01*
X12777014Y-6790039D01*
X12775428Y-6801493D01*
X12774500Y-6812883D01*
X12774230Y-6824185D01*
X12774618Y-6835375D01*
X12775665Y-6846432D01*
X12777370Y-6857331D01*
X12779733Y-6868049D01*
X12782753Y-6878564D01*
X12786432Y-6888853D01*
X12790768Y-6898892D01*
X12795761Y-6908658D01*
X12800227Y-6915911D01*
X12805025Y-6922891D01*
X12815572Y-6936019D01*
X12827322Y-6948015D01*
X12840193Y-6958854D01*
X12854104Y-6968510D01*
X12868973Y-6976959D01*
X12884720Y-6984174D01*
X12901262Y-6990129D01*
X12918519Y-6994800D01*
X12936409Y-6998161D01*
X12954851Y-7000186D01*
X12973763Y-7000849D01*
X12993064Y-7000126D01*
X13012673Y-6997990D01*
X13032508Y-6994415D01*
X13052489Y-6989377D01*
X13091608Y-6989377D01*
X13094189Y-6989442D01*
X13096734Y-6989635D01*
X13099242Y-6989952D01*
X13101708Y-6990391D01*
X13104131Y-6990948D01*
X13106506Y-6991620D01*
X13108831Y-6992405D01*
X13111102Y-6993298D01*
X13113317Y-6994298D01*
X13115473Y-6995400D01*
X13117565Y-6996603D01*
X13119592Y-6997901D01*
X13121551Y-6999294D01*
X13123437Y-7000777D01*
X13125248Y-7002347D01*
X13126981Y-7004001D01*
X13128634Y-7005737D01*
X13130201Y-7007551D01*
X13131682Y-7009439D01*
X13133072Y-7011400D01*
X13134369Y-7013429D01*
X13135569Y-7015524D01*
X13136669Y-7017681D01*
X13137667Y-7019898D01*
X13138558Y-7022171D01*
X13139341Y-7024497D01*
X13140012Y-7026874D01*
X13140568Y-7029298D01*
X13141006Y-7031765D01*
X13141322Y-7034273D01*
X13141514Y-7036819D01*
X13141579Y-7039400D01*
X13141579Y-7489398D01*
X13141514Y-7491979D01*
X13141322Y-7494525D01*
X13141005Y-7497034D01*
X13140568Y-7499501D01*
X13140012Y-7501925D01*
X13139341Y-7504301D01*
X13138558Y-7506628D01*
X13137666Y-7508901D01*
X13136669Y-7511118D01*
X13135568Y-7513275D01*
X13134368Y-7515370D01*
X13133072Y-7517399D01*
X13131682Y-7519360D01*
X13130201Y-7521248D01*
X13128633Y-7523062D01*
X13126981Y-7524798D01*
X13125248Y-7526452D01*
X13123437Y-7528022D01*
X13121550Y-7529505D01*
X13119592Y-7530898D01*
X13117565Y-7532197D01*
X13115473Y-7533399D01*
X13113317Y-7534501D01*
X13111102Y-7535501D01*
X13108831Y-7536394D01*
X13106506Y-7537179D01*
X13104131Y-7537851D01*
X13101708Y-7538408D01*
X13099242Y-7538847D01*
X13096734Y-7539164D01*
X13094189Y-7539356D01*
X13091608Y-7539421D01*
X13019107Y-7539421D01*
X13014456Y-7538348D01*
X13009801Y-7537352D01*
X13005143Y-7536434D01*
X13000483Y-7535593D01*
X12995822Y-7534831D01*
X12991162Y-7534146D01*
X12986504Y-7533540D01*
X12981848Y-7533013D01*
X12974106Y-7532777D01*
X12966436Y-7532764D01*
X12958842Y-7532973D01*
X12951328Y-7533400D01*
X12943900Y-7534045D01*
X12936560Y-7534904D01*
X12929315Y-7535976D01*
X12922168Y-7537257D01*
X12915125Y-7538747D01*
X12908189Y-7540443D01*
X12901365Y-7542342D01*
X12894658Y-7544442D01*
X12888072Y-7546742D01*
X12881611Y-7549239D01*
X12875281Y-7551931D01*
X12869086Y-7554815D01*
X12863030Y-7557890D01*
X12857118Y-7561152D01*
X12851354Y-7564601D01*
X12845744Y-7568234D01*
X12840290Y-7572048D01*
X12834999Y-7576042D01*
X12829874Y-7580212D01*
X12824920Y-7584558D01*
X12820141Y-7589077D01*
X12815543Y-7593766D01*
X12811129Y-7598623D01*
X12806904Y-7603647D01*
X12802873Y-7608834D01*
X12799041Y-7614184D01*
X12795410Y-7619693D01*
X12791987Y-7625359D01*
X12788462Y-7632041D01*
X12785252Y-7638845D01*
X12779773Y-7652789D01*
X12775542Y-7667131D01*
X12772548Y-7681813D01*
X12770783Y-7696776D01*
X12770238Y-7711960D01*
X12770902Y-7727306D01*
X12772766Y-7742756D01*
X12775821Y-7758249D01*
X12780058Y-7773727D01*
X12785467Y-7789131D01*
X12792038Y-7804402D01*
X12799763Y-7819480D01*
X12808632Y-7834307D01*
X12818635Y-7848823D01*
X12829764Y-7862969D01*
X12867280Y-7927977D01*
X12868514Y-7930244D01*
X12869620Y-7932545D01*
X12870599Y-7934876D01*
X12871452Y-7937232D01*
X12872181Y-7939609D01*
X12872786Y-7942003D01*
X12873268Y-7944409D01*
X12873630Y-7946824D01*
X12873871Y-7949243D01*
X12873994Y-7951662D01*
X12873999Y-7954077D01*
X12873887Y-7956483D01*
X12873660Y-7958876D01*
X12873318Y-7961252D01*
X12872864Y-7963608D01*
X12872297Y-7965937D01*
X12871620Y-7968237D01*
X12870832Y-7970503D01*
X12869937Y-7972731D01*
X12868933Y-7974916D01*
X12867824Y-7977055D01*
X12866609Y-7979143D01*
X12865291Y-7981176D01*
X12863870Y-7983150D01*
X12862346Y-7985060D01*
X12860723Y-7986902D01*
X12859000Y-7988672D01*
X12857179Y-7990366D01*
X12855261Y-7991979D01*
X12853246Y-7993508D01*
X12851137Y-7994947D01*
X12848935Y-7996294D01*
X12459244Y-8221292D01*
X12456976Y-8222526D01*
X12454675Y-8223633D01*
X12452345Y-8224613D01*
X12449989Y-8225467D01*
X12447612Y-8226197D01*
X12445218Y-8226803D01*
X12442811Y-8227287D01*
X12440396Y-8227651D01*
X12437977Y-8227894D01*
X12435558Y-8228019D01*
X12433144Y-8228026D01*
X12430738Y-8227916D01*
X12428344Y-8227691D01*
X12425968Y-8227352D01*
X12423613Y-8226900D01*
X12421283Y-8226336D01*
X12418983Y-8225660D01*
X12416718Y-8224876D01*
X12414490Y-8223982D01*
X12412304Y-8222981D01*
X12410166Y-8221874D01*
X12408078Y-8220661D01*
X12406045Y-8219345D01*
X12404071Y-8217925D01*
X12402162Y-8216404D01*
X12400319Y-8214782D01*
X12398549Y-8213060D01*
X12396856Y-8211240D01*
X12395242Y-8209323D01*
X12393714Y-8207310D01*
X12392274Y-8205201D01*
X12390928Y-8202999D01*
X12350413Y-8132872D01*
X12348918Y-8129415D01*
X12347406Y-8126044D01*
X12345880Y-8122761D01*
X12344346Y-8119568D01*
X12341268Y-8113456D01*
X12338205Y-8107721D01*
X12335191Y-8102375D01*
X12332261Y-8097430D01*
X12329449Y-8092899D01*
X12326787Y-8088792D01*
X12324311Y-8085124D01*
X12322054Y-8081905D01*
X12320050Y-8079149D01*
X12318334Y-8076866D01*
X12315897Y-8073773D01*
X12315016Y-8072722D01*
X12307530Y-8063693D01*
X12299724Y-8055178D01*
X12291614Y-8047186D01*
X12283217Y-8039726D01*
X12274553Y-8032808D01*
X12265638Y-8026441D01*
X12256491Y-8020634D01*
X12247128Y-8015396D01*
X12237568Y-8010738D01*
X12227828Y-8006667D01*
X12217926Y-8003193D01*
X12207879Y-8000325D01*
X12197706Y-7998074D01*
X12187423Y-7996447D01*
X12177049Y-7995454D01*
X12166601Y-7995105D01*
X12156332Y-7995639D01*
X12146140Y-7996794D01*
X12136043Y-7998561D01*
X12126058Y-8000931D01*
X12116201Y-8003895D01*
X12106488Y-8007445D01*
X12096938Y-8011570D01*
X12087566Y-8016262D01*
X12078390Y-8021512D01*
X12069425Y-8027312D01*
X12060689Y-8033651D01*
X12052199Y-8040522D01*
X12043971Y-8047915D01*
X12036022Y-8055821D01*
X12028369Y-8064232D01*
X12021028Y-8073137D01*
X12016585Y-8078159D01*
X12014451Y-8080705D01*
X12012375Y-8083280D01*
X12010356Y-8085887D01*
X12008392Y-8088528D01*
X12006484Y-8091206D01*
X12004629Y-8093925D01*
X12002827Y-8096688D01*
X12001078Y-8099499D01*
X11999379Y-8102359D01*
X11997731Y-8105273D01*
X11996133Y-8108244D01*
X11994583Y-8111274D01*
X11993080Y-8114367D01*
X11991624Y-8117526D01*
X11942272Y-8202999D01*
X11940926Y-8205201D01*
X11939486Y-8207310D01*
X11937957Y-8209323D01*
X11936344Y-8211240D01*
X11934650Y-8213060D01*
X11932880Y-8214782D01*
X11931038Y-8216404D01*
X11929128Y-8217925D01*
X11927155Y-8219345D01*
X11925122Y-8220661D01*
X11923034Y-8221874D01*
X11920895Y-8222981D01*
X11918710Y-8223982D01*
X11916482Y-8224876D01*
X11914216Y-8225661D01*
X11911916Y-8226336D01*
X11909587Y-8226900D01*
X11907231Y-8227352D01*
X11904855Y-8227692D01*
X11902462Y-8227916D01*
X11900056Y-8228026D01*
X11897641Y-8228019D01*
X11895222Y-8227895D01*
X11892803Y-8227651D01*
X11890388Y-8227288D01*
X11887982Y-8226804D01*
X11885588Y-8226197D01*
X11883211Y-8225468D01*
X11880855Y-8224614D01*
X11878524Y-8223634D01*
X11876223Y-8222528D01*
X11873956Y-8221294D01*
X11484264Y-7996294D01*
X11482061Y-7994947D01*
X11479952Y-7993508D01*
X11477938Y-7991979D01*
X11476020Y-7990366D01*
X11474199Y-7988672D01*
X11472476Y-7986902D01*
X11470853Y-7985060D01*
X11469330Y-7983150D01*
X11467908Y-7981177D01*
X11466590Y-7979144D01*
X11465375Y-7977056D01*
X11464266Y-7974918D01*
X11463263Y-7972732D01*
X11462367Y-7970504D01*
X11461580Y-7968238D01*
X11460902Y-7965938D01*
X11460336Y-7963609D01*
X11459881Y-7961254D01*
X11459539Y-7958877D01*
X11459312Y-7956484D01*
X11459201Y-7954078D01*
X11459205Y-7951663D01*
X11459328Y-7949244D01*
X11459570Y-7946825D01*
X11459931Y-7944410D01*
X11460414Y-7942003D01*
X11461019Y-7939609D01*
X11461747Y-7937232D01*
X11462601Y-7934876D01*
X11463580Y-7932546D01*
X11464685Y-7930245D01*
X11465919Y-7927977D01*
X11511653Y-7848758D01*
X11515235Y-7843585D01*
X11518682Y-7838357D01*
X11521990Y-7833077D01*
X11525159Y-7827746D01*
X11528188Y-7822368D01*
X11531074Y-7816945D01*
X11533817Y-7811481D01*
X11536415Y-7805977D01*
X11536608Y-7805448D01*
X11536790Y-7804915D01*
X11537130Y-7803840D01*
X11537790Y-7801680D01*
X11538152Y-7800612D01*
X11538350Y-7800084D01*
X11538563Y-7799562D01*
X11538794Y-7799047D01*
X11539045Y-7798539D01*
X11539319Y-7798041D01*
X11539619Y-7797551D01*
X11543947Y-7786524D01*
X11547665Y-7775466D01*
X11550773Y-7764395D01*
X11553272Y-7753333D01*
X11555162Y-7742300D01*
X11556444Y-7731317D01*
X11557118Y-7720403D01*
X11557184Y-7709579D01*
X11556643Y-7698866D01*
X11555496Y-7688283D01*
X11553742Y-7677852D01*
X11551383Y-7667592D01*
X11548419Y-7657524D01*
X11544850Y-7647668D01*
X11540676Y-7638044D01*
X11535899Y-7628673D01*
X11530273Y-7619778D01*
X11524121Y-7611276D01*
X11517461Y-7603178D01*
X11510311Y-7595496D01*
X11502688Y-7588239D01*
X11494608Y-7581418D01*
X11486090Y-7575045D01*
X11477151Y-7569129D01*
X11467808Y-7563683D01*
X11458078Y-7558716D01*
X11447979Y-7554238D01*
X11437528Y-7550262D01*
X11426742Y-7546798D01*
X11415638Y-7543856D01*
X11404235Y-7541448D01*
X11392548Y-7539583D01*
X11392541Y-7539564D01*
X11392533Y-7539544D01*
X11392518Y-7539505D01*
X11392502Y-7539466D01*
X11392486Y-7539426D01*
X11390678Y-7539427D01*
X11385227Y-7538607D01*
X11379734Y-7537908D01*
X11374202Y-7537331D01*
X11368633Y-7536875D01*
X11363028Y-7536542D01*
X11357392Y-7536330D01*
X11351724Y-7536241D01*
X11346030Y-7536275D01*
X11342734Y-7536556D01*
X11337799Y-7536781D01*
X11325197Y-7537161D01*
X11312595Y-7537617D01*
X11307661Y-7537937D01*
X11305775Y-7538130D01*
X11304367Y-7538350D01*
X11241592Y-7539424D01*
X11239011Y-7539401D01*
X11236466Y-7539245D01*
X11233959Y-7538960D01*
X11231492Y-7538548D01*
X11229070Y-7538013D01*
X11226695Y-7537358D01*
X11224370Y-7536588D01*
X11222099Y-7535704D01*
X11219884Y-7534712D01*
X11217729Y-7533612D01*
X11215636Y-7532411D01*
X11213609Y-7531110D01*
X11211651Y-7529713D01*
X11209764Y-7528223D01*
X11207953Y-7526644D01*
X11206220Y-7524979D01*
X11204567Y-7523231D01*
X11202999Y-7521405D01*
X11201519Y-7519502D01*
X11200129Y-7517528D01*
X11198832Y-7515484D01*
X11197632Y-7513374D01*
X11196531Y-7511202D01*
X11195534Y-7508971D01*
X11194642Y-7506684D01*
X11193859Y-7504345D01*
X11193188Y-7501958D01*
X11192632Y-7499524D01*
X11192194Y-7497049D01*
X11191878Y-7494534D01*
X11191686Y-7491985D01*
X11191621Y-7489403D01*
X11191621Y-7039406D01*
X11191686Y-7036825D01*
X11191878Y-7034279D01*
X11192194Y-7031771D01*
X11192632Y-7029303D01*
X11193187Y-7026879D01*
X11193858Y-7024503D01*
X11194641Y-7022176D01*
X11195533Y-7019903D01*
X11196530Y-7017686D01*
X11197631Y-7015528D01*
X11198831Y-7013434D01*
X11200127Y-7011404D01*
X11201517Y-7009444D01*
X11202998Y-7007555D01*
X11204565Y-7005741D01*
X11206218Y-7004006D01*
X11207951Y-7002351D01*
X11209762Y-7000781D01*
X11211648Y-6999298D01*
X11213607Y-6997905D01*
X11215634Y-6996607D01*
X11217726Y-6995404D01*
X11219882Y-6994302D01*
X11222097Y-6993302D01*
X11224368Y-6992409D01*
X11226693Y-6991624D01*
X11229068Y-6990952D01*
X11231491Y-6990395D01*
X11233958Y-6989956D01*
X11236465Y-6989639D01*
X11239011Y-6989447D01*
X11241592Y-6989382D01*
X11318578Y-6990602D01*
X11337840Y-6990267D01*
X11347437Y-6989834D01*
X11357002Y-6989185D01*
X11366528Y-6988287D01*
X11376010Y-6987111D01*
X11385440Y-6985625D01*
X11394812Y-6983800D01*
X11405996Y-6981819D01*
X11416911Y-6979335D01*
X11427541Y-6976358D01*
X11437871Y-6972898D01*
X11447885Y-6968963D01*
X11457568Y-6964565D01*
X11466905Y-6959712D01*
X11475879Y-6954415D01*
X11484476Y-6948683D01*
X11492680Y-6942525D01*
X11500476Y-6935952D01*
X11507848Y-6928973D01*
X11514780Y-6921597D01*
X11521258Y-6913836D01*
X11527266Y-6905697D01*
X11532788Y-6897191D01*
X11537433Y-6888080D01*
X11541508Y-6878729D01*
X11545012Y-6869156D01*
X11547945Y-6859380D01*
X11550305Y-6849419D01*
X11552092Y-6839292D01*
X11553306Y-6829018D01*
X11553945Y-6818616D01*
X11554010Y-6808104D01*
X11553500Y-6797500D01*
X11552413Y-6786825D01*
X11550750Y-6776096D01*
X11548509Y-6765331D01*
X11545691Y-6754551D01*
X11542293Y-6743773D01*
X11538317Y-6733016D01*
X11537339Y-6729645D01*
X11535918Y-6725564D01*
X11533702Y-6719996D01*
X11530560Y-6713026D01*
X11528603Y-6709042D01*
X11526365Y-6704738D01*
X11523830Y-6700126D01*
X11520984Y-6695216D01*
X11517809Y-6690018D01*
X11514288Y-6684543D01*
X11465919Y-6600827D01*
X11464685Y-6598560D01*
X11463580Y-6596259D01*
X11462601Y-6593929D01*
X11461747Y-6591573D01*
X11461019Y-6589196D01*
X11460414Y-6586802D01*
X11459931Y-6584395D01*
X11459570Y-6581980D01*
X11459328Y-6579561D01*
X11459205Y-6577142D01*
X11459201Y-6574728D01*
X11459312Y-6572321D01*
X11459540Y-6569928D01*
X11459881Y-6567552D01*
X11460336Y-6565196D01*
X11460902Y-6562867D01*
X11461580Y-6560567D01*
X11462367Y-6558301D01*
X11463263Y-6556073D01*
X11464266Y-6553887D01*
X11465375Y-6551749D01*
X11466590Y-6549661D01*
X11467909Y-6547628D01*
X11469330Y-6545654D01*
X11470853Y-6543744D01*
X11472476Y-6541902D01*
X11474199Y-6540132D01*
X11476020Y-6538438D01*
X11477939Y-6536825D01*
X11479953Y-6535297D01*
X11482062Y-6533857D01*
X11484264Y-6532511D01*
X11873956Y-6307512D01*
X11875653Y-6306575D01*
X11877369Y-6305709D01*
X11879102Y-6304916D01*
X11880850Y-6304193D01*
X11882613Y-6303541D01*
X11884388Y-6302960D01*
X11886173Y-6302448D01*
X11887967Y-6302005D01*
X11889768Y-6301632D01*
X11891574Y-6301326D01*
X11893384Y-6301088D01*
X11895197Y-6300917D01*
X11897009Y-6300814D01*
X11898820Y-6300776D01*
X11900628Y-6300804D01*
X11902431Y-6300898D01*
X11902431Y-6300897D01*
X11902431Y-6300896D01*
X11902431Y-6300896D01*
X11902431Y-6300895D01*
X11902431Y-6300895D01*
X11902431Y-6300895D01*
X11902431Y-6300894D01*
X11902431Y-6300894D01*
X11902431Y-6300893D01*
X11902431Y-6300893D01*
X11902431Y-6300892D01*
X11902432Y-6300892D01*
X11902432Y-6300892D01*
X11902432Y-6300892D01*
X11902432Y-6300892D01*
X11902432Y-6300892D01*
X11902432Y-6300891D01*
X11905421Y-6301191D01*
X11908382Y-6301668D01*
X11911307Y-6302321D01*
X11914188Y-6303147D01*
X11917017Y-6304145D01*
X11919785Y-6305311D01*
X11922484Y-6306645D01*
X11925105Y-6308143D01*
X11927640Y-6309804D01*
X11930080Y-6311626D01*
X11932418Y-6313606D01*
X11933546Y-6314654D01*
X11934645Y-6315741D01*
X11935714Y-6316867D01*
X11936752Y-6318031D01*
X11937758Y-6319233D01*
X11938731Y-6320472D01*
X11939670Y-6321749D01*
X11940574Y-6323063D01*
X11941442Y-6324414D01*
X11942272Y-6325801D01*
X11963563Y-6362697D01*
X11965877Y-6373287D01*
X11968530Y-6383671D01*
X11971515Y-6393842D01*
X11974823Y-6403790D01*
X11978444Y-6413508D01*
X11982371Y-6422988D01*
X11986596Y-6432220D01*
X11991108Y-6441196D01*
X11995900Y-6449909D01*
X12000964Y-6458348D01*
X12006290Y-6466508D01*
X12011870Y-6474378D01*
X12017696Y-6481950D01*
X12023759Y-6489217D01*
X12030049Y-6496169D01*
X12036560Y-6502798D01*
X12043282Y-6509097D01*
X12050206Y-6515056D01*
X12057324Y-6520667D01*
X12064627Y-6525922D01*
X12072108Y-6530812D01*
X12079756Y-6535329D01*
X12087564Y-6539464D01*
X12095523Y-6543210D01*
X12103625Y-6546558D01*
X12111860Y-6549499D01*
X12120221Y-6552025D01*
X12128698Y-6554128D01*
X12137284Y-6555799D01*
X12145969Y-6557030D01*
X12154745Y-6557812D01*
X12163603Y-6558138D01*
X12172120Y-6557896D01*
X12180565Y-6557230D01*
X12188931Y-6556149D01*
X12197211Y-6554658D01*
X12205396Y-6552765D01*
X12213478Y-6550477D01*
X12221450Y-6547802D01*
X12229304Y-6544746D01*
X12237031Y-6541318D01*
X12244625Y-6537523D01*
X12252077Y-6533370D01*
X12259379Y-6528866D01*
X12266523Y-6524017D01*
X12273502Y-6518832D01*
X12286933Y-6507478D01*
X12299607Y-6494863D01*
X12311463Y-6481044D01*
X12322438Y-6466079D01*
X12332467Y-6450026D01*
X12341490Y-6432941D01*
X12349442Y-6414884D01*
X12356262Y-6395912D01*
X12361885Y-6376082D01*
X12390927Y-6325801D01*
X12392273Y-6323599D01*
X12393713Y-6321490D01*
X12395242Y-6319477D01*
X12396855Y-6317560D01*
X12398549Y-6315740D01*
X12400319Y-6314018D01*
X12402161Y-6312396D01*
X12404071Y-6310875D01*
X12406045Y-6309455D01*
X12408077Y-6308138D01*
X12410165Y-6306926D01*
X12412304Y-6305819D01*
X12414490Y-6304818D01*
X12416717Y-6303924D01*
X12418983Y-6303139D01*
X12421283Y-6302464D01*
X12423613Y-6301900D01*
X12425968Y-6301448D01*
X12428344Y-6301108D01*
X12430737Y-6300884D01*
X12433144Y-6300774D01*
X12435558Y-6300781D01*
X11442398Y-8549510D02*
X11442398Y-8349510D01*
X11442398Y-8349510D02*
X11490017Y-8349510D01*
X11490017Y-8349510D02*
X11518589Y-8359034D01*
X11518589Y-8359034D02*
X11537636Y-8378081D01*
X11537636Y-8378081D02*
X11547160Y-8397129D01*
X11547160Y-8397129D02*
X11556684Y-8435224D01*
X11556684Y-8435224D02*
X11556684Y-8463796D01*
X11556684Y-8463796D02*
X11547160Y-8501891D01*
X11547160Y-8501891D02*
X11537636Y-8520938D01*
X11537636Y-8520938D02*
X11518589Y-8539986D01*
X11518589Y-8539986D02*
X11490017Y-8549510D01*
X11490017Y-8549510D02*
X11442398Y-8549510D01*
X11642398Y-8549510D02*
X11642398Y-8416177D01*
X11642398Y-8454272D02*
X11651922Y-8435224D01*
X11651922Y-8435224D02*
X11661446Y-8425700D01*
X11661446Y-8425700D02*
X11680493Y-8416177D01*
X11680493Y-8416177D02*
X11699541Y-8416177D01*
X11766208Y-8549510D02*
X11766208Y-8416177D01*
X11766208Y-8349510D02*
X11756684Y-8359034D01*
X11756684Y-8359034D02*
X11766208Y-8368557D01*
X11766208Y-8368557D02*
X11775731Y-8359034D01*
X11775731Y-8359034D02*
X11766208Y-8349510D01*
X11766208Y-8349510D02*
X11766208Y-8368557D01*
X11890017Y-8549510D02*
X11870970Y-8539986D01*
X11870970Y-8539986D02*
X11861446Y-8520938D01*
X11861446Y-8520938D02*
X11861446Y-8349510D01*
X11994779Y-8549510D02*
X11975731Y-8539986D01*
X11975731Y-8539986D02*
X11966208Y-8520938D01*
X11966208Y-8520938D02*
X11966208Y-8349510D01*
X12223351Y-8549510D02*
X12223351Y-8349510D01*
X12223351Y-8349510D02*
X12290017Y-8492367D01*
X12290017Y-8492367D02*
X12356684Y-8349510D01*
X12356684Y-8349510D02*
X12356684Y-8549510D01*
X12537636Y-8549510D02*
X12537636Y-8444748D01*
X12537636Y-8444748D02*
X12528112Y-8425700D01*
X12528112Y-8425700D02*
X12509065Y-8416177D01*
X12509065Y-8416177D02*
X12470970Y-8416177D01*
X12470970Y-8416177D02*
X12451922Y-8425700D01*
X12537636Y-8539986D02*
X12518589Y-8549510D01*
X12518589Y-8549510D02*
X12470970Y-8549510D01*
X12470970Y-8549510D02*
X12451922Y-8539986D01*
X12451922Y-8539986D02*
X12442398Y-8520938D01*
X12442398Y-8520938D02*
X12442398Y-8501891D01*
X12442398Y-8501891D02*
X12451922Y-8482843D01*
X12451922Y-8482843D02*
X12470970Y-8473319D01*
X12470970Y-8473319D02*
X12518589Y-8473319D01*
X12518589Y-8473319D02*
X12537636Y-8463796D01*
X12632874Y-8416177D02*
X12632874Y-8616177D01*
X12632874Y-8425700D02*
X12651922Y-8416177D01*
X12651922Y-8416177D02*
X12690017Y-8416177D01*
X12690017Y-8416177D02*
X12709065Y-8425700D01*
X12709065Y-8425700D02*
X12718589Y-8435224D01*
X12718589Y-8435224D02*
X12728112Y-8454272D01*
X12728112Y-8454272D02*
X12728112Y-8511415D01*
X12728112Y-8511415D02*
X12718589Y-8530462D01*
X12718589Y-8530462D02*
X12709065Y-8539986D01*
X12709065Y-8539986D02*
X12690017Y-8549510D01*
X12690017Y-8549510D02*
X12651922Y-8549510D01*
X12651922Y-8549510D02*
X12632874Y-8539986D01*
X12813827Y-8530462D02*
X12823351Y-8539986D01*
X12823351Y-8539986D02*
X12813827Y-8549510D01*
X12813827Y-8549510D02*
X12804303Y-8539986D01*
X12804303Y-8539986D02*
X12813827Y-8530462D01*
X12813827Y-8530462D02*
X12813827Y-8549510D01*
X12813827Y-8425700D02*
X12823351Y-8435224D01*
X12823351Y-8435224D02*
X12813827Y-8444748D01*
X12813827Y-8444748D02*
X12804303Y-8435224D01*
X12804303Y-8435224D02*
X12813827Y-8425700D01*
X12813827Y-8425700D02*
X12813827Y-8444748D01*
M02*
