%TF.GenerationSoftware,KiCad,Pcbnew,7.0.9-7.0.9~ubuntu22.04.1*%
%TF.CreationDate,2023-12-19T20:01:32+01:00*%
%TF.ProjectId,StarPCB,53746172-5043-4422-9e6b-696361645f70,rev?*%
%TF.SameCoordinates,Original*%
%TF.FileFunction,Profile,NP*%
%FSLAX46Y46*%
G04 Gerber Fmt 4.6, Leading zero omitted, Abs format (unit mm)*
G04 Created by KiCad (PCBNEW 7.0.9-7.0.9~ubuntu22.04.1) date 2023-12-19 20:01:32*
%MOMM*%
%LPD*%
G01*
G04 APERTURE LIST*
%TA.AperFunction,Profile*%
%ADD10C,0.200000*%
%TD*%
G04 APERTURE END LIST*
D10*
X124355583Y-63007809D02*
X124379772Y-63009055D01*
X124403962Y-63011488D01*
X124428110Y-63015120D01*
X124452175Y-63019962D01*
X124476113Y-63026026D01*
X124499883Y-63033322D01*
X124523441Y-63041863D01*
X124546747Y-63051659D01*
X124569757Y-63062722D01*
X124592429Y-63075062D01*
X128489341Y-65325062D01*
X128511367Y-65338525D01*
X128532457Y-65352921D01*
X128552599Y-65368206D01*
X128571781Y-65384339D01*
X128589993Y-65401276D01*
X128607223Y-65418976D01*
X128623459Y-65437397D01*
X128638689Y-65456496D01*
X128652903Y-65476230D01*
X128666089Y-65496558D01*
X128678235Y-65517437D01*
X128689329Y-65538825D01*
X128699361Y-65560679D01*
X128708319Y-65582957D01*
X128716192Y-65605617D01*
X128722967Y-65628616D01*
X128728634Y-65651913D01*
X128733180Y-65675464D01*
X128736596Y-65699228D01*
X128738868Y-65723162D01*
X128739985Y-65747223D01*
X128739937Y-65771370D01*
X128738711Y-65795560D01*
X128736296Y-65819751D01*
X128732681Y-65843901D01*
X128727854Y-65867966D01*
X128721803Y-65891906D01*
X128714517Y-65915677D01*
X128705986Y-65939237D01*
X128696196Y-65962544D01*
X128685137Y-65985555D01*
X128672797Y-66008228D01*
X128287785Y-66655956D01*
X128194749Y-66819933D01*
X128106118Y-66985878D01*
X128063941Y-67069769D01*
X128023450Y-67154368D01*
X127984838Y-67239747D01*
X127948302Y-67325977D01*
X127899490Y-67440312D01*
X127857270Y-67555151D01*
X127821640Y-67670264D01*
X127792598Y-67785419D01*
X127770145Y-67900386D01*
X127754278Y-68014933D01*
X127744996Y-68128831D01*
X127742299Y-68241848D01*
X127746185Y-68353753D01*
X127756652Y-68464317D01*
X127773701Y-68573307D01*
X127797328Y-68680493D01*
X127827534Y-68785644D01*
X127864317Y-68888530D01*
X127907676Y-68988920D01*
X127957610Y-69086582D01*
X128002272Y-69159114D01*
X128050246Y-69228913D01*
X128155720Y-69360186D01*
X128273219Y-69480146D01*
X128401931Y-69588537D01*
X128541040Y-69685102D01*
X128689734Y-69769588D01*
X128847200Y-69841737D01*
X129012624Y-69901295D01*
X129185192Y-69948005D01*
X129364091Y-69981612D01*
X129548508Y-70001860D01*
X129737629Y-70008494D01*
X129930641Y-70001258D01*
X130126730Y-69979896D01*
X130325083Y-69944152D01*
X130524886Y-69893772D01*
X130916083Y-69893772D01*
X130941888Y-69894422D01*
X130967344Y-69896349D01*
X130992420Y-69899522D01*
X131017085Y-69903909D01*
X131041309Y-69909480D01*
X131065060Y-69916204D01*
X131088309Y-69924049D01*
X131111024Y-69932985D01*
X131133173Y-69942981D01*
X131154727Y-69954005D01*
X131175655Y-69966027D01*
X131195925Y-69979015D01*
X131215507Y-69992939D01*
X131234370Y-70007768D01*
X131252483Y-70023470D01*
X131269815Y-70040014D01*
X131286336Y-70057370D01*
X131302015Y-70075507D01*
X131316820Y-70094393D01*
X131330721Y-70113997D01*
X131343687Y-70134289D01*
X131355687Y-70155238D01*
X131366691Y-70176811D01*
X131376667Y-70198980D01*
X131385585Y-70221711D01*
X131393413Y-70244975D01*
X131400122Y-70268740D01*
X131405680Y-70292976D01*
X131410056Y-70317651D01*
X131413220Y-70342734D01*
X131415140Y-70368194D01*
X131415786Y-70394001D01*
X131415786Y-74893985D01*
X131415139Y-74919792D01*
X131413218Y-74945252D01*
X131410054Y-74970336D01*
X131405678Y-74995011D01*
X131400120Y-75019247D01*
X131393411Y-75043012D01*
X131385582Y-75066277D01*
X131376664Y-75089009D01*
X131366687Y-75111177D01*
X131355684Y-75132752D01*
X131343683Y-75153700D01*
X131330717Y-75173993D01*
X131316816Y-75193598D01*
X131302011Y-75212484D01*
X131286333Y-75230621D01*
X131269813Y-75247978D01*
X131252480Y-75264523D01*
X131234368Y-75280225D01*
X131215505Y-75295054D01*
X131195923Y-75308978D01*
X131175653Y-75321966D01*
X131154726Y-75333988D01*
X131133172Y-75345012D01*
X131111022Y-75355008D01*
X131088308Y-75363943D01*
X131065060Y-75371788D01*
X131041308Y-75378511D01*
X131017085Y-75384081D01*
X130992419Y-75388468D01*
X130967344Y-75391640D01*
X130941888Y-75393565D01*
X130916083Y-75394214D01*
X130191070Y-75394214D01*
X130144561Y-75383482D01*
X130098011Y-75373523D01*
X130051429Y-75364340D01*
X130004829Y-75355934D01*
X129958223Y-75348307D01*
X129911621Y-75341463D01*
X129865036Y-75335402D01*
X129818480Y-75330127D01*
X129741065Y-75327767D01*
X129664364Y-75327641D01*
X129588422Y-75329727D01*
X129513285Y-75334004D01*
X129438997Y-75340449D01*
X129365604Y-75349040D01*
X129293151Y-75359756D01*
X129221684Y-75372574D01*
X129151248Y-75387471D01*
X129081888Y-75404427D01*
X129013649Y-75423419D01*
X128946577Y-75444425D01*
X128880717Y-75467424D01*
X128816114Y-75492392D01*
X128752814Y-75519308D01*
X128690862Y-75548150D01*
X128630302Y-75578897D01*
X128571181Y-75611525D01*
X128513544Y-75646013D01*
X128457436Y-75682339D01*
X128402902Y-75720481D01*
X128349987Y-75760416D01*
X128298737Y-75802124D01*
X128249197Y-75845581D01*
X128201413Y-75890766D01*
X128155429Y-75937657D01*
X128111291Y-75986232D01*
X128069044Y-76036468D01*
X128028734Y-76088344D01*
X127990406Y-76141837D01*
X127954104Y-76196926D01*
X127919875Y-76253589D01*
X127884621Y-76320410D01*
X127852520Y-76388449D01*
X127797733Y-76527887D01*
X127755419Y-76671313D01*
X127725484Y-76818134D01*
X127707835Y-76967761D01*
X127702377Y-77119601D01*
X127709016Y-77273063D01*
X127727659Y-77427556D01*
X127758211Y-77582490D01*
X127800578Y-77737272D01*
X127854667Y-77891312D01*
X127920383Y-78044019D01*
X127997631Y-78194801D01*
X128086319Y-78343067D01*
X128186353Y-78488226D01*
X128297637Y-78629687D01*
X128672805Y-79279772D01*
X128685144Y-79302444D01*
X128696202Y-79325454D01*
X128705992Y-79348760D01*
X128714523Y-79372319D01*
X128721808Y-79396089D01*
X128727858Y-79420027D01*
X128732685Y-79444092D01*
X128736300Y-79468241D01*
X128738715Y-79492431D01*
X128739941Y-79516621D01*
X128739989Y-79540767D01*
X128738872Y-79564828D01*
X128736600Y-79588762D01*
X128733185Y-79612525D01*
X128728638Y-79636076D01*
X128722972Y-79659373D01*
X128716197Y-79682372D01*
X128708325Y-79705032D01*
X128699367Y-79727311D01*
X128689335Y-79749165D01*
X128678240Y-79770553D01*
X128666095Y-79791433D01*
X128652909Y-79811761D01*
X128638696Y-79831496D01*
X128623465Y-79850596D01*
X128607230Y-79869017D01*
X128590000Y-79886718D01*
X128571789Y-79903657D01*
X128552606Y-79919791D01*
X128532464Y-79935077D01*
X128511375Y-79949474D01*
X128489348Y-79962939D01*
X124592437Y-82212923D01*
X124569764Y-82225265D01*
X124546753Y-82236329D01*
X124523447Y-82246126D01*
X124499888Y-82254668D01*
X124476118Y-82261966D01*
X124452179Y-82268031D01*
X124428114Y-82272874D01*
X124403965Y-82276507D01*
X124379775Y-82278940D01*
X124355585Y-82280187D01*
X124331439Y-82280257D01*
X124307378Y-82279161D01*
X124283444Y-82276912D01*
X124259681Y-82273521D01*
X124236130Y-82268998D01*
X124212834Y-82263356D01*
X124189835Y-82256604D01*
X124167176Y-82248756D01*
X124144898Y-82239821D01*
X124123044Y-82229812D01*
X124101656Y-82218740D01*
X124080777Y-82206615D01*
X124060449Y-82193449D01*
X124040715Y-82179254D01*
X124021616Y-82164041D01*
X124003195Y-82147821D01*
X123985495Y-82130605D01*
X123968557Y-82112404D01*
X123952424Y-82093231D01*
X123937138Y-82073096D01*
X123922742Y-82052010D01*
X123909278Y-82029986D01*
X123504134Y-81328722D01*
X123489183Y-81294147D01*
X123474059Y-81260437D01*
X123458803Y-81227608D01*
X123443460Y-81195676D01*
X123412676Y-81134559D01*
X123382047Y-81077211D01*
X123351913Y-81023751D01*
X123322613Y-80974302D01*
X123294487Y-80928986D01*
X123267873Y-80887925D01*
X123243111Y-80851240D01*
X123220542Y-80819053D01*
X123200503Y-80791487D01*
X123183336Y-80768662D01*
X123158970Y-80737727D01*
X123150161Y-80727221D01*
X123075305Y-80636931D01*
X122997238Y-80551779D01*
X122916136Y-80471859D01*
X122832175Y-80397262D01*
X122745532Y-80328082D01*
X122656385Y-80264411D01*
X122564909Y-80206341D01*
X122471282Y-80153965D01*
X122375680Y-80107376D01*
X122278280Y-80066666D01*
X122179258Y-80031928D01*
X122078792Y-80003254D01*
X121977058Y-79980737D01*
X121874232Y-79964469D01*
X121770492Y-79954543D01*
X121666015Y-79951052D01*
X121563318Y-79956393D01*
X121461401Y-79967943D01*
X121360432Y-79985614D01*
X121260578Y-80009314D01*
X121162006Y-80038955D01*
X121064885Y-80074446D01*
X120969381Y-80115698D01*
X120875663Y-80162621D01*
X120783897Y-80215125D01*
X120694251Y-80273119D01*
X120606893Y-80336515D01*
X120521990Y-80405223D01*
X120439710Y-80479152D01*
X120360220Y-80558213D01*
X120283688Y-80642316D01*
X120210280Y-80731371D01*
X120165847Y-80781587D01*
X120144511Y-80807055D01*
X120123752Y-80832805D01*
X120103559Y-80858868D01*
X120083924Y-80885276D01*
X120064838Y-80912061D01*
X120046290Y-80939253D01*
X120028274Y-80966885D01*
X120010778Y-80994989D01*
X119993795Y-81023594D01*
X119977314Y-81052734D01*
X119961328Y-81082440D01*
X119945827Y-81112742D01*
X119930802Y-81143673D01*
X119916244Y-81175265D01*
X119422721Y-82029986D01*
X119409257Y-82052010D01*
X119394861Y-82073096D01*
X119379575Y-82093231D01*
X119363442Y-82112404D01*
X119346504Y-82130605D01*
X119328803Y-82147821D01*
X119310382Y-82164041D01*
X119291283Y-82179254D01*
X119271548Y-82193450D01*
X119251220Y-82206615D01*
X119230341Y-82218740D01*
X119208953Y-82229813D01*
X119187099Y-82239822D01*
X119164821Y-82248757D01*
X119142161Y-82256606D01*
X119119162Y-82263358D01*
X119095866Y-82269000D01*
X119072315Y-82273524D01*
X119048552Y-82276916D01*
X119024618Y-82279165D01*
X119000557Y-82280261D01*
X118976411Y-82280192D01*
X118952221Y-82278946D01*
X118928031Y-82276513D01*
X118903882Y-82272881D01*
X118879817Y-82268039D01*
X118855879Y-82261975D01*
X118832109Y-82254678D01*
X118808550Y-82246138D01*
X118785245Y-82236342D01*
X118762235Y-82225279D01*
X118739562Y-82212939D01*
X114842636Y-79962939D01*
X114820611Y-79949475D01*
X114799523Y-79935080D01*
X114779382Y-79919795D01*
X114760200Y-79903662D01*
X114741990Y-79886724D01*
X114724761Y-79869024D01*
X114708526Y-79850603D01*
X114693296Y-79831505D01*
X114679083Y-79811770D01*
X114665898Y-79791442D01*
X114653753Y-79770563D01*
X114642659Y-79749176D01*
X114632627Y-79727322D01*
X114623670Y-79705043D01*
X114615798Y-79682384D01*
X114609023Y-79659384D01*
X114603356Y-79636088D01*
X114598810Y-79612536D01*
X114595395Y-79588773D01*
X114593123Y-79564839D01*
X114592006Y-79540777D01*
X114592055Y-79516630D01*
X114593281Y-79492440D01*
X114595696Y-79468249D01*
X114599311Y-79444100D01*
X114604138Y-79420034D01*
X114610189Y-79396095D01*
X114617474Y-79372324D01*
X114626006Y-79348764D01*
X114635796Y-79325457D01*
X114646855Y-79302446D01*
X114659195Y-79279772D01*
X115116531Y-78487583D01*
X115152355Y-78435855D01*
X115186816Y-78383575D01*
X115219899Y-78330767D01*
X115251590Y-78277460D01*
X115281876Y-78223679D01*
X115310740Y-78169453D01*
X115338170Y-78114808D01*
X115364151Y-78059772D01*
X115366085Y-78054485D01*
X115367904Y-78049154D01*
X115371305Y-78038399D01*
X115377900Y-78016801D01*
X115381517Y-78006120D01*
X115383498Y-78000844D01*
X115385629Y-77995624D01*
X115387937Y-77990471D01*
X115390448Y-77985395D01*
X115393189Y-77980406D01*
X115396187Y-77975513D01*
X115439469Y-77865244D01*
X115476650Y-77754656D01*
X115507733Y-77643950D01*
X115532722Y-77533332D01*
X115551623Y-77423003D01*
X115564439Y-77313169D01*
X115571177Y-77204031D01*
X115571839Y-77095794D01*
X115566431Y-76988661D01*
X115554957Y-76882835D01*
X115537423Y-76778521D01*
X115513831Y-76675920D01*
X115484188Y-76575238D01*
X115448498Y-76476676D01*
X115406765Y-76380440D01*
X115358993Y-76286731D01*
X115302726Y-76197779D01*
X115241207Y-76112761D01*
X115174611Y-76031785D01*
X115103109Y-75954958D01*
X115026876Y-75882388D01*
X114946083Y-75814183D01*
X114860905Y-75750449D01*
X114771514Y-75691295D01*
X114678082Y-75636828D01*
X114580785Y-75587156D01*
X114479793Y-75542385D01*
X114375280Y-75502625D01*
X114267420Y-75467982D01*
X114156385Y-75438563D01*
X114042349Y-75414477D01*
X113925483Y-75395831D01*
X113925411Y-75395637D01*
X113925335Y-75395442D01*
X113925180Y-75395051D01*
X113925022Y-75394658D01*
X113924865Y-75394260D01*
X113906776Y-75394275D01*
X113852270Y-75386070D01*
X113797345Y-75379080D01*
X113742023Y-75373306D01*
X113686329Y-75368751D01*
X113630285Y-75365416D01*
X113573916Y-75363303D01*
X113517245Y-75362414D01*
X113460296Y-75362750D01*
X113427344Y-75365560D01*
X113377995Y-75367806D01*
X113251969Y-75371610D01*
X113125951Y-75376172D01*
X113076610Y-75379366D01*
X113057748Y-75381300D01*
X113043671Y-75383502D01*
X112415916Y-75394245D01*
X112390114Y-75394015D01*
X112364661Y-75392454D01*
X112339587Y-75389598D01*
X112314924Y-75385478D01*
X112290701Y-75380130D01*
X112266951Y-75373585D01*
X112243703Y-75365879D01*
X112220989Y-75357045D01*
X112198840Y-75347116D01*
X112177286Y-75336125D01*
X112156358Y-75324108D01*
X112136088Y-75311097D01*
X112116506Y-75297126D01*
X112097642Y-75282229D01*
X112079529Y-75266439D01*
X112062196Y-75249790D01*
X112045674Y-75232315D01*
X112029995Y-75214049D01*
X112015189Y-75195024D01*
X112001287Y-75175276D01*
X111988320Y-75154836D01*
X111976319Y-75133739D01*
X111965314Y-75112019D01*
X111955337Y-75089709D01*
X111946418Y-75066842D01*
X111938589Y-75043453D01*
X111931880Y-75019576D01*
X111926321Y-74995243D01*
X111921944Y-74970488D01*
X111918780Y-74945345D01*
X111916860Y-74919848D01*
X111916214Y-74894031D01*
X111916214Y-70394062D01*
X111916859Y-70368254D01*
X111918779Y-70342792D01*
X111921942Y-70317707D01*
X111926317Y-70293031D01*
X111931874Y-70268794D01*
X111938582Y-70245028D01*
X111946410Y-70221762D01*
X111955327Y-70199030D01*
X111965303Y-70176860D01*
X111976306Y-70155285D01*
X111988306Y-70134336D01*
X112001272Y-70114043D01*
X112015172Y-70094437D01*
X112029977Y-70075550D01*
X112045655Y-70057413D01*
X112062176Y-70040056D01*
X112079508Y-70023511D01*
X112097621Y-70007808D01*
X112116484Y-69992979D01*
X112136066Y-69979055D01*
X112156336Y-69966066D01*
X112177264Y-69954044D01*
X112198819Y-69943020D01*
X112220969Y-69933025D01*
X112243684Y-69924089D01*
X112266933Y-69916244D01*
X112290685Y-69909521D01*
X112314910Y-69903950D01*
X112339576Y-69899564D01*
X112364653Y-69896392D01*
X112390110Y-69894467D01*
X112415916Y-69893818D01*
X113185780Y-69906021D01*
X113378400Y-69902668D01*
X113474368Y-69898344D01*
X113570018Y-69891848D01*
X113665285Y-69882872D01*
X113760102Y-69871110D01*
X113854402Y-69856255D01*
X113948120Y-69838001D01*
X114059963Y-69818191D01*
X114169113Y-69793353D01*
X114275415Y-69763582D01*
X114378713Y-69728978D01*
X114478855Y-69689635D01*
X114575685Y-69645652D01*
X114669049Y-69597125D01*
X114758793Y-69544151D01*
X114844762Y-69486828D01*
X114926801Y-69425251D01*
X115004757Y-69359519D01*
X115078476Y-69289728D01*
X115147801Y-69215974D01*
X115212581Y-69138356D01*
X115272658Y-69056970D01*
X115327881Y-68971912D01*
X115374334Y-68880805D01*
X115415083Y-68787292D01*
X115450123Y-68691560D01*
X115479447Y-68593796D01*
X115503048Y-68494187D01*
X115520921Y-68392919D01*
X115533059Y-68290180D01*
X115539455Y-68186157D01*
X115540103Y-68081036D01*
X115534998Y-67975005D01*
X115524131Y-67868249D01*
X115507498Y-67760957D01*
X115485092Y-67653315D01*
X115456906Y-67545510D01*
X115422935Y-67437729D01*
X115383171Y-67330158D01*
X115373391Y-67296455D01*
X115359178Y-67255637D01*
X115337016Y-67199959D01*
X115305605Y-67130260D01*
X115286026Y-67090416D01*
X115263646Y-67047380D01*
X115238305Y-67001260D01*
X115209839Y-66952158D01*
X115178086Y-66900181D01*
X115142883Y-66845432D01*
X114659195Y-66008274D01*
X114646855Y-65985602D01*
X114635796Y-65962592D01*
X114626006Y-65939286D01*
X114617474Y-65915727D01*
X114610189Y-65891957D01*
X114604138Y-65868018D01*
X114599311Y-65843953D01*
X114595696Y-65819804D01*
X114593281Y-65795613D01*
X114592055Y-65771423D01*
X114592006Y-65747276D01*
X114593124Y-65723214D01*
X114595396Y-65699280D01*
X114598811Y-65675516D01*
X114603357Y-65651965D01*
X114609024Y-65628668D01*
X114615799Y-65605668D01*
X114623671Y-65583008D01*
X114632629Y-65560729D01*
X114642661Y-65538875D01*
X114653755Y-65517487D01*
X114665901Y-65496607D01*
X114679086Y-65476279D01*
X114693299Y-65456544D01*
X114708530Y-65437445D01*
X114724765Y-65419024D01*
X114741994Y-65401323D01*
X114760205Y-65384385D01*
X114779387Y-65368252D01*
X114799529Y-65352967D01*
X114820618Y-65338571D01*
X114842643Y-65325108D01*
X118739562Y-63075123D01*
X118756530Y-63065747D01*
X118773688Y-63057093D01*
X118791018Y-63049156D01*
X118808505Y-63041931D01*
X118826130Y-63035413D01*
X118843877Y-63029598D01*
X118861729Y-63024480D01*
X118879669Y-63020054D01*
X118897679Y-63016316D01*
X118915744Y-63013260D01*
X118933845Y-63010881D01*
X118951966Y-63009175D01*
X118970089Y-63008137D01*
X118988199Y-63007761D01*
X119006277Y-63008042D01*
X119024307Y-63008976D01*
X119024307Y-63008970D01*
X119024307Y-63008962D01*
X119024307Y-63008958D01*
X119024308Y-63008954D01*
X119024308Y-63008950D01*
X119024309Y-63008946D01*
X119024309Y-63008942D01*
X119024310Y-63008937D01*
X119024312Y-63008933D01*
X119024313Y-63008929D01*
X119024315Y-63008925D01*
X119024316Y-63008923D01*
X119024317Y-63008922D01*
X119024318Y-63008920D01*
X119024319Y-63008918D01*
X119024321Y-63008917D01*
X119024322Y-63008915D01*
X119054206Y-63011909D01*
X119083816Y-63016680D01*
X119113070Y-63023209D01*
X119141882Y-63031471D01*
X119170170Y-63041447D01*
X119197850Y-63053114D01*
X119224837Y-63066450D01*
X119251048Y-63081435D01*
X119276398Y-63098045D01*
X119300805Y-63116259D01*
X119324183Y-63136056D01*
X119335461Y-63146541D01*
X119346450Y-63157413D01*
X119357140Y-63168670D01*
X119367521Y-63180309D01*
X119377582Y-63192328D01*
X119387313Y-63204723D01*
X119396702Y-63217492D01*
X119405741Y-63230632D01*
X119414417Y-63244141D01*
X119422721Y-63258015D01*
X119635634Y-63626972D01*
X119658770Y-63732869D01*
X119685305Y-63836712D01*
X119715152Y-63938419D01*
X119748227Y-64037904D01*
X119784444Y-64135085D01*
X119823715Y-64229878D01*
X119865957Y-64322198D01*
X119911082Y-64411962D01*
X119959005Y-64499086D01*
X120009641Y-64583485D01*
X120062903Y-64665077D01*
X120118705Y-64743778D01*
X120176961Y-64819502D01*
X120237587Y-64892168D01*
X120300495Y-64961690D01*
X120365601Y-65027985D01*
X120432817Y-65090969D01*
X120502059Y-65150558D01*
X120573240Y-65206668D01*
X120646275Y-65259216D01*
X120721078Y-65308117D01*
X120797563Y-65353288D01*
X120875644Y-65394645D01*
X120955235Y-65432103D01*
X121036251Y-65465580D01*
X121118605Y-65494991D01*
X121202211Y-65520252D01*
X121286985Y-65541280D01*
X121372840Y-65557991D01*
X121459689Y-65570300D01*
X121547449Y-65578124D01*
X121636031Y-65581379D01*
X121721196Y-65578960D01*
X121805650Y-65572305D01*
X121889314Y-65561486D01*
X121972110Y-65546576D01*
X122053959Y-65527647D01*
X122134782Y-65504770D01*
X122214501Y-65478019D01*
X122293038Y-65447464D01*
X122370314Y-65413179D01*
X122446249Y-65375235D01*
X122520767Y-65333705D01*
X122593787Y-65288660D01*
X122665232Y-65240173D01*
X122735023Y-65188316D01*
X122869328Y-65074780D01*
X122996075Y-64948629D01*
X123114634Y-64810440D01*
X123224377Y-64660790D01*
X123324675Y-64500256D01*
X123414900Y-64329415D01*
X123494423Y-64148845D01*
X123562616Y-63959121D01*
X123618850Y-63760823D01*
X123909270Y-63258015D01*
X123922735Y-63235990D01*
X123937132Y-63214905D01*
X123952418Y-63194770D01*
X123968552Y-63175596D01*
X123985490Y-63157396D01*
X124003191Y-63140180D01*
X124021612Y-63123960D01*
X124040712Y-63108746D01*
X124060446Y-63094551D01*
X124080775Y-63081385D01*
X124101654Y-63069261D01*
X124123041Y-63058188D01*
X124144896Y-63048178D01*
X124167174Y-63039244D01*
X124189833Y-63031395D01*
X124212832Y-63024643D01*
X124236128Y-63019000D01*
X124259679Y-63014477D01*
X124283442Y-63011085D01*
X124307375Y-63008836D01*
X124331436Y-63007740D01*
X124355583Y-63007809D01*
M02*
