%TF.GenerationSoftware,KiCad,Pcbnew,7.0.9-7.0.9~ubuntu22.04.1*%
%TF.CreationDate,2023-12-17T21:41:32+01:00*%
%TF.ProjectId,StarPCB,53746172-5043-4422-9e6b-696361645f70,rev?*%
%TF.SameCoordinates,Original*%
%TF.FileFunction,Profile,NP*%
%FSLAX46Y46*%
G04 Gerber Fmt 4.6, Leading zero omitted, Abs format (unit mm)*
G04 Created by KiCad (PCBNEW 7.0.9-7.0.9~ubuntu22.04.1) date 2023-12-17 21:41:32*
%MOMM*%
%LPD*%
G01*
G04 APERTURE LIST*
%TA.AperFunction,Profile*%
%ADD10C,0.200000*%
%TD*%
G04 APERTURE END LIST*
D10*
X128235272Y-65006802D02*
X128237393Y-65575237D01*
X128145807Y-65657599D01*
X128059243Y-65744133D01*
X127977808Y-65834617D01*
X127901609Y-65928824D01*
X127830751Y-66026532D01*
X127765342Y-66127515D01*
X127705488Y-66231550D01*
X127651295Y-66338411D01*
X127602870Y-66447875D01*
X127560319Y-66559718D01*
X127523749Y-66673714D01*
X127493267Y-66789640D01*
X127468978Y-66907272D01*
X127450989Y-67026384D01*
X127439407Y-67146753D01*
X127434338Y-67268154D01*
X127437398Y-67386086D01*
X127446474Y-67502470D01*
X127461419Y-67617162D01*
X127482085Y-67730018D01*
X127508324Y-67840894D01*
X127539988Y-67949646D01*
X127576930Y-68056130D01*
X127619003Y-68160202D01*
X127666059Y-68261719D01*
X127717950Y-68360535D01*
X127774528Y-68456508D01*
X127835646Y-68549493D01*
X127901157Y-68639345D01*
X127970912Y-68725923D01*
X128044765Y-68809080D01*
X128122567Y-68888673D01*
X128204170Y-68964559D01*
X128289428Y-69036593D01*
X128378193Y-69104632D01*
X128470317Y-69168530D01*
X128565652Y-69228145D01*
X128664050Y-69283333D01*
X128765365Y-69333948D01*
X128869449Y-69379848D01*
X128976153Y-69420889D01*
X129085331Y-69456926D01*
X129196834Y-69487815D01*
X129310515Y-69513413D01*
X129426227Y-69533575D01*
X129543822Y-69548158D01*
X129663152Y-69557017D01*
X129784070Y-69560009D01*
X129834433Y-69558865D01*
X129884719Y-69556670D01*
X129934911Y-69553429D01*
X129984991Y-69549143D01*
X130034942Y-69543817D01*
X130084748Y-69537452D01*
X130134392Y-69530053D01*
X130183857Y-69521621D01*
X130233126Y-69512161D01*
X130282183Y-69501675D01*
X130331009Y-69490166D01*
X130379589Y-69477637D01*
X130427905Y-69464091D01*
X130475940Y-69449532D01*
X130523679Y-69433962D01*
X130571103Y-69417385D01*
X131126095Y-69769298D01*
X131171063Y-70097439D01*
X131233075Y-74551433D01*
X130886837Y-74894054D01*
X130815748Y-74875070D01*
X130744137Y-74858282D01*
X130672056Y-74843698D01*
X130599558Y-74831327D01*
X130526697Y-74821176D01*
X130453523Y-74813255D01*
X130380092Y-74807571D01*
X130306454Y-74804134D01*
X130189918Y-74806937D01*
X130074173Y-74815323D01*
X129959412Y-74829214D01*
X129845827Y-74848533D01*
X129733610Y-74873200D01*
X129622955Y-74903140D01*
X129514054Y-74938272D01*
X129407099Y-74978521D01*
X129302284Y-75023807D01*
X129199800Y-75074052D01*
X129099841Y-75129180D01*
X129002598Y-75189112D01*
X128908265Y-75253770D01*
X128817034Y-75323076D01*
X128729099Y-75396953D01*
X128644650Y-75475322D01*
X128564286Y-75557678D01*
X128488527Y-75643436D01*
X128417455Y-75732408D01*
X128351148Y-75824407D01*
X128289687Y-75919243D01*
X128233152Y-76016729D01*
X128181621Y-76116678D01*
X128135176Y-76218900D01*
X128093896Y-76323208D01*
X128057861Y-76429414D01*
X128027150Y-76537330D01*
X128001845Y-76646767D01*
X127982023Y-76757538D01*
X127967766Y-76869455D01*
X127959154Y-76982329D01*
X127956265Y-77095973D01*
X127958033Y-77168210D01*
X127962110Y-77240078D01*
X127968471Y-77311535D01*
X127977091Y-77382535D01*
X128001005Y-77522986D01*
X128033652Y-77661074D01*
X128074830Y-77796442D01*
X128124337Y-77928733D01*
X128181973Y-78057590D01*
X128247534Y-78182656D01*
X128320821Y-78303575D01*
X128401631Y-78419988D01*
X128489763Y-78531540D01*
X128585016Y-78637872D01*
X128687187Y-78738629D01*
X128796076Y-78833452D01*
X128911481Y-78921985D01*
X128971563Y-78963781D01*
X129033200Y-79003871D01*
X124759565Y-81786647D01*
X124278974Y-81358775D01*
X124231291Y-81227246D01*
X124175889Y-81099621D01*
X124113038Y-80976162D01*
X124043005Y-80857130D01*
X123966062Y-80742785D01*
X123882477Y-80633388D01*
X123792519Y-80529200D01*
X123696458Y-80430482D01*
X123594563Y-80337494D01*
X123487104Y-80250498D01*
X123374349Y-80169753D01*
X123256567Y-80095521D01*
X123134030Y-80028063D01*
X123007004Y-79967639D01*
X122875760Y-79914511D01*
X122740568Y-79868938D01*
X122695097Y-79836375D01*
X122210889Y-79755244D01*
X122094099Y-79769191D01*
X122080941Y-79767017D01*
X122067768Y-79764915D01*
X122054580Y-79762887D01*
X122041379Y-79760936D01*
X121935634Y-79764529D01*
X121831004Y-79772643D01*
X121727600Y-79785188D01*
X121625531Y-79802072D01*
X121524907Y-79823203D01*
X121425837Y-79848491D01*
X121328431Y-79877844D01*
X121232799Y-79911170D01*
X121139049Y-79948379D01*
X121047293Y-79989379D01*
X120957639Y-80034079D01*
X120870198Y-80082387D01*
X120785078Y-80134212D01*
X120702389Y-80189464D01*
X120622241Y-80248049D01*
X120544744Y-80309879D01*
X120470007Y-80374860D01*
X120398140Y-80442901D01*
X120329252Y-80513912D01*
X120263453Y-80587801D01*
X120200853Y-80664477D01*
X120141561Y-80743848D01*
X120085687Y-80825824D01*
X120033340Y-80910312D01*
X119984631Y-80997221D01*
X119939668Y-81086461D01*
X119898562Y-81177940D01*
X119861422Y-81271566D01*
X119828357Y-81367249D01*
X119799478Y-81464896D01*
X119774893Y-81564418D01*
X119754713Y-81665721D01*
X119488569Y-82255870D01*
X118153776Y-81707072D01*
X114627882Y-79779018D01*
X114602301Y-79711761D01*
X114578470Y-79644929D01*
X114566169Y-79608240D01*
X114554518Y-79571284D01*
X114656187Y-79487954D01*
X114752337Y-79399675D01*
X114842834Y-79306714D01*
X114927542Y-79209341D01*
X115006330Y-79107822D01*
X115079062Y-79002426D01*
X115145605Y-78893420D01*
X115205824Y-78781072D01*
X115259586Y-78665650D01*
X115306757Y-78547422D01*
X115347202Y-78426656D01*
X115380788Y-78303619D01*
X115407381Y-78178579D01*
X115426847Y-78051805D01*
X115439052Y-77923564D01*
X115443861Y-77794124D01*
X115439005Y-77681630D01*
X115428549Y-77569982D01*
X115412572Y-77459360D01*
X115391155Y-77349947D01*
X115364378Y-77241923D01*
X115332321Y-77135471D01*
X115295064Y-77030773D01*
X115252688Y-76928008D01*
X115205272Y-76827360D01*
X115152897Y-76729009D01*
X115095643Y-76633138D01*
X115033591Y-76539927D01*
X114966819Y-76449559D01*
X114895410Y-76362214D01*
X114819442Y-76278075D01*
X114738997Y-76197322D01*
X114730742Y-76185435D01*
X114724562Y-76182796D01*
X114641890Y-76105091D01*
X114555799Y-76031718D01*
X114466471Y-75962753D01*
X114374091Y-75898274D01*
X114278842Y-75838356D01*
X114180906Y-75783076D01*
X114080468Y-75732510D01*
X113977711Y-75686736D01*
X113872818Y-75645830D01*
X113765972Y-75609868D01*
X113657357Y-75578926D01*
X113547156Y-75553082D01*
X113435552Y-75532411D01*
X113322730Y-75516991D01*
X113208871Y-75506898D01*
X113094160Y-75502208D01*
X113020543Y-75505100D01*
X112947181Y-75510231D01*
X112874126Y-75517586D01*
X112801431Y-75527151D01*
X112729146Y-75538912D01*
X112657324Y-75552855D01*
X112586015Y-75568966D01*
X112515273Y-75587230D01*
X112445147Y-75607633D01*
X112375691Y-75630162D01*
X112306955Y-75654802D01*
X112238991Y-75681538D01*
X112171851Y-75710357D01*
X112105586Y-75741245D01*
X112040248Y-75774187D01*
X111975890Y-75809169D01*
X111789854Y-75809703D01*
X111782637Y-73967433D01*
X111840507Y-73956089D01*
X111897524Y-73943218D01*
X111953617Y-73928842D01*
X112008715Y-73912984D01*
X112062747Y-73895665D01*
X112115643Y-73876905D01*
X112167331Y-73856728D01*
X112217741Y-73835155D01*
X112235854Y-73833568D01*
X112246718Y-73822185D01*
X112315770Y-73787919D01*
X112381116Y-73751292D01*
X112442656Y-73712432D01*
X112500286Y-73671467D01*
X112553904Y-73628526D01*
X112603410Y-73583738D01*
X112648699Y-73537232D01*
X112689671Y-73489135D01*
X112726223Y-73439576D01*
X112758253Y-73388685D01*
X112772541Y-73362779D01*
X112785660Y-73336589D01*
X112797597Y-73310129D01*
X112808340Y-73283417D01*
X112817876Y-73256468D01*
X112826193Y-73229298D01*
X112833276Y-73201923D01*
X112839115Y-73174359D01*
X112843695Y-73146624D01*
X112847005Y-73118731D01*
X112849031Y-73090698D01*
X112849760Y-73062541D01*
X112847032Y-73019334D01*
X112841311Y-72976613D01*
X112832659Y-72934426D01*
X112821141Y-72892818D01*
X112806818Y-72851834D01*
X112789754Y-72811521D01*
X112770013Y-72771925D01*
X112747657Y-72733091D01*
X112722750Y-72695065D01*
X112695354Y-72657893D01*
X112633351Y-72586293D01*
X112562153Y-72518659D01*
X112482264Y-72455358D01*
X112394190Y-72396755D01*
X112298437Y-72343217D01*
X112195508Y-72295111D01*
X112085910Y-72252804D01*
X111970148Y-72216661D01*
X111848726Y-72187051D01*
X111722150Y-72164338D01*
X111590926Y-72148891D01*
X111596083Y-70086498D01*
X111951613Y-69990886D01*
X112002880Y-70011199D01*
X112054573Y-70030311D01*
X112106670Y-70048217D01*
X112159148Y-70064914D01*
X112211986Y-70080395D01*
X112265161Y-70094658D01*
X112318651Y-70107696D01*
X112372433Y-70119505D01*
X112426485Y-70130080D01*
X112480786Y-70139417D01*
X112535312Y-70147511D01*
X112590041Y-70154357D01*
X112644951Y-70159951D01*
X112700020Y-70164288D01*
X112755226Y-70167362D01*
X112810545Y-70169170D01*
X112927078Y-70166364D01*
X113042821Y-70157976D01*
X113157580Y-70144084D01*
X113271164Y-70124765D01*
X113383379Y-70100097D01*
X113494033Y-70070157D01*
X113602933Y-70035025D01*
X113709887Y-69994777D01*
X113814702Y-69949492D01*
X113917185Y-69899247D01*
X114017144Y-69844120D01*
X114114386Y-69784189D01*
X114208719Y-69719532D01*
X114299950Y-69650227D01*
X114387886Y-69576351D01*
X114472334Y-69497982D01*
X114552701Y-69415626D01*
X114628461Y-69329868D01*
X114699535Y-69240895D01*
X114765842Y-69148897D01*
X114827304Y-69054061D01*
X114883839Y-68956574D01*
X114935369Y-68856626D01*
X114981814Y-68754404D01*
X115023093Y-68650096D01*
X115059127Y-68543890D01*
X115089837Y-68435974D01*
X115115142Y-68326537D01*
X115134962Y-68215765D01*
X115149218Y-68103849D01*
X115157831Y-67990974D01*
X115160719Y-67877330D01*
X115159088Y-67805838D01*
X115155193Y-67734699D01*
X115140712Y-67593654D01*
X115117470Y-67454542D01*
X115085660Y-67317713D01*
X115045475Y-67183512D01*
X114997108Y-67052288D01*
X114940754Y-66924390D01*
X114876604Y-66800163D01*
X114804854Y-66679957D01*
X114725695Y-66564118D01*
X114639322Y-66452995D01*
X114545927Y-66346935D01*
X114445704Y-66246286D01*
X114338847Y-66151396D01*
X114225548Y-66062612D01*
X114106001Y-65980282D01*
X114103674Y-65922827D01*
X114100840Y-65867916D01*
X114097401Y-65816974D01*
X114095425Y-65793439D01*
X114093262Y-65771431D01*
X114090899Y-65751129D01*
X114088325Y-65732712D01*
X114085528Y-65716359D01*
X114082494Y-65702246D01*
X114079213Y-65690554D01*
X114075672Y-65681459D01*
X114073801Y-65677942D01*
X114071859Y-65675142D01*
X114069847Y-65673080D01*
X114067763Y-65671780D01*
X114102392Y-65640532D01*
X114218628Y-65560136D01*
X114649646Y-65280137D01*
X115981951Y-64440987D01*
X117936262Y-63227474D01*
X118714506Y-63216091D01*
X118786345Y-63314800D01*
X118779977Y-63344858D01*
X118774026Y-63374991D01*
X118768490Y-63405196D01*
X118763371Y-63435469D01*
X118758668Y-63465805D01*
X118754383Y-63496201D01*
X118750517Y-63526653D01*
X118747068Y-63557156D01*
X118750129Y-63675088D01*
X118759205Y-63791472D01*
X118774149Y-63906164D01*
X118794815Y-64019020D01*
X118821054Y-64129896D01*
X118852719Y-64238648D01*
X118889661Y-64345132D01*
X118931734Y-64449204D01*
X118978791Y-64550721D01*
X119030682Y-64649537D01*
X119087261Y-64745510D01*
X119148380Y-64838494D01*
X119213891Y-64928347D01*
X119283648Y-65014924D01*
X119357501Y-65098082D01*
X119435304Y-65177675D01*
X119516910Y-65253561D01*
X119602169Y-65325595D01*
X119690936Y-65393633D01*
X119783061Y-65457532D01*
X119878399Y-65517147D01*
X119976800Y-65572334D01*
X120078118Y-65622950D01*
X120182204Y-65668850D01*
X120288912Y-65709891D01*
X120398093Y-65745927D01*
X120509601Y-65776817D01*
X120623286Y-65802415D01*
X120739003Y-65822577D01*
X120856602Y-65837159D01*
X120975937Y-65846019D01*
X121096860Y-65849010D01*
X121217776Y-65846016D01*
X121337105Y-65837154D01*
X121454698Y-65822568D01*
X121570408Y-65802403D01*
X121684088Y-65776803D01*
X121795589Y-65745911D01*
X121904765Y-65709871D01*
X122011467Y-65668829D01*
X122115549Y-65622926D01*
X122216861Y-65572309D01*
X122315258Y-65517119D01*
X122410591Y-65457503D01*
X122502712Y-65393602D01*
X122591474Y-65325563D01*
X122676730Y-65253528D01*
X122758331Y-65177641D01*
X122836130Y-65098047D01*
X122909980Y-65014889D01*
X122979733Y-64928312D01*
X123045241Y-64838459D01*
X123106356Y-64745475D01*
X123162932Y-64649504D01*
X123214820Y-64550689D01*
X123261873Y-64449174D01*
X123303943Y-64345104D01*
X123340883Y-64238623D01*
X123372544Y-64129874D01*
X123398780Y-64019001D01*
X123419443Y-63906149D01*
X123434385Y-63791461D01*
X123443458Y-63675082D01*
X123446516Y-63557156D01*
X123443992Y-63540198D01*
X123441343Y-63523266D01*
X123438568Y-63506357D01*
X123435667Y-63489468D01*
X123542112Y-63194912D01*
X124548261Y-63032131D01*
X128235272Y-65006802D01*
M02*
