%TF.GenerationSoftware,KiCad,Pcbnew,7.0.9-7.0.9~ubuntu22.04.1*%
%TF.CreationDate,2023-12-19T20:01:32+01:00*%
%TF.ProjectId,StarPCB,53746172-5043-4422-9e6b-696361645f70,rev?*%
%TF.SameCoordinates,Original*%
%TF.FileFunction,Legend,Top*%
%TF.FilePolarity,Positive*%
%FSLAX46Y46*%
G04 Gerber Fmt 4.6, Leading zero omitted, Abs format (unit mm)*
G04 Created by KiCad (PCBNEW 7.0.9-7.0.9~ubuntu22.04.1) date 2023-12-19 20:01:32*
%MOMM*%
%LPD*%
G01*
G04 APERTURE LIST*
%ADD10C,0.300000*%
%ADD11C,0.150000*%
%ADD12C,0.120000*%
G04 APERTURE END LIST*
D10*
X125522510Y-70349400D02*
X126665368Y-70349400D01*
X126093939Y-70920828D02*
X126093939Y-69777971D01*
X115616510Y-70603400D02*
X116759368Y-70603400D01*
D11*
X123839152Y-66929494D02*
X124498981Y-67310446D01*
X123978591Y-67449885D02*
X124359543Y-66790056D01*
X116513054Y-68328456D02*
X116809803Y-67365355D01*
X116809803Y-67365355D02*
X117044281Y-67406699D01*
X117044281Y-67406699D02*
X117170837Y-67477368D01*
X117170837Y-67477368D02*
X117236366Y-67585630D01*
X117236366Y-67585630D02*
X117255000Y-67685623D01*
X117255000Y-67685623D02*
X117245372Y-67877340D01*
X117245372Y-67877340D02*
X117202979Y-68014926D01*
X117202979Y-68014926D02*
X117099560Y-68190105D01*
X117099560Y-68190105D02*
X117024402Y-68273560D01*
X117024402Y-68273560D02*
X116902349Y-68348746D01*
X116902349Y-68348746D02*
X116747532Y-68369801D01*
X116747532Y-68369801D02*
X116513054Y-68328456D01*
X118013713Y-68593063D02*
X117450966Y-68493836D01*
X117732339Y-68543449D02*
X118029089Y-67580348D01*
X118029089Y-67580348D02*
X117892905Y-67701396D01*
X117892905Y-67701396D02*
X117770852Y-67776582D01*
X117770852Y-67776582D02*
X117662929Y-67805906D01*
X121151714Y-78432819D02*
X120770762Y-78432819D01*
X120770762Y-78432819D02*
X120770762Y-77432819D01*
X121418381Y-77909009D02*
X121685047Y-77909009D01*
X121799333Y-78432819D02*
X121418381Y-78432819D01*
X121418381Y-78432819D02*
X121418381Y-77432819D01*
X121418381Y-77432819D02*
X121799333Y-77432819D01*
X122142191Y-78432819D02*
X122142191Y-77432819D01*
X122142191Y-77432819D02*
X122332667Y-77432819D01*
X122332667Y-77432819D02*
X122446953Y-77480438D01*
X122446953Y-77480438D02*
X122523143Y-77575676D01*
X122523143Y-77575676D02*
X122561238Y-77670914D01*
X122561238Y-77670914D02*
X122599334Y-77861390D01*
X122599334Y-77861390D02*
X122599334Y-78004247D01*
X122599334Y-78004247D02*
X122561238Y-78194723D01*
X122561238Y-78194723D02*
X122523143Y-78289961D01*
X122523143Y-78289961D02*
X122446953Y-78385200D01*
X122446953Y-78385200D02*
X122332667Y-78432819D01*
X122332667Y-78432819D02*
X122142191Y-78432819D01*
X117743152Y-77851494D02*
X118402981Y-78232446D01*
X118325019Y-67310446D02*
X118984848Y-66929493D01*
X123913019Y-78232446D02*
X124572848Y-77851493D01*
X124433410Y-78371884D02*
X124052457Y-77712055D01*
D12*
%TO.C,D1*%
X113558465Y-71085464D02*
X113051239Y-73962087D01*
X113051239Y-73962087D02*
X117803921Y-74800113D01*
X117310583Y-71747063D02*
X113558465Y-71085464D01*
X125966000Y-72644000D02*
G75*
G03*
X125966000Y-72644000I-4300000J0D01*
G01*
%TD*%
M02*
