%TF.GenerationSoftware,KiCad,Pcbnew,7.0.9-7.0.9~ubuntu22.04.1*%
%TF.CreationDate,2023-12-17T21:41:29+01:00*%
%TF.ProjectId,StarPCB,53746172-5043-4422-9e6b-696361645f70,rev?*%
%TF.SameCoordinates,Original*%
%TF.FileFunction,Drillmap*%
%TF.FilePolarity,Positive*%
%FSLAX45Y45*%
G04 Gerber Fmt 4.5, Leading zero omitted, Abs format (unit mm)*
G04 Created by KiCad (PCBNEW 7.0.9-7.0.9~ubuntu22.04.1) date 2023-12-17 21:41:29*
%MOMM*%
%LPD*%
G01*
G04 APERTURE LIST*
%ADD10C,0.200000*%
G04 APERTURE END LIST*
D10*
X12823527Y-6500680D02*
X12823739Y-6557524D01*
X12814581Y-6565760D01*
X12805924Y-6574413D01*
X12797781Y-6583462D01*
X12790161Y-6592882D01*
X12783075Y-6602653D01*
X12776534Y-6612751D01*
X12770549Y-6623155D01*
X12765129Y-6633841D01*
X12760287Y-6644787D01*
X12756032Y-6655972D01*
X12752375Y-6667371D01*
X12749327Y-6678964D01*
X12746898Y-6690727D01*
X12745099Y-6702638D01*
X12743941Y-6714675D01*
X12743434Y-6726815D01*
X12743740Y-6738609D01*
X12744647Y-6750247D01*
X12746142Y-6761716D01*
X12748208Y-6773002D01*
X12750832Y-6784089D01*
X12753999Y-6794965D01*
X12757693Y-6805613D01*
X12761900Y-6816020D01*
X12766606Y-6826172D01*
X12771795Y-6836053D01*
X12777453Y-6845651D01*
X12783565Y-6854949D01*
X12790116Y-6863934D01*
X12797091Y-6872592D01*
X12804476Y-6880908D01*
X12812257Y-6888867D01*
X12820417Y-6896456D01*
X12828943Y-6903659D01*
X12837819Y-6910463D01*
X12847032Y-6916853D01*
X12856565Y-6922814D01*
X12866405Y-6928333D01*
X12876536Y-6933395D01*
X12886945Y-6937985D01*
X12897615Y-6942089D01*
X12908533Y-6945693D01*
X12919683Y-6948781D01*
X12931051Y-6951341D01*
X12942623Y-6953357D01*
X12954382Y-6954816D01*
X12966315Y-6955702D01*
X12978407Y-6956001D01*
X12983443Y-6955886D01*
X12988472Y-6955667D01*
X12993491Y-6955343D01*
X12998499Y-6954914D01*
X13003494Y-6954382D01*
X13008475Y-6953745D01*
X13013439Y-6953005D01*
X13018386Y-6952162D01*
X13023313Y-6951216D01*
X13028218Y-6950167D01*
X13033101Y-6949017D01*
X13037959Y-6947764D01*
X13042790Y-6946409D01*
X13047594Y-6944953D01*
X13052368Y-6943396D01*
X13057110Y-6941738D01*
X13112609Y-6976930D01*
X13117106Y-7009744D01*
X13123307Y-7455143D01*
X13088684Y-7489405D01*
X13081575Y-7487507D01*
X13074414Y-7485828D01*
X13067206Y-7484370D01*
X13059956Y-7483133D01*
X13052670Y-7482118D01*
X13045352Y-7481325D01*
X13038009Y-7480757D01*
X13030645Y-7480413D01*
X13018992Y-7480694D01*
X13007417Y-7481532D01*
X12995941Y-7482921D01*
X12984583Y-7484853D01*
X12973361Y-7487320D01*
X12962295Y-7490314D01*
X12951405Y-7493827D01*
X12940710Y-7497852D01*
X12930228Y-7502381D01*
X12919980Y-7507405D01*
X12909984Y-7512918D01*
X12900260Y-7518911D01*
X12890826Y-7525377D01*
X12881703Y-7532308D01*
X12872910Y-7539695D01*
X12864465Y-7547532D01*
X12856429Y-7555768D01*
X12848853Y-7564344D01*
X12841745Y-7573241D01*
X12835115Y-7582441D01*
X12828969Y-7591924D01*
X12823315Y-7601673D01*
X12818162Y-7611668D01*
X12813518Y-7621890D01*
X12809390Y-7632321D01*
X12805786Y-7642941D01*
X12802715Y-7653733D01*
X12800184Y-7664677D01*
X12798202Y-7675754D01*
X12796777Y-7686945D01*
X12795915Y-7698233D01*
X12795626Y-7709597D01*
X12795803Y-7716821D01*
X12796211Y-7724008D01*
X12796847Y-7731153D01*
X12797709Y-7738253D01*
X12800100Y-7752299D01*
X12803365Y-7766107D01*
X12807483Y-7779644D01*
X12812434Y-7792873D01*
X12818197Y-7805759D01*
X12824753Y-7818266D01*
X12832082Y-7830357D01*
X12840163Y-7841999D01*
X12848976Y-7853154D01*
X12858502Y-7863787D01*
X12868719Y-7873863D01*
X12879608Y-7883345D01*
X12891148Y-7892198D01*
X12897156Y-7896378D01*
X12903320Y-7900387D01*
X12475956Y-8178665D01*
X12427897Y-8135877D01*
X12423129Y-8122725D01*
X12417589Y-8109962D01*
X12411304Y-8097616D01*
X12404300Y-8085713D01*
X12396606Y-8074278D01*
X12388248Y-8063339D01*
X12379252Y-8052920D01*
X12369646Y-8043048D01*
X12359456Y-8033749D01*
X12348710Y-8025050D01*
X12337435Y-8016975D01*
X12325657Y-8009552D01*
X12313403Y-8002806D01*
X12300700Y-7996764D01*
X12287576Y-7991451D01*
X12274057Y-7986894D01*
X12269510Y-7983637D01*
X12221089Y-7975524D01*
X12209410Y-7976919D01*
X12208094Y-7976702D01*
X12206777Y-7976491D01*
X12205458Y-7976289D01*
X12204138Y-7976094D01*
X12193563Y-7976453D01*
X12183100Y-7977264D01*
X12172760Y-7978519D01*
X12162553Y-7980207D01*
X12152491Y-7982320D01*
X12142584Y-7984849D01*
X12132843Y-7987784D01*
X12123280Y-7991117D01*
X12113905Y-7994838D01*
X12104729Y-7998938D01*
X12095764Y-8003408D01*
X12087020Y-8008239D01*
X12078508Y-8013421D01*
X12070239Y-8018946D01*
X12062224Y-8024805D01*
X12054474Y-8030988D01*
X12047001Y-8037486D01*
X12039814Y-8044290D01*
X12032925Y-8051391D01*
X12026345Y-8058780D01*
X12020085Y-8066448D01*
X12014156Y-8074385D01*
X12008569Y-8082582D01*
X12003334Y-8091031D01*
X11998463Y-8099722D01*
X11993967Y-8108646D01*
X11989856Y-8117794D01*
X11986142Y-8127157D01*
X11982836Y-8136725D01*
X11979948Y-8146490D01*
X11977489Y-8156442D01*
X11975471Y-8166572D01*
X11948857Y-8225587D01*
X11815378Y-8170707D01*
X11462788Y-7977902D01*
X11460230Y-7971176D01*
X11457847Y-7964493D01*
X11456617Y-7960824D01*
X11455452Y-7957128D01*
X11465619Y-7948795D01*
X11475234Y-7939967D01*
X11484283Y-7930671D01*
X11492754Y-7920934D01*
X11500633Y-7910782D01*
X11507906Y-7900243D01*
X11514560Y-7889342D01*
X11520582Y-7878107D01*
X11525959Y-7866565D01*
X11530676Y-7854742D01*
X11534720Y-7842666D01*
X11538079Y-7830362D01*
X11540738Y-7817858D01*
X11542685Y-7805180D01*
X11543905Y-7792356D01*
X11544386Y-7779412D01*
X11543900Y-7768163D01*
X11542855Y-7756998D01*
X11541257Y-7745936D01*
X11539115Y-7734995D01*
X11536438Y-7724192D01*
X11533232Y-7713547D01*
X11529506Y-7703077D01*
X11525269Y-7692801D01*
X11520527Y-7682736D01*
X11515290Y-7672901D01*
X11509564Y-7663314D01*
X11503359Y-7653993D01*
X11496682Y-7644956D01*
X11489541Y-7636221D01*
X11481944Y-7627807D01*
X11473900Y-7619732D01*
X11473074Y-7618543D01*
X11472456Y-7618280D01*
X11464189Y-7610509D01*
X11455580Y-7603172D01*
X11446647Y-7596275D01*
X11437409Y-7589827D01*
X11427884Y-7583836D01*
X11418091Y-7578308D01*
X11408047Y-7573251D01*
X11397771Y-7568674D01*
X11387282Y-7564583D01*
X11376597Y-7560987D01*
X11365736Y-7557893D01*
X11354716Y-7555308D01*
X11343555Y-7553241D01*
X11332273Y-7551699D01*
X11320887Y-7550690D01*
X11309416Y-7550221D01*
X11302054Y-7550510D01*
X11294718Y-7551023D01*
X11287413Y-7551759D01*
X11280143Y-7552715D01*
X11272915Y-7553891D01*
X11265732Y-7555285D01*
X11258601Y-7556897D01*
X11251527Y-7558723D01*
X11244515Y-7560763D01*
X11237569Y-7563016D01*
X11230695Y-7565480D01*
X11223899Y-7568154D01*
X11217185Y-7571036D01*
X11210559Y-7574124D01*
X11204025Y-7577419D01*
X11197589Y-7580917D01*
X11178985Y-7580970D01*
X11178264Y-7396743D01*
X11184051Y-7395609D01*
X11189752Y-7394322D01*
X11195362Y-7392884D01*
X11200871Y-7391298D01*
X11206275Y-7389566D01*
X11211564Y-7387690D01*
X11216733Y-7385673D01*
X11221774Y-7383515D01*
X11223585Y-7383357D01*
X11224672Y-7382218D01*
X11231577Y-7378792D01*
X11238112Y-7375129D01*
X11244266Y-7371243D01*
X11250029Y-7367147D01*
X11255390Y-7362853D01*
X11260341Y-7358374D01*
X11264870Y-7353723D01*
X11268967Y-7348913D01*
X11272622Y-7343958D01*
X11275825Y-7338868D01*
X11277254Y-7336278D01*
X11278566Y-7333659D01*
X11279760Y-7331013D01*
X11280834Y-7328342D01*
X11281788Y-7325647D01*
X11282619Y-7322930D01*
X11283328Y-7320192D01*
X11283911Y-7317436D01*
X11284369Y-7314662D01*
X11284700Y-7311873D01*
X11284903Y-7309070D01*
X11284976Y-7306254D01*
X11284703Y-7301933D01*
X11284131Y-7297661D01*
X11283266Y-7293443D01*
X11282114Y-7289282D01*
X11280682Y-7285183D01*
X11278975Y-7281152D01*
X11277001Y-7277192D01*
X11274766Y-7273309D01*
X11272275Y-7269506D01*
X11269535Y-7265789D01*
X11263335Y-7258629D01*
X11256215Y-7251866D01*
X11248226Y-7245536D01*
X11239419Y-7239675D01*
X11229844Y-7234322D01*
X11219551Y-7229511D01*
X11208591Y-7225280D01*
X11197015Y-7221666D01*
X11184873Y-7218705D01*
X11172215Y-7216434D01*
X11159093Y-7214889D01*
X11159608Y-7008650D01*
X11195161Y-6999089D01*
X11200288Y-7001120D01*
X11205457Y-7003031D01*
X11210667Y-7004822D01*
X11215915Y-7006491D01*
X11221199Y-7008039D01*
X11226516Y-7009466D01*
X11231865Y-7010770D01*
X11237243Y-7011950D01*
X11242648Y-7013008D01*
X11248079Y-7013942D01*
X11253531Y-7014751D01*
X11259004Y-7015436D01*
X11264495Y-7015995D01*
X11270002Y-7016429D01*
X11275523Y-7016736D01*
X11281054Y-7016917D01*
X11292708Y-7016636D01*
X11304282Y-7015798D01*
X11315758Y-7014408D01*
X11327116Y-7012476D01*
X11338338Y-7010010D01*
X11349403Y-7007016D01*
X11360293Y-7003502D01*
X11370989Y-6999478D01*
X11381470Y-6994949D01*
X11391718Y-6989925D01*
X11401714Y-6984412D01*
X11411439Y-6978419D01*
X11420872Y-6971953D01*
X11429995Y-6965023D01*
X11438789Y-6957635D01*
X11447233Y-6949798D01*
X11455270Y-6941563D01*
X11462846Y-6932987D01*
X11469953Y-6924089D01*
X11476584Y-6914890D01*
X11482730Y-6905406D01*
X11488384Y-6895657D01*
X11493537Y-6885663D01*
X11498181Y-6875440D01*
X11502309Y-6865010D01*
X11505913Y-6854389D01*
X11508984Y-6843597D01*
X11511514Y-6832654D01*
X11513496Y-6821576D01*
X11514922Y-6810385D01*
X11515783Y-6799097D01*
X11516072Y-6787733D01*
X11515909Y-6780584D01*
X11515519Y-6773470D01*
X11514071Y-6759365D01*
X11511747Y-6745454D01*
X11508566Y-6731771D01*
X11504547Y-6718351D01*
X11499711Y-6705229D01*
X11494075Y-6692439D01*
X11487660Y-6680016D01*
X11480485Y-6667996D01*
X11472569Y-6656412D01*
X11463932Y-6645299D01*
X11454593Y-6634693D01*
X11444570Y-6624629D01*
X11433885Y-6615140D01*
X11422555Y-6606261D01*
X11410600Y-6598028D01*
X11410367Y-6592283D01*
X11410084Y-6586792D01*
X11409740Y-6581697D01*
X11409542Y-6579344D01*
X11409326Y-6577143D01*
X11409090Y-6575113D01*
X11408832Y-6573271D01*
X11408553Y-6571636D01*
X11408249Y-6570225D01*
X11407921Y-6569055D01*
X11407567Y-6568146D01*
X11407380Y-6567794D01*
X11407186Y-6567514D01*
X11406985Y-6567308D01*
X11406776Y-6567178D01*
X11410239Y-6564053D01*
X11421863Y-6556014D01*
X11464965Y-6528014D01*
X11598195Y-6444099D01*
X11793626Y-6322747D01*
X11871451Y-6321609D01*
X11878634Y-6331480D01*
X11877998Y-6334486D01*
X11877403Y-6337499D01*
X11876849Y-6340520D01*
X11876337Y-6343547D01*
X11875867Y-6346580D01*
X11875438Y-6349620D01*
X11875052Y-6352665D01*
X11874707Y-6355716D01*
X11875013Y-6367509D01*
X11875920Y-6379147D01*
X11877415Y-6390616D01*
X11879481Y-6401902D01*
X11882105Y-6412990D01*
X11885272Y-6423865D01*
X11888966Y-6434513D01*
X11893173Y-6444920D01*
X11897879Y-6455072D01*
X11903068Y-6464954D01*
X11908726Y-6474551D01*
X11914838Y-6483849D01*
X11921389Y-6492835D01*
X11928365Y-6501492D01*
X11935750Y-6509808D01*
X11943530Y-6517767D01*
X11951691Y-6525356D01*
X11960217Y-6532559D01*
X11969094Y-6539363D01*
X11978306Y-6545753D01*
X11987840Y-6551715D01*
X11997680Y-6557233D01*
X12007812Y-6562295D01*
X12018220Y-6566885D01*
X12028891Y-6570989D01*
X12039809Y-6574593D01*
X12050960Y-6577682D01*
X12062329Y-6580241D01*
X12073900Y-6582258D01*
X12085660Y-6583716D01*
X12097594Y-6584602D01*
X12109686Y-6584901D01*
X12121778Y-6584602D01*
X12133710Y-6583715D01*
X12145470Y-6582257D01*
X12157041Y-6580240D01*
X12168409Y-6577680D01*
X12179559Y-6574591D01*
X12190476Y-6570987D01*
X12201147Y-6566883D01*
X12211555Y-6562293D01*
X12221686Y-6557231D01*
X12231526Y-6551712D01*
X12241059Y-6545750D01*
X12250271Y-6539360D01*
X12259147Y-6532556D01*
X12267673Y-6525353D01*
X12275833Y-6517764D01*
X12283613Y-6509805D01*
X12290998Y-6501489D01*
X12297973Y-6492831D01*
X12304524Y-6483846D01*
X12310636Y-6474547D01*
X12316293Y-6464950D01*
X12321482Y-6455069D01*
X12326187Y-6444917D01*
X12330394Y-6434510D01*
X12334088Y-6423862D01*
X12337254Y-6412987D01*
X12339878Y-6401900D01*
X12341944Y-6390615D01*
X12343438Y-6379146D01*
X12344346Y-6367508D01*
X12344652Y-6355716D01*
X12344399Y-6354020D01*
X12344134Y-6352327D01*
X12343857Y-6350636D01*
X12343567Y-6348947D01*
X12354211Y-6319491D01*
X12454826Y-6303213D01*
X12823527Y-6500680D01*
X11409869Y-8547071D02*
X11409869Y-8347071D01*
X11409869Y-8347071D02*
X11457488Y-8347071D01*
X11457488Y-8347071D02*
X11486060Y-8356595D01*
X11486060Y-8356595D02*
X11505107Y-8375642D01*
X11505107Y-8375642D02*
X11514631Y-8394690D01*
X11514631Y-8394690D02*
X11524155Y-8432785D01*
X11524155Y-8432785D02*
X11524155Y-8461357D01*
X11524155Y-8461357D02*
X11514631Y-8499452D01*
X11514631Y-8499452D02*
X11505107Y-8518499D01*
X11505107Y-8518499D02*
X11486060Y-8537547D01*
X11486060Y-8537547D02*
X11457488Y-8547071D01*
X11457488Y-8547071D02*
X11409869Y-8547071D01*
X11609869Y-8547071D02*
X11609869Y-8413737D01*
X11609869Y-8451833D02*
X11619393Y-8432785D01*
X11619393Y-8432785D02*
X11628917Y-8423261D01*
X11628917Y-8423261D02*
X11647965Y-8413737D01*
X11647965Y-8413737D02*
X11667012Y-8413737D01*
X11733679Y-8547071D02*
X11733679Y-8413737D01*
X11733679Y-8347071D02*
X11724155Y-8356595D01*
X11724155Y-8356595D02*
X11733679Y-8366118D01*
X11733679Y-8366118D02*
X11743203Y-8356595D01*
X11743203Y-8356595D02*
X11733679Y-8347071D01*
X11733679Y-8347071D02*
X11733679Y-8366118D01*
X11857488Y-8547071D02*
X11838441Y-8537547D01*
X11838441Y-8537547D02*
X11828917Y-8518499D01*
X11828917Y-8518499D02*
X11828917Y-8347071D01*
X11962250Y-8547071D02*
X11943203Y-8537547D01*
X11943203Y-8537547D02*
X11933679Y-8518499D01*
X11933679Y-8518499D02*
X11933679Y-8347071D01*
X12190822Y-8547071D02*
X12190822Y-8347071D01*
X12190822Y-8347071D02*
X12257488Y-8489928D01*
X12257488Y-8489928D02*
X12324155Y-8347071D01*
X12324155Y-8347071D02*
X12324155Y-8547071D01*
X12505107Y-8547071D02*
X12505107Y-8442309D01*
X12505107Y-8442309D02*
X12495584Y-8423261D01*
X12495584Y-8423261D02*
X12476536Y-8413737D01*
X12476536Y-8413737D02*
X12438441Y-8413737D01*
X12438441Y-8413737D02*
X12419393Y-8423261D01*
X12505107Y-8537547D02*
X12486060Y-8547071D01*
X12486060Y-8547071D02*
X12438441Y-8547071D01*
X12438441Y-8547071D02*
X12419393Y-8537547D01*
X12419393Y-8537547D02*
X12409869Y-8518499D01*
X12409869Y-8518499D02*
X12409869Y-8499452D01*
X12409869Y-8499452D02*
X12419393Y-8480404D01*
X12419393Y-8480404D02*
X12438441Y-8470880D01*
X12438441Y-8470880D02*
X12486060Y-8470880D01*
X12486060Y-8470880D02*
X12505107Y-8461357D01*
X12600346Y-8413737D02*
X12600346Y-8613737D01*
X12600346Y-8423261D02*
X12619393Y-8413737D01*
X12619393Y-8413737D02*
X12657488Y-8413737D01*
X12657488Y-8413737D02*
X12676536Y-8423261D01*
X12676536Y-8423261D02*
X12686060Y-8432785D01*
X12686060Y-8432785D02*
X12695584Y-8451833D01*
X12695584Y-8451833D02*
X12695584Y-8508976D01*
X12695584Y-8508976D02*
X12686060Y-8528023D01*
X12686060Y-8528023D02*
X12676536Y-8537547D01*
X12676536Y-8537547D02*
X12657488Y-8547071D01*
X12657488Y-8547071D02*
X12619393Y-8547071D01*
X12619393Y-8547071D02*
X12600346Y-8537547D01*
X12781298Y-8528023D02*
X12790822Y-8537547D01*
X12790822Y-8537547D02*
X12781298Y-8547071D01*
X12781298Y-8547071D02*
X12771774Y-8537547D01*
X12771774Y-8537547D02*
X12781298Y-8528023D01*
X12781298Y-8528023D02*
X12781298Y-8547071D01*
X12781298Y-8423261D02*
X12790822Y-8432785D01*
X12790822Y-8432785D02*
X12781298Y-8442309D01*
X12781298Y-8442309D02*
X12771774Y-8432785D01*
X12771774Y-8432785D02*
X12781298Y-8423261D01*
X12781298Y-8423261D02*
X12781298Y-8442309D01*
M02*
